%TF.GenerationSoftware,KiCad,Pcbnew,8.0.1*%
%TF.CreationDate,2024-03-19T19:55:23+01:00*%
%TF.ProjectId,lang1,6c616e67-312e-46b6-9963-61645f706362,rev?*%
%TF.SameCoordinates,Original*%
%TF.FileFunction,Copper,L1,Top*%
%TF.FilePolarity,Positive*%
%FSLAX46Y46*%
G04 Gerber Fmt 4.6, Leading zero omitted, Abs format (unit mm)*
G04 Created by KiCad (PCBNEW 8.0.1) date 2024-03-19 19:55:23*
%MOMM*%
%LPD*%
G01*
G04 APERTURE LIST*
G04 Aperture macros list*
%AMRoundRect*
0 Rectangle with rounded corners*
0 $1 Rounding radius*
0 $2 $3 $4 $5 $6 $7 $8 $9 X,Y pos of 4 corners*
0 Add a 4 corners polygon primitive as box body*
4,1,4,$2,$3,$4,$5,$6,$7,$8,$9,$2,$3,0*
0 Add four circle primitives for the rounded corners*
1,1,$1+$1,$2,$3*
1,1,$1+$1,$4,$5*
1,1,$1+$1,$6,$7*
1,1,$1+$1,$8,$9*
0 Add four rect primitives between the rounded corners*
20,1,$1+$1,$2,$3,$4,$5,0*
20,1,$1+$1,$4,$5,$6,$7,0*
20,1,$1+$1,$6,$7,$8,$9,0*
20,1,$1+$1,$8,$9,$2,$3,0*%
G04 Aperture macros list end*
%TA.AperFunction,Conductor*%
%ADD10C,0.200000*%
%TD*%
%TA.AperFunction,ComponentPad*%
%ADD11R,1.700000X1.700000*%
%TD*%
%TA.AperFunction,ComponentPad*%
%ADD12O,1.700000X1.700000*%
%TD*%
%TA.AperFunction,ComponentPad*%
%ADD13C,5.600000*%
%TD*%
%TA.AperFunction,SMDPad,CuDef*%
%ADD14RoundRect,0.218750X-0.381250X0.218750X-0.381250X-0.218750X0.381250X-0.218750X0.381250X0.218750X0*%
%TD*%
%TA.AperFunction,ComponentPad*%
%ADD15R,1.030000X1.030000*%
%TD*%
%TA.AperFunction,ComponentPad*%
%ADD16C,1.030000*%
%TD*%
%TA.AperFunction,SMDPad,CuDef*%
%ADD17RoundRect,0.200000X-0.275000X0.200000X-0.275000X-0.200000X0.275000X-0.200000X0.275000X0.200000X0*%
%TD*%
%TA.AperFunction,SMDPad,CuDef*%
%ADD18RoundRect,0.140000X-0.140000X-0.170000X0.140000X-0.170000X0.140000X0.170000X-0.140000X0.170000X0*%
%TD*%
%TA.AperFunction,SMDPad,CuDef*%
%ADD19R,1.100000X0.250000*%
%TD*%
%TA.AperFunction,SMDPad,CuDef*%
%ADD20RoundRect,0.200000X0.200000X0.275000X-0.200000X0.275000X-0.200000X-0.275000X0.200000X-0.275000X0*%
%TD*%
%TA.AperFunction,ComponentPad*%
%ADD21RoundRect,0.250000X-0.725000X0.600000X-0.725000X-0.600000X0.725000X-0.600000X0.725000X0.600000X0*%
%TD*%
%TA.AperFunction,ComponentPad*%
%ADD22O,1.950000X1.700000*%
%TD*%
%TA.AperFunction,ViaPad*%
%ADD23C,0.600000*%
%TD*%
G04 APERTURE END LIST*
D10*
%TO.N,VDD*%
X157480000Y-56000000D02*
X144780000Y-56000000D01*
%TD*%
D11*
%TO.P,J3,1,Pin_1*%
%TO.N,Net-(J3-Pin_1)*%
X123407898Y-59472102D03*
D12*
%TO.P,J3,2,Pin_2*%
%TO.N,Net-(J3-Pin_2)*%
X125947898Y-59472102D03*
%TD*%
D13*
%TO.P,H4,1*%
%TO.N,N/C*%
X165484000Y-68590000D03*
%TD*%
%TO.P,H3,1*%
%TO.N,N/C*%
X99060000Y-68590000D03*
%TD*%
%TO.P,H2,1*%
%TO.N,N/C*%
X165484000Y-53340000D03*
%TD*%
%TO.P,H1,1*%
%TO.N,N/C*%
X99060000Y-53340000D03*
%TD*%
D14*
%TO.P,FB1,1*%
%TO.N,GND*%
X106680000Y-61200000D03*
%TO.P,FB1,2*%
%TO.N,/GND2*%
X106680000Y-63325000D03*
%TD*%
D15*
%TO.P,VDD,1,VCC*%
%TO.N,VDD*%
X135228000Y-54450000D03*
D16*
%TO.P,VDD,2,GND*%
%TO.N,/GND2*%
X136498000Y-54450000D03*
%TO.P,VDD,3,OUT*%
%TO.N,Net-(U1-AIN1)*%
X137768000Y-54450000D03*
%TD*%
D17*
%TO.P,R2,1*%
%TO.N,VDD*%
X130492485Y-57495679D03*
%TO.P,R2,2*%
%TO.N,Net-(J3-Pin_1)*%
X130492485Y-59145679D03*
%TD*%
D18*
%TO.P,C2,1*%
%TO.N,GND*%
X111040000Y-58245000D03*
%TO.P,C2,2*%
%TO.N,VDD*%
X112000000Y-58245000D03*
%TD*%
D14*
%TO.P,FB2,1*%
%TO.N,VDD*%
X111520000Y-61200000D03*
%TO.P,FB2,2*%
X111520000Y-63325000D03*
%TD*%
D19*
%TO.P,ADS1115IDGS,10,SCL*%
%TO.N,Net-(J1-Pin_4)*%
X128546746Y-64089762D03*
%TO.P,ADS1115IDGS,9,SDA*%
%TO.N,Net-(J1-Pin_3)*%
X128546746Y-63589762D03*
%TO.P,ADS1115IDGS,8,VDD*%
%TO.N,VDD*%
X128546746Y-63089762D03*
%TO.P,ADS1115IDGS,7,AIN3*%
%TO.N,unconnected-(U1-AIN3-Pad7)*%
X128546746Y-62589762D03*
%TO.P,ADS1115IDGS,6,AIN2*%
%TO.N,unconnected-(U1-AIN2-Pad6)*%
X128546746Y-62089762D03*
%TO.P,ADS1115IDGS,5,AIN1*%
%TO.N,Net-(U1-AIN1)*%
X132846746Y-62089762D03*
%TO.P,ADS1115IDGS,4,AIN0*%
%TO.N,Net-(U1-AIN0)*%
X132846746Y-62589762D03*
%TO.P,ADS1115IDGS,3,GND*%
%TO.N,GND*%
X132846746Y-63089762D03*
%TO.P,ADS1115IDGS,2,ALERT/RDY*%
%TO.N,Net-(J3-Pin_1)*%
X132846746Y-63589762D03*
%TO.P,ADS1115IDGS,1,ADDR*%
%TO.N,Net-(J3-Pin_2)*%
X132846746Y-64089762D03*
%TD*%
D20*
%TO.P,R1,1*%
%TO.N,Net-(J3-Pin_2)*%
X123476485Y-62012102D03*
%TO.P,R1,2*%
%TO.N,GND*%
X121826485Y-62012102D03*
%TD*%
D18*
%TO.P,C1,1*%
%TO.N,/GND2*%
X108500000Y-65865000D03*
%TO.P,C1,2*%
%TO.N,VDD*%
X109460000Y-65865000D03*
%TD*%
D17*
%TO.P,R3,1*%
%TO.N,VDD*%
X116600000Y-61675000D03*
%TO.P,R3,2*%
%TO.N,Net-(J1-Pin_4)*%
X116600000Y-63325000D03*
%TD*%
D21*
%TO.P,J2,1,Pin_1*%
%TO.N,VDD*%
X147200000Y-56000000D03*
D22*
%TO.P,J2,2,Pin_2*%
%TO.N,/GND2*%
X147200000Y-58500000D03*
%TO.P,J2,3,Pin_3*%
%TO.N,Net-(J1-Pin_3)*%
X147200000Y-61000000D03*
%TO.P,J2,4,Pin_4*%
%TO.N,Net-(J1-Pin_4)*%
X147200000Y-63500000D03*
%TD*%
D15*
%TO.P,VDD,1,VCC*%
%TO.N,VDD*%
X128428000Y-54450000D03*
D16*
%TO.P,VDD,2,GND*%
%TO.N,/GND2*%
X129698000Y-54450000D03*
%TO.P,VDD,3,OUT*%
%TO.N,Net-(U1-AIN0)*%
X130968000Y-54450000D03*
%TD*%
D17*
%TO.P,R4,1*%
%TO.N,VDD*%
X116600000Y-58245000D03*
%TO.P,R4,2*%
%TO.N,Net-(J1-Pin_3)*%
X116600000Y-59895000D03*
%TD*%
D21*
%TO.P,J1,1,Pin_1*%
%TO.N,VDD*%
X157480000Y-56000000D03*
D22*
%TO.P,J1,2,Pin_2*%
%TO.N,/GND2*%
X157480000Y-58500000D03*
%TO.P,J1,3,Pin_3*%
%TO.N,Net-(J1-Pin_3)*%
X157480000Y-61000000D03*
%TO.P,J1,4,Pin_4*%
%TO.N,Net-(J1-Pin_4)*%
X157480000Y-63500000D03*
%TD*%
D23*
%TO.N,/GND2*%
X106440000Y-65865000D03*
X134620000Y-55880000D03*
%TO.N,GND*%
X120300540Y-60638763D03*
X131045338Y-62367042D03*
%TO.N,/GND2*%
X152320000Y-58500000D03*
%TO.N,GND*%
X108980000Y-58245000D03*
%TD*%
D10*
%TO.N,Net-(J3-Pin_1)*%
X130492485Y-59145679D02*
X127497898Y-59145679D01*
X127497898Y-59145679D02*
X127497898Y-58830070D01*
X127497898Y-58830070D02*
X126589930Y-57922102D01*
X124957898Y-57922102D02*
X123407898Y-59472102D01*
X126589930Y-57922102D02*
X124957898Y-57922102D01*
%TO.N,Net-(J3-Pin_2)*%
X123476485Y-62012102D02*
X125947898Y-59540689D01*
X132690000Y-64110000D02*
X130230686Y-64110000D01*
X130230686Y-64110000D02*
X129330686Y-63210000D01*
X129330686Y-63210000D02*
X129330686Y-61775686D01*
X129330686Y-61775686D02*
X129240000Y-61685000D01*
X129240000Y-61685000D02*
X126275000Y-61685000D01*
X126275000Y-61685000D02*
X125947898Y-62012102D01*
X125947898Y-62012102D02*
X123476485Y-62012102D01*
%TO.N,GND*%
X120300540Y-60638763D02*
X121673879Y-62012102D01*
X121673879Y-62012102D02*
X121920000Y-62012102D01*
X131788296Y-63110000D02*
X132690000Y-63110000D01*
X108980000Y-58245000D02*
X111040000Y-58245000D01*
X132615000Y-63035000D02*
X132690000Y-63110000D01*
%TO.N,/GND2*%
X152320000Y-58500000D02*
X157480000Y-58500000D01*
X108500000Y-65865000D02*
X108500000Y-65145000D01*
X129540000Y-54608000D02*
X129698000Y-54450000D01*
X152320000Y-58500000D02*
X147320000Y-58500000D01*
%TO.N,GND*%
X108980000Y-58900000D02*
X106680000Y-61200000D01*
X131045338Y-62367042D02*
X131788296Y-63110000D01*
%TO.N,/GND2*%
X135428000Y-55880000D02*
X136498000Y-54810000D01*
X130808000Y-53340000D02*
X129698000Y-54450000D01*
X108460000Y-65905000D02*
X108500000Y-65865000D01*
X108500000Y-65145000D02*
X106680000Y-63325000D01*
X136498000Y-54810000D02*
X136498000Y-54450000D01*
X132080000Y-53340000D02*
X130808000Y-53340000D01*
%TO.N,GND*%
X108980000Y-58245000D02*
X108980000Y-58900000D01*
%TO.N,/GND2*%
X106440000Y-65865000D02*
X108500000Y-65865000D01*
X134620000Y-55880000D02*
X132080000Y-53340000D01*
X134620000Y-55880000D02*
X135428000Y-55880000D01*
%TO.N,VDD*%
X142240000Y-53340000D02*
X142240000Y-53460000D01*
X104140000Y-66040000D02*
X106505000Y-68405000D01*
X129540000Y-50800000D02*
X139700000Y-50800000D01*
X112000000Y-58245000D02*
X114060000Y-58245000D01*
X116600000Y-58694314D02*
X121015686Y-63110000D01*
X142240000Y-53460000D02*
X144780000Y-56000000D01*
X116600000Y-58245000D02*
X118849673Y-55995327D01*
X127000000Y-53340000D02*
X127318000Y-53340000D01*
X104140000Y-58420000D02*
X104140000Y-66040000D01*
X132080000Y-51302000D02*
X132080000Y-50800000D01*
X112000000Y-58245000D02*
X112000000Y-60720000D01*
X109460000Y-65865000D02*
X109460000Y-65385000D01*
X112000000Y-60720000D02*
X111520000Y-61200000D01*
X109460000Y-65385000D02*
X111520000Y-63325000D01*
X109460000Y-67925000D02*
X109460000Y-65865000D01*
X135228000Y-54450000D02*
X132080000Y-51302000D01*
X139700000Y-50800000D02*
X142240000Y-53340000D01*
X121015686Y-63110000D02*
X128390000Y-63110000D01*
X127000000Y-53340000D02*
X129540000Y-50800000D01*
X106505000Y-68405000D02*
X108980000Y-68405000D01*
X109220000Y-53340000D02*
X104140000Y-58420000D01*
X114060000Y-61675000D02*
X116600000Y-61675000D01*
X128992133Y-55995327D02*
X130492485Y-57495679D01*
X114060000Y-58245000D02*
X116600000Y-58245000D01*
X108980000Y-68405000D02*
X109460000Y-67925000D01*
X147320000Y-56000000D02*
X144900000Y-56000000D01*
X127318000Y-53340000D02*
X128428000Y-54450000D01*
X116600000Y-58245000D02*
X116600000Y-58694314D01*
X114060000Y-58245000D02*
X114060000Y-61675000D01*
X127000000Y-53340000D02*
X109220000Y-53340000D01*
X118849673Y-55995327D02*
X128992133Y-55995327D01*
%TO.N,Net-(J1-Pin_3)*%
X129165000Y-63610000D02*
X129540000Y-63985000D01*
X139660000Y-61000000D02*
X157480000Y-61000000D01*
X129540000Y-66040000D02*
X132080000Y-66040000D01*
X134620000Y-66040000D02*
X139660000Y-61000000D01*
X116600000Y-59895000D02*
X117600000Y-60895000D01*
X120950000Y-63610000D02*
X128390000Y-63610000D01*
X128390000Y-63610000D02*
X129165000Y-63610000D01*
X129540000Y-63985000D02*
X129540000Y-66040000D01*
X118235000Y-60895000D02*
X120950000Y-63610000D01*
X132080000Y-66040000D02*
X134620000Y-66040000D01*
X117600000Y-60895000D02*
X118235000Y-60895000D01*
%TO.N,Net-(U1-AIN1)*%
X133470000Y-62110000D02*
X132690000Y-62110000D01*
X137768000Y-54450000D02*
X137768000Y-57812000D01*
X137768000Y-57812000D02*
X133470000Y-62110000D01*
%TO.N,Net-(U1-AIN0)*%
X131915000Y-62610000D02*
X132690000Y-62610000D01*
X130968000Y-54450000D02*
X132080000Y-55562000D01*
X132080000Y-55562000D02*
X132080000Y-61445000D01*
X132080000Y-61445000D02*
X131840000Y-61685000D01*
X131840000Y-61685000D02*
X131840000Y-62535000D01*
X131840000Y-62535000D02*
X131915000Y-62610000D01*
%TO.N,Net-(J1-Pin_4)*%
X129140000Y-66205685D02*
X129374315Y-66440000D01*
X116600000Y-63325000D02*
X117328676Y-64053676D01*
X144260000Y-66440000D02*
X147200000Y-63500000D01*
X129374315Y-66440000D02*
X144260000Y-66440000D01*
X128390000Y-64110000D02*
X129140000Y-64860000D01*
X129140000Y-64860000D02*
X129140000Y-66205685D01*
X157480000Y-63500000D02*
X147200000Y-63500000D01*
X117328676Y-64053676D02*
X128333676Y-64053676D01*
X128333676Y-64053676D02*
X128390000Y-64110000D01*
%TO.N,Net-(J3-Pin_1)*%
X130492485Y-59145679D02*
X130492485Y-59739057D01*
X130477015Y-63610000D02*
X132690000Y-63610000D01*
X130492485Y-59739057D02*
X130175998Y-60055544D01*
X130175998Y-60055544D02*
X130175998Y-63308983D01*
X130175998Y-63308983D02*
X130477015Y-63610000D01*
%TD*%
M02*
