%TF.GenerationSoftware,KiCad,Pcbnew,8.0.1*%
%TF.CreationDate,2024-03-19T19:55:23+01:00*%
%TF.ProjectId,lang1,6c616e67-312e-46b6-9963-61645f706362,rev?*%
%TF.SameCoordinates,Original*%
%TF.FileFunction,Soldermask,Top*%
%TF.FilePolarity,Negative*%
%FSLAX46Y46*%
G04 Gerber Fmt 4.6, Leading zero omitted, Abs format (unit mm)*
G04 Created by KiCad (PCBNEW 8.0.1) date 2024-03-19 19:55:23*
%MOMM*%
%LPD*%
G01*
G04 APERTURE LIST*
G04 Aperture macros list*
%AMRoundRect*
0 Rectangle with rounded corners*
0 $1 Rounding radius*
0 $2 $3 $4 $5 $6 $7 $8 $9 X,Y pos of 4 corners*
0 Add a 4 corners polygon primitive as box body*
4,1,4,$2,$3,$4,$5,$6,$7,$8,$9,$2,$3,0*
0 Add four circle primitives for the rounded corners*
1,1,$1+$1,$2,$3*
1,1,$1+$1,$4,$5*
1,1,$1+$1,$6,$7*
1,1,$1+$1,$8,$9*
0 Add four rect primitives between the rounded corners*
20,1,$1+$1,$2,$3,$4,$5,0*
20,1,$1+$1,$4,$5,$6,$7,0*
20,1,$1+$1,$6,$7,$8,$9,0*
20,1,$1+$1,$8,$9,$2,$3,0*%
G04 Aperture macros list end*
%ADD10R,1.700000X1.700000*%
%ADD11O,1.700000X1.700000*%
%ADD12C,5.600000*%
%ADD13RoundRect,0.218750X-0.381250X0.218750X-0.381250X-0.218750X0.381250X-0.218750X0.381250X0.218750X0*%
%ADD14RoundRect,0.102000X-0.515000X-0.515000X0.515000X-0.515000X0.515000X0.515000X-0.515000X0.515000X0*%
%ADD15C,1.234000*%
%ADD16RoundRect,0.200000X-0.275000X0.200000X-0.275000X-0.200000X0.275000X-0.200000X0.275000X0.200000X0*%
%ADD17RoundRect,0.140000X-0.140000X-0.170000X0.140000X-0.170000X0.140000X0.170000X-0.140000X0.170000X0*%
%ADD18R,1.100000X0.250000*%
%ADD19RoundRect,0.200000X0.200000X0.275000X-0.200000X0.275000X-0.200000X-0.275000X0.200000X-0.275000X0*%
%ADD20RoundRect,0.250000X-0.725000X0.600000X-0.725000X-0.600000X0.725000X-0.600000X0.725000X0.600000X0*%
%ADD21O,1.950000X1.700000*%
G04 APERTURE END LIST*
D10*
%TO.C,J3*%
X123407898Y-59472102D03*
D11*
X125947898Y-59472102D03*
%TD*%
D12*
%TO.C,H4*%
X165484000Y-68590000D03*
%TD*%
%TO.C,H3*%
X99060000Y-68590000D03*
%TD*%
%TO.C,H2*%
X165484000Y-53340000D03*
%TD*%
%TO.C,H1*%
X99060000Y-53340000D03*
%TD*%
D13*
%TO.C,FB1*%
X106680000Y-61200000D03*
X106680000Y-63325000D03*
%TD*%
D14*
%TO.C,VDD*%
X135228000Y-54450000D03*
D15*
X136498000Y-54450000D03*
X137768000Y-54450000D03*
%TD*%
D16*
%TO.C,R2*%
X130492485Y-57495679D03*
X130492485Y-59145679D03*
%TD*%
D17*
%TO.C,C2*%
X111040000Y-58245000D03*
X112000000Y-58245000D03*
%TD*%
D13*
%TO.C,FB2*%
X111520000Y-61200000D03*
X111520000Y-63325000D03*
%TD*%
D18*
%TO.C,ADS1115IDGS*%
X128546746Y-64089762D03*
X128546746Y-63589762D03*
X128546746Y-63089762D03*
X128546746Y-62589762D03*
X128546746Y-62089762D03*
X132846746Y-62089762D03*
X132846746Y-62589762D03*
X132846746Y-63089762D03*
X132846746Y-63589762D03*
X132846746Y-64089762D03*
%TD*%
D19*
%TO.C,R1*%
X123476485Y-62012102D03*
X121826485Y-62012102D03*
%TD*%
D17*
%TO.C,C1*%
X108500000Y-65865000D03*
X109460000Y-65865000D03*
%TD*%
D16*
%TO.C,R3*%
X116600000Y-61675000D03*
X116600000Y-63325000D03*
%TD*%
D20*
%TO.C,J2*%
X147200000Y-56000000D03*
D21*
X147200000Y-58500000D03*
X147200000Y-61000000D03*
X147200000Y-63500000D03*
%TD*%
D14*
%TO.C,VDD*%
X128428000Y-54450000D03*
D15*
X129698000Y-54450000D03*
X130968000Y-54450000D03*
%TD*%
D16*
%TO.C,R4*%
X116600000Y-58245000D03*
X116600000Y-59895000D03*
%TD*%
D20*
%TO.C,J1*%
X157480000Y-56000000D03*
D21*
X157480000Y-58500000D03*
X157480000Y-61000000D03*
X157480000Y-63500000D03*
%TD*%
M02*
