%TF.GenerationSoftware,KiCad,Pcbnew,8.0.1*%
%TF.CreationDate,2024-03-19T19:55:23+01:00*%
%TF.ProjectId,lang1,6c616e67-312e-46b6-9963-61645f706362,rev?*%
%TF.SameCoordinates,Original*%
%TF.FileFunction,Copper,L2,Bot*%
%TF.FilePolarity,Positive*%
%FSLAX46Y46*%
G04 Gerber Fmt 4.6, Leading zero omitted, Abs format (unit mm)*
G04 Created by KiCad (PCBNEW 8.0.1) date 2024-03-19 19:55:23*
%MOMM*%
%LPD*%
G01*
G04 APERTURE LIST*
G04 Aperture macros list*
%AMRoundRect*
0 Rectangle with rounded corners*
0 $1 Rounding radius*
0 $2 $3 $4 $5 $6 $7 $8 $9 X,Y pos of 4 corners*
0 Add a 4 corners polygon primitive as box body*
4,1,4,$2,$3,$4,$5,$6,$7,$8,$9,$2,$3,0*
0 Add four circle primitives for the rounded corners*
1,1,$1+$1,$2,$3*
1,1,$1+$1,$4,$5*
1,1,$1+$1,$6,$7*
1,1,$1+$1,$8,$9*
0 Add four rect primitives between the rounded corners*
20,1,$1+$1,$2,$3,$4,$5,0*
20,1,$1+$1,$4,$5,$6,$7,0*
20,1,$1+$1,$6,$7,$8,$9,0*
20,1,$1+$1,$8,$9,$2,$3,0*%
G04 Aperture macros list end*
%TA.AperFunction,ComponentPad*%
%ADD10R,1.700000X1.700000*%
%TD*%
%TA.AperFunction,ComponentPad*%
%ADD11O,1.700000X1.700000*%
%TD*%
%TA.AperFunction,ComponentPad*%
%ADD12C,5.600000*%
%TD*%
%TA.AperFunction,ComponentPad*%
%ADD13R,1.030000X1.030000*%
%TD*%
%TA.AperFunction,ComponentPad*%
%ADD14C,1.030000*%
%TD*%
%TA.AperFunction,ComponentPad*%
%ADD15RoundRect,0.250000X-0.725000X0.600000X-0.725000X-0.600000X0.725000X-0.600000X0.725000X0.600000X0*%
%TD*%
%TA.AperFunction,ComponentPad*%
%ADD16O,1.950000X1.700000*%
%TD*%
%TA.AperFunction,ViaPad*%
%ADD17C,0.600000*%
%TD*%
%TA.AperFunction,Conductor*%
%ADD18C,0.200000*%
%TD*%
G04 APERTURE END LIST*
D10*
%TO.P,J3,1,Pin_1*%
%TO.N,Net-(J3-Pin_1)*%
X123407898Y-59472102D03*
D11*
%TO.P,J3,2,Pin_2*%
%TO.N,Net-(J3-Pin_2)*%
X125947898Y-59472102D03*
%TD*%
D12*
%TO.P,H4,1*%
%TO.N,N/C*%
X165484000Y-68590000D03*
%TD*%
%TO.P,H3,1*%
%TO.N,N/C*%
X99060000Y-68590000D03*
%TD*%
%TO.P,H2,1*%
%TO.N,N/C*%
X165484000Y-53340000D03*
%TD*%
%TO.P,H1,1*%
%TO.N,N/C*%
X99060000Y-53340000D03*
%TD*%
D13*
%TO.P,VDD,1,VCC*%
%TO.N,VDD*%
X135228000Y-54450000D03*
D14*
%TO.P,VDD,2,GND*%
%TO.N,/GND2*%
X136498000Y-54450000D03*
%TO.P,VDD,3,OUT*%
%TO.N,Net-(U1-AIN1)*%
X137768000Y-54450000D03*
%TD*%
D15*
%TO.P,J2,1,Pin_1*%
%TO.N,VDD*%
X147200000Y-56000000D03*
D16*
%TO.P,J2,2,Pin_2*%
%TO.N,/GND2*%
X147200000Y-58500000D03*
%TO.P,J2,3,Pin_3*%
%TO.N,Net-(J1-Pin_3)*%
X147200000Y-61000000D03*
%TO.P,J2,4,Pin_4*%
%TO.N,Net-(J1-Pin_4)*%
X147200000Y-63500000D03*
%TD*%
D13*
%TO.P,VDD,1,VCC*%
%TO.N,VDD*%
X128428000Y-54450000D03*
D14*
%TO.P,VDD,2,GND*%
%TO.N,/GND2*%
X129698000Y-54450000D03*
%TO.P,VDD,3,OUT*%
%TO.N,Net-(U1-AIN0)*%
X130968000Y-54450000D03*
%TD*%
D15*
%TO.P,J1,1,Pin_1*%
%TO.N,VDD*%
X157480000Y-56000000D03*
D16*
%TO.P,J1,2,Pin_2*%
%TO.N,/GND2*%
X157480000Y-58500000D03*
%TO.P,J1,3,Pin_3*%
%TO.N,Net-(J1-Pin_3)*%
X157480000Y-61000000D03*
%TO.P,J1,4,Pin_4*%
%TO.N,Net-(J1-Pin_4)*%
X157480000Y-63500000D03*
%TD*%
D17*
%TO.N,/GND2*%
X106440000Y-65865000D03*
X134620000Y-55880000D03*
%TO.N,GND*%
X120300540Y-60638763D03*
X131045338Y-62367042D03*
%TO.N,/GND2*%
X152320000Y-58500000D03*
%TO.N,GND*%
X108980000Y-58245000D03*
%TD*%
D18*
%TO.N,/GND2*%
X128046177Y-55880000D02*
X134620000Y-55880000D01*
X106440000Y-65865000D02*
X106440000Y-58660000D01*
X150970000Y-57150000D02*
X152320000Y-58500000D01*
X110266177Y-54833823D02*
X127000000Y-54833823D01*
X140970000Y-57150000D02*
X150970000Y-57150000D01*
X106440000Y-58660000D02*
X110266177Y-54833823D01*
X127000000Y-54833823D02*
X128046177Y-55880000D01*
X139700000Y-55880000D02*
X140970000Y-57150000D01*
X134620000Y-55880000D02*
X139700000Y-55880000D01*
%TD*%
%TA.AperFunction,Conductor*%
%TO.N,GND*%
G36*
X165486702Y-48760618D02*
G01*
X165499819Y-48761190D01*
X165877742Y-48777690D01*
X165888477Y-48778630D01*
X166273859Y-48829366D01*
X166284493Y-48831241D01*
X166663990Y-48915374D01*
X166674416Y-48918168D01*
X167045135Y-49035055D01*
X167055270Y-49038744D01*
X167414387Y-49187495D01*
X167424178Y-49192061D01*
X167768942Y-49371534D01*
X167778309Y-49376941D01*
X168048434Y-49549030D01*
X168106130Y-49585786D01*
X168114991Y-49591991D01*
X168423353Y-49828605D01*
X168431640Y-49835559D01*
X168718204Y-50098146D01*
X168725853Y-50105795D01*
X168988440Y-50392359D01*
X168995394Y-50400646D01*
X169232008Y-50709008D01*
X169238213Y-50717869D01*
X169447057Y-51045689D01*
X169452465Y-51055057D01*
X169631935Y-51399814D01*
X169636507Y-51409618D01*
X169785249Y-51768714D01*
X169788949Y-51778879D01*
X169905828Y-52149572D01*
X169908628Y-52160021D01*
X169992756Y-52539498D01*
X169994634Y-52550151D01*
X170045367Y-52935499D01*
X170046310Y-52946276D01*
X170063382Y-53337297D01*
X170063500Y-53342706D01*
X170063500Y-68577293D01*
X170063382Y-68582702D01*
X170046310Y-68973723D01*
X170045367Y-68984500D01*
X169994634Y-69369848D01*
X169992756Y-69380501D01*
X169908628Y-69759978D01*
X169905828Y-69770427D01*
X169788949Y-70141120D01*
X169785249Y-70151285D01*
X169636507Y-70510381D01*
X169631935Y-70520185D01*
X169452465Y-70864942D01*
X169447057Y-70874310D01*
X169238213Y-71202130D01*
X169232008Y-71210991D01*
X168995394Y-71519353D01*
X168988440Y-71527640D01*
X168725853Y-71814204D01*
X168718204Y-71821853D01*
X168431640Y-72084440D01*
X168423353Y-72091394D01*
X168114991Y-72328008D01*
X168106130Y-72334213D01*
X167778310Y-72543057D01*
X167768942Y-72548465D01*
X167424185Y-72727935D01*
X167414381Y-72732507D01*
X167055285Y-72881249D01*
X167045120Y-72884949D01*
X166674427Y-73001828D01*
X166663978Y-73004628D01*
X166284501Y-73088756D01*
X166273848Y-73090634D01*
X165888500Y-73141367D01*
X165877723Y-73142310D01*
X165486703Y-73159382D01*
X165481294Y-73159500D01*
X99062706Y-73159500D01*
X99057297Y-73159382D01*
X98666276Y-73142310D01*
X98655501Y-73141367D01*
X98566792Y-73129688D01*
X98270151Y-73090634D01*
X98259498Y-73088756D01*
X97880021Y-73004628D01*
X97869572Y-73001828D01*
X97498879Y-72884949D01*
X97488714Y-72881249D01*
X97129618Y-72732507D01*
X97119814Y-72727935D01*
X96775057Y-72548465D01*
X96765689Y-72543057D01*
X96437869Y-72334213D01*
X96429008Y-72328008D01*
X96120646Y-72091394D01*
X96112359Y-72084440D01*
X95825795Y-71821853D01*
X95818146Y-71814204D01*
X95555559Y-71527640D01*
X95548605Y-71519353D01*
X95311991Y-71210991D01*
X95305786Y-71202130D01*
X95133666Y-70931956D01*
X95096941Y-70874309D01*
X95091534Y-70864942D01*
X94912064Y-70520185D01*
X94907492Y-70510381D01*
X94758744Y-70151270D01*
X94755055Y-70141135D01*
X94638168Y-69770416D01*
X94635374Y-69759990D01*
X94551241Y-69380493D01*
X94549365Y-69369848D01*
X94543078Y-69322094D01*
X94498630Y-68984477D01*
X94497690Y-68973742D01*
X94480937Y-68590002D01*
X95654506Y-68590002D01*
X95674469Y-68958196D01*
X95674470Y-68958213D01*
X95734122Y-69322068D01*
X95734128Y-69322094D01*
X95832768Y-69677365D01*
X95832770Y-69677371D01*
X95832772Y-69677377D01*
X95832773Y-69677379D01*
X95875865Y-69785533D01*
X95969255Y-70019926D01*
X95969261Y-70019938D01*
X96141973Y-70345708D01*
X96141979Y-70345717D01*
X96348909Y-70650916D01*
X96575886Y-70918133D01*
X96587627Y-70931956D01*
X96855330Y-71185538D01*
X97148881Y-71408690D01*
X97464838Y-71598795D01*
X97464840Y-71598796D01*
X97464842Y-71598797D01*
X97464846Y-71598799D01*
X97799486Y-71753620D01*
X97799497Y-71753625D01*
X98148934Y-71871364D01*
X98509052Y-71950632D01*
X98875630Y-71990500D01*
X98875636Y-71990500D01*
X99244364Y-71990500D01*
X99244370Y-71990500D01*
X99610948Y-71950632D01*
X99971066Y-71871364D01*
X100320503Y-71753625D01*
X100655162Y-71598795D01*
X100971119Y-71408690D01*
X101264670Y-71185538D01*
X101532373Y-70931956D01*
X101771090Y-70650917D01*
X101978022Y-70345716D01*
X102150743Y-70019930D01*
X102287227Y-69677379D01*
X102385875Y-69322081D01*
X102445531Y-68958199D01*
X102465494Y-68590002D01*
X162078506Y-68590002D01*
X162098469Y-68958196D01*
X162098470Y-68958213D01*
X162158122Y-69322068D01*
X162158128Y-69322094D01*
X162256768Y-69677365D01*
X162256770Y-69677371D01*
X162256772Y-69677377D01*
X162256773Y-69677379D01*
X162299865Y-69785533D01*
X162393255Y-70019926D01*
X162393261Y-70019938D01*
X162565973Y-70345708D01*
X162565979Y-70345717D01*
X162772909Y-70650916D01*
X162999886Y-70918133D01*
X163011627Y-70931956D01*
X163279330Y-71185538D01*
X163572881Y-71408690D01*
X163888838Y-71598795D01*
X163888840Y-71598796D01*
X163888842Y-71598797D01*
X163888846Y-71598799D01*
X164223486Y-71753620D01*
X164223497Y-71753625D01*
X164572934Y-71871364D01*
X164933052Y-71950632D01*
X165299630Y-71990500D01*
X165299636Y-71990500D01*
X165668364Y-71990500D01*
X165668370Y-71990500D01*
X166034948Y-71950632D01*
X166395066Y-71871364D01*
X166744503Y-71753625D01*
X167079162Y-71598795D01*
X167395119Y-71408690D01*
X167688670Y-71185538D01*
X167956373Y-70931956D01*
X168195090Y-70650917D01*
X168402022Y-70345716D01*
X168574743Y-70019930D01*
X168711227Y-69677379D01*
X168809875Y-69322081D01*
X168869531Y-68958199D01*
X168889494Y-68590000D01*
X168869531Y-68221801D01*
X168809875Y-67857919D01*
X168711227Y-67502621D01*
X168574743Y-67160070D01*
X168402022Y-66834284D01*
X168195090Y-66529083D01*
X167956373Y-66248044D01*
X167688670Y-65994462D01*
X167395119Y-65771310D01*
X167079162Y-65581205D01*
X167079161Y-65581204D01*
X167079157Y-65581202D01*
X167079153Y-65581200D01*
X166744513Y-65426379D01*
X166744508Y-65426377D01*
X166744503Y-65426375D01*
X166574172Y-65368983D01*
X166395065Y-65308635D01*
X166034946Y-65229367D01*
X165668371Y-65189500D01*
X165668370Y-65189500D01*
X165299630Y-65189500D01*
X165299628Y-65189500D01*
X164933053Y-65229367D01*
X164572934Y-65308635D01*
X164302812Y-65399650D01*
X164223497Y-65426375D01*
X164223494Y-65426376D01*
X164223486Y-65426379D01*
X163888846Y-65581200D01*
X163888842Y-65581202D01*
X163730051Y-65676744D01*
X163572881Y-65771310D01*
X163472410Y-65847685D01*
X163279330Y-65994461D01*
X163279330Y-65994462D01*
X163011626Y-66248044D01*
X162772909Y-66529083D01*
X162565979Y-66834282D01*
X162565973Y-66834291D01*
X162393261Y-67160061D01*
X162393255Y-67160073D01*
X162256770Y-67502628D01*
X162256768Y-67502634D01*
X162158128Y-67857905D01*
X162158122Y-67857931D01*
X162098470Y-68221786D01*
X162098469Y-68221803D01*
X162078506Y-68589997D01*
X162078506Y-68590002D01*
X102465494Y-68590002D01*
X102465494Y-68590000D01*
X102445531Y-68221801D01*
X102385875Y-67857919D01*
X102287227Y-67502621D01*
X102150743Y-67160070D01*
X101978022Y-66834284D01*
X101771090Y-66529083D01*
X101532373Y-66248044D01*
X101264670Y-65994462D01*
X101094366Y-65865000D01*
X105534540Y-65865000D01*
X105554326Y-66053256D01*
X105554327Y-66053259D01*
X105612818Y-66233277D01*
X105612821Y-66233284D01*
X105707467Y-66397216D01*
X105826201Y-66529083D01*
X105834129Y-66537888D01*
X105987265Y-66649148D01*
X105987270Y-66649151D01*
X106160192Y-66726142D01*
X106160197Y-66726144D01*
X106345354Y-66765500D01*
X106345355Y-66765500D01*
X106534644Y-66765500D01*
X106534646Y-66765500D01*
X106719803Y-66726144D01*
X106892730Y-66649151D01*
X107045871Y-66537888D01*
X107172533Y-66397216D01*
X107267179Y-66233284D01*
X107325674Y-66053256D01*
X107345460Y-65865000D01*
X107325674Y-65676744D01*
X107267179Y-65496716D01*
X107172533Y-65332784D01*
X107172344Y-65332574D01*
X107172273Y-65332427D01*
X107168714Y-65327528D01*
X107169610Y-65326876D01*
X107142119Y-65269580D01*
X107140500Y-65249608D01*
X107140500Y-60361465D01*
X121957398Y-60361465D01*
X121972851Y-60478855D01*
X121972854Y-60478864D01*
X122033362Y-60624943D01*
X122129616Y-60750384D01*
X122255057Y-60846638D01*
X122401136Y-60907146D01*
X122518537Y-60922602D01*
X124297258Y-60922601D01*
X124297261Y-60922601D01*
X124414651Y-60907148D01*
X124414655Y-60907146D01*
X124414660Y-60907146D01*
X124560739Y-60846638D01*
X124686180Y-60750384D01*
X124782434Y-60624943D01*
X124789649Y-60607522D01*
X124833488Y-60553121D01*
X124899782Y-60531055D01*
X124967482Y-60548333D01*
X124980372Y-60557123D01*
X125151822Y-60690568D01*
X125151828Y-60690572D01*
X125151831Y-60690574D01*
X125363242Y-60804984D01*
X125363245Y-60804985D01*
X125590597Y-60883035D01*
X125590599Y-60883035D01*
X125590601Y-60883036D01*
X125827706Y-60922602D01*
X125827707Y-60922602D01*
X126068089Y-60922602D01*
X126068090Y-60922602D01*
X126305195Y-60883036D01*
X126532554Y-60804984D01*
X126743965Y-60690574D01*
X126933662Y-60542927D01*
X127096469Y-60366071D01*
X127227947Y-60164830D01*
X127324508Y-59944693D01*
X127383518Y-59711665D01*
X127403369Y-59472102D01*
X127401118Y-59444938D01*
X127383518Y-59232542D01*
X127383518Y-59232539D01*
X127324508Y-58999511D01*
X127227947Y-58779374D01*
X127096469Y-58578133D01*
X126933662Y-58401277D01*
X126933657Y-58401273D01*
X126933655Y-58401271D01*
X126743973Y-58253635D01*
X126743967Y-58253631D01*
X126532555Y-58139220D01*
X126532550Y-58139218D01*
X126305198Y-58061168D01*
X126127366Y-58031493D01*
X126068090Y-58021602D01*
X125827706Y-58021602D01*
X125780285Y-58029515D01*
X125590597Y-58061168D01*
X125363245Y-58139218D01*
X125363240Y-58139220D01*
X125151828Y-58253631D01*
X125151822Y-58253635D01*
X124980372Y-58387081D01*
X124915378Y-58412724D01*
X124846838Y-58399158D01*
X124796514Y-58350689D01*
X124789653Y-58336689D01*
X124782434Y-58319261D01*
X124686180Y-58193820D01*
X124560739Y-58097566D01*
X124414660Y-58037058D01*
X124414658Y-58037057D01*
X124297268Y-58021603D01*
X124297265Y-58021602D01*
X124297259Y-58021602D01*
X124297252Y-58021602D01*
X122518534Y-58021602D01*
X122401144Y-58037055D01*
X122401135Y-58037058D01*
X122255058Y-58097565D01*
X122129616Y-58193820D01*
X122033361Y-58319262D01*
X121972854Y-58465339D01*
X121972853Y-58465341D01*
X121957399Y-58582731D01*
X121957398Y-58582747D01*
X121957398Y-60361465D01*
X107140500Y-60361465D01*
X107140500Y-59001518D01*
X107160185Y-58934479D01*
X107176819Y-58913837D01*
X110520014Y-55570642D01*
X110581337Y-55537157D01*
X110607695Y-55534323D01*
X126658481Y-55534323D01*
X126725520Y-55554008D01*
X126746162Y-55570642D01*
X127599630Y-56424111D01*
X127599631Y-56424112D01*
X127714369Y-56500777D01*
X127841844Y-56553578D01*
X127841849Y-56553580D01*
X127841853Y-56553580D01*
X127841854Y-56553581D01*
X127977180Y-56580500D01*
X127977183Y-56580500D01*
X127977184Y-56580500D01*
X134011844Y-56580500D01*
X134078883Y-56600185D01*
X134084729Y-56604182D01*
X134167265Y-56664148D01*
X134167270Y-56664151D01*
X134340192Y-56741142D01*
X134340197Y-56741144D01*
X134525354Y-56780500D01*
X134525355Y-56780500D01*
X134714644Y-56780500D01*
X134714646Y-56780500D01*
X134899803Y-56741144D01*
X135072730Y-56664151D01*
X135088320Y-56652823D01*
X135155271Y-56604182D01*
X135221077Y-56580702D01*
X135228156Y-56580500D01*
X139358481Y-56580500D01*
X139425520Y-56600185D01*
X139446162Y-56616819D01*
X140523453Y-57694111D01*
X140523454Y-57694112D01*
X140523457Y-57694114D01*
X140638189Y-57770775D01*
X140765671Y-57823580D01*
X140783428Y-57827112D01*
X140812822Y-57832959D01*
X140901004Y-57850500D01*
X140901007Y-57850500D01*
X145590218Y-57850500D01*
X145657257Y-57870185D01*
X145703012Y-57922989D01*
X145712956Y-57992147D01*
X145708149Y-58012819D01*
X145660215Y-58160339D01*
X145624500Y-58385837D01*
X145624500Y-58614162D01*
X145660215Y-58839660D01*
X145730770Y-59056803D01*
X145789919Y-59172888D01*
X145834421Y-59260228D01*
X145968621Y-59444937D01*
X146130063Y-59606379D01*
X146130069Y-59606383D01*
X146189664Y-59649683D01*
X146232330Y-59705013D01*
X146238308Y-59774627D01*
X146205701Y-59836421D01*
X146189664Y-59850317D01*
X146130069Y-59893616D01*
X146130060Y-59893623D01*
X145968622Y-60055061D01*
X145834421Y-60239771D01*
X145730770Y-60443196D01*
X145660215Y-60660339D01*
X145624500Y-60885837D01*
X145624500Y-61114162D01*
X145660215Y-61339660D01*
X145730770Y-61556803D01*
X145834421Y-61760228D01*
X145968621Y-61944937D01*
X146130063Y-62106379D01*
X146130069Y-62106383D01*
X146189664Y-62149683D01*
X146232330Y-62205013D01*
X146238308Y-62274627D01*
X146205701Y-62336421D01*
X146189664Y-62350317D01*
X146130069Y-62393616D01*
X146130060Y-62393623D01*
X145968622Y-62555061D01*
X145834421Y-62739771D01*
X145730770Y-62943196D01*
X145660215Y-63160339D01*
X145624500Y-63385837D01*
X145624500Y-63614162D01*
X145660215Y-63839660D01*
X145730770Y-64056803D01*
X145834421Y-64260228D01*
X145968621Y-64444937D01*
X146130063Y-64606379D01*
X146314772Y-64740579D01*
X146410884Y-64789550D01*
X146518196Y-64844229D01*
X146518198Y-64844229D01*
X146518201Y-64844231D01*
X146634592Y-64882049D01*
X146735339Y-64914784D01*
X146960838Y-64950500D01*
X146960843Y-64950500D01*
X147439162Y-64950500D01*
X147664660Y-64914784D01*
X147881799Y-64844231D01*
X148085228Y-64740579D01*
X148269937Y-64606379D01*
X148431379Y-64444937D01*
X148565579Y-64260228D01*
X148669231Y-64056799D01*
X148739784Y-63839660D01*
X148775500Y-63614162D01*
X155904500Y-63614162D01*
X155940215Y-63839660D01*
X156010770Y-64056803D01*
X156114421Y-64260228D01*
X156248621Y-64444937D01*
X156410063Y-64606379D01*
X156594772Y-64740579D01*
X156690884Y-64789550D01*
X156798196Y-64844229D01*
X156798198Y-64844229D01*
X156798201Y-64844231D01*
X156914592Y-64882049D01*
X157015339Y-64914784D01*
X157240838Y-64950500D01*
X157240843Y-64950500D01*
X157719162Y-64950500D01*
X157944660Y-64914784D01*
X158161799Y-64844231D01*
X158365228Y-64740579D01*
X158549937Y-64606379D01*
X158711379Y-64444937D01*
X158845579Y-64260228D01*
X158949231Y-64056799D01*
X159019784Y-63839660D01*
X159055500Y-63614162D01*
X159055500Y-63385837D01*
X159019784Y-63160339D01*
X158949229Y-62943196D01*
X158845578Y-62739771D01*
X158711379Y-62555063D01*
X158549937Y-62393621D01*
X158490333Y-62350316D01*
X158447670Y-62294988D01*
X158441691Y-62225374D01*
X158474297Y-62163579D01*
X158490329Y-62149686D01*
X158549937Y-62106379D01*
X158711379Y-61944937D01*
X158845579Y-61760228D01*
X158949231Y-61556799D01*
X159019784Y-61339660D01*
X159055500Y-61114162D01*
X159055500Y-60885837D01*
X159019784Y-60660339D01*
X158977777Y-60531055D01*
X158949231Y-60443201D01*
X158949229Y-60443198D01*
X158949229Y-60443196D01*
X158845578Y-60239771D01*
X158711379Y-60055063D01*
X158549937Y-59893621D01*
X158490333Y-59850316D01*
X158447670Y-59794988D01*
X158441691Y-59725374D01*
X158474297Y-59663579D01*
X158490329Y-59649686D01*
X158549937Y-59606379D01*
X158711379Y-59444937D01*
X158845579Y-59260228D01*
X158949231Y-59056799D01*
X159019784Y-58839660D01*
X159055500Y-58614162D01*
X159055500Y-58385837D01*
X159019784Y-58160339D01*
X158971851Y-58012819D01*
X158949231Y-57943201D01*
X158949229Y-57943198D01*
X158949229Y-57943196D01*
X158888281Y-57823579D01*
X158845579Y-57739772D01*
X158711379Y-57555063D01*
X158711375Y-57555059D01*
X158658933Y-57502616D01*
X158625449Y-57441293D01*
X158630434Y-57371601D01*
X158668926Y-57318290D01*
X158809940Y-57204940D01*
X158925842Y-57060753D01*
X159008037Y-56895021D01*
X159052683Y-56715495D01*
X159055500Y-56673954D01*
X159055500Y-55326046D01*
X159052683Y-55284505D01*
X159046395Y-55259222D01*
X159033264Y-55206420D01*
X159008037Y-55104979D01*
X158925842Y-54939247D01*
X158875945Y-54877173D01*
X158809940Y-54795059D01*
X158707785Y-54712945D01*
X158665753Y-54679158D01*
X158665751Y-54679157D01*
X158665750Y-54679156D01*
X158500023Y-54596964D01*
X158500021Y-54596963D01*
X158320497Y-54552317D01*
X158320501Y-54552317D01*
X158289339Y-54550204D01*
X158278954Y-54549500D01*
X156681046Y-54549500D01*
X156669177Y-54550304D01*
X156639500Y-54552317D01*
X156459978Y-54596963D01*
X156459976Y-54596964D01*
X156294249Y-54679156D01*
X156150059Y-54795059D01*
X156034156Y-54939249D01*
X155951964Y-55104976D01*
X155951963Y-55104978D01*
X155907317Y-55284500D01*
X155904500Y-55326048D01*
X155904500Y-56673951D01*
X155907317Y-56715499D01*
X155951963Y-56895021D01*
X155951964Y-56895023D01*
X156034156Y-57060750D01*
X156150059Y-57204940D01*
X156291072Y-57318290D01*
X156330990Y-57375634D01*
X156333570Y-57445456D01*
X156301066Y-57502617D01*
X156248622Y-57555061D01*
X156114421Y-57739771D01*
X156010770Y-57943196D01*
X155940215Y-58160339D01*
X155904500Y-58385837D01*
X155904500Y-58614162D01*
X155940215Y-58839660D01*
X156010770Y-59056803D01*
X156069919Y-59172888D01*
X156114421Y-59260228D01*
X156248621Y-59444937D01*
X156410063Y-59606379D01*
X156410069Y-59606383D01*
X156469664Y-59649683D01*
X156512330Y-59705013D01*
X156518308Y-59774627D01*
X156485701Y-59836421D01*
X156469664Y-59850317D01*
X156410069Y-59893616D01*
X156410060Y-59893623D01*
X156248622Y-60055061D01*
X156114421Y-60239771D01*
X156010770Y-60443196D01*
X155940215Y-60660339D01*
X155904500Y-60885837D01*
X155904500Y-61114162D01*
X155940215Y-61339660D01*
X156010770Y-61556803D01*
X156114421Y-61760228D01*
X156248621Y-61944937D01*
X156410063Y-62106379D01*
X156410069Y-62106383D01*
X156469664Y-62149683D01*
X156512330Y-62205013D01*
X156518308Y-62274627D01*
X156485701Y-62336421D01*
X156469664Y-62350317D01*
X156410069Y-62393616D01*
X156410060Y-62393623D01*
X156248622Y-62555061D01*
X156114421Y-62739771D01*
X156010770Y-62943196D01*
X155940215Y-63160339D01*
X155904500Y-63385837D01*
X155904500Y-63614162D01*
X148775500Y-63614162D01*
X148775500Y-63385837D01*
X148739784Y-63160339D01*
X148669229Y-62943196D01*
X148565578Y-62739771D01*
X148431379Y-62555063D01*
X148269937Y-62393621D01*
X148210333Y-62350316D01*
X148167670Y-62294988D01*
X148161691Y-62225374D01*
X148194297Y-62163579D01*
X148210329Y-62149686D01*
X148269937Y-62106379D01*
X148431379Y-61944937D01*
X148565579Y-61760228D01*
X148669231Y-61556799D01*
X148739784Y-61339660D01*
X148775500Y-61114162D01*
X148775500Y-60885837D01*
X148739784Y-60660339D01*
X148697777Y-60531055D01*
X148669231Y-60443201D01*
X148669229Y-60443198D01*
X148669229Y-60443196D01*
X148565578Y-60239771D01*
X148431379Y-60055063D01*
X148269937Y-59893621D01*
X148210333Y-59850316D01*
X148167670Y-59794988D01*
X148161691Y-59725374D01*
X148194297Y-59663579D01*
X148210329Y-59649686D01*
X148269937Y-59606379D01*
X148431379Y-59444937D01*
X148565579Y-59260228D01*
X148669231Y-59056799D01*
X148739784Y-58839660D01*
X148775500Y-58614162D01*
X148775500Y-58385837D01*
X148739784Y-58160339D01*
X148691851Y-58012819D01*
X148689856Y-57942978D01*
X148725936Y-57883145D01*
X148788637Y-57852316D01*
X148809782Y-57850500D01*
X150628481Y-57850500D01*
X150695520Y-57870185D01*
X150716162Y-57886819D01*
X151393495Y-58564152D01*
X151426980Y-58625475D01*
X151429134Y-58638869D01*
X151434325Y-58688249D01*
X151434327Y-58688260D01*
X151492818Y-58868277D01*
X151492821Y-58868284D01*
X151587467Y-59032216D01*
X151714129Y-59172888D01*
X151867265Y-59284148D01*
X151867270Y-59284151D01*
X152040192Y-59361142D01*
X152040197Y-59361144D01*
X152225354Y-59400500D01*
X152225355Y-59400500D01*
X152414644Y-59400500D01*
X152414646Y-59400500D01*
X152599803Y-59361144D01*
X152772730Y-59284151D01*
X152925871Y-59172888D01*
X153052533Y-59032216D01*
X153147179Y-58868284D01*
X153205674Y-58688256D01*
X153225460Y-58500000D01*
X153205674Y-58311744D01*
X153147179Y-58131716D01*
X153052533Y-57967784D01*
X152925871Y-57827112D01*
X152921010Y-57823580D01*
X152772734Y-57715851D01*
X152772729Y-57715848D01*
X152599807Y-57638857D01*
X152599802Y-57638855D01*
X152444871Y-57605924D01*
X152383389Y-57572732D01*
X152382971Y-57572315D01*
X151416546Y-56605888D01*
X151416545Y-56605887D01*
X151301807Y-56529222D01*
X151174332Y-56476421D01*
X151174322Y-56476418D01*
X151038996Y-56449500D01*
X151038994Y-56449500D01*
X151038993Y-56449500D01*
X148899500Y-56449500D01*
X148832461Y-56429815D01*
X148786706Y-56377011D01*
X148775500Y-56325500D01*
X148775500Y-55326048D01*
X148775500Y-55326046D01*
X148772683Y-55284505D01*
X148766395Y-55259222D01*
X148753264Y-55206420D01*
X148728037Y-55104979D01*
X148645842Y-54939247D01*
X148595945Y-54877173D01*
X148529940Y-54795059D01*
X148427785Y-54712945D01*
X148385753Y-54679158D01*
X148385751Y-54679157D01*
X148385750Y-54679156D01*
X148220023Y-54596964D01*
X148220021Y-54596963D01*
X148040497Y-54552317D01*
X148040501Y-54552317D01*
X148009339Y-54550204D01*
X147998954Y-54549500D01*
X146401046Y-54549500D01*
X146389177Y-54550304D01*
X146359500Y-54552317D01*
X146179978Y-54596963D01*
X146179976Y-54596964D01*
X146014249Y-54679156D01*
X145870059Y-54795059D01*
X145754156Y-54939249D01*
X145671964Y-55104976D01*
X145671963Y-55104978D01*
X145627317Y-55284500D01*
X145624500Y-55326048D01*
X145624500Y-56325500D01*
X145604815Y-56392539D01*
X145552011Y-56438294D01*
X145500500Y-56449500D01*
X141311519Y-56449500D01*
X141244480Y-56429815D01*
X141223838Y-56413181D01*
X140146546Y-55335888D01*
X140146545Y-55335887D01*
X140031807Y-55259222D01*
X139904332Y-55206421D01*
X139904322Y-55206418D01*
X139768996Y-55179500D01*
X139768994Y-55179500D01*
X139768993Y-55179500D01*
X138851160Y-55179500D01*
X138784121Y-55159815D01*
X138738366Y-55107011D01*
X138728422Y-55037853D01*
X138740160Y-55000228D01*
X138812624Y-54854701D01*
X138812623Y-54854701D01*
X138812629Y-54854691D01*
X138869204Y-54655851D01*
X138888279Y-54450000D01*
X138869204Y-54244149D01*
X138812629Y-54045309D01*
X138805337Y-54030665D01*
X138738097Y-53895629D01*
X138720480Y-53860249D01*
X138595896Y-53695273D01*
X138595894Y-53695270D01*
X138443119Y-53555998D01*
X138443117Y-53555996D01*
X138267354Y-53447168D01*
X138267348Y-53447165D01*
X138115419Y-53388308D01*
X138074579Y-53372487D01*
X137900799Y-53340002D01*
X162078506Y-53340002D01*
X162098469Y-53708196D01*
X162098470Y-53708213D01*
X162158122Y-54072068D01*
X162158128Y-54072094D01*
X162256768Y-54427365D01*
X162256770Y-54427371D01*
X162393255Y-54769926D01*
X162393261Y-54769938D01*
X162565973Y-55095708D01*
X162565976Y-55095713D01*
X162565978Y-55095716D01*
X162772910Y-55400917D01*
X163011627Y-55681956D01*
X163279330Y-55935538D01*
X163572881Y-56158690D01*
X163888838Y-56348795D01*
X163888840Y-56348796D01*
X163888842Y-56348797D01*
X163888846Y-56348799D01*
X164217337Y-56500775D01*
X164223497Y-56503625D01*
X164572934Y-56621364D01*
X164933052Y-56700632D01*
X165299630Y-56740500D01*
X165299636Y-56740500D01*
X165668364Y-56740500D01*
X165668370Y-56740500D01*
X166034948Y-56700632D01*
X166395066Y-56621364D01*
X166744503Y-56503625D01*
X167079162Y-56348795D01*
X167395119Y-56158690D01*
X167688670Y-55935538D01*
X167956373Y-55681956D01*
X168195090Y-55400917D01*
X168402022Y-55095716D01*
X168574743Y-54769930D01*
X168711227Y-54427379D01*
X168809875Y-54072081D01*
X168828237Y-53960077D01*
X168869529Y-53708213D01*
X168869529Y-53708210D01*
X168869531Y-53708199D01*
X168889494Y-53340000D01*
X168889347Y-53337297D01*
X168877606Y-53120742D01*
X168869531Y-52971801D01*
X168865346Y-52946276D01*
X168809877Y-52607931D01*
X168809876Y-52607930D01*
X168809875Y-52607919D01*
X168711227Y-52252621D01*
X168574743Y-51910070D01*
X168402022Y-51584284D01*
X168195090Y-51279083D01*
X167956373Y-50998044D01*
X167688670Y-50744462D01*
X167395119Y-50521310D01*
X167079162Y-50331205D01*
X167079161Y-50331204D01*
X167079157Y-50331202D01*
X167079153Y-50331200D01*
X166744513Y-50176379D01*
X166744508Y-50176377D01*
X166744503Y-50176375D01*
X166535029Y-50105795D01*
X166395065Y-50058635D01*
X166034946Y-49979367D01*
X165668371Y-49939500D01*
X165668370Y-49939500D01*
X165299630Y-49939500D01*
X165299628Y-49939500D01*
X164933053Y-49979367D01*
X164572934Y-50058635D01*
X164302812Y-50149650D01*
X164223497Y-50176375D01*
X164223494Y-50176376D01*
X164223486Y-50176379D01*
X163888846Y-50331200D01*
X163888842Y-50331202D01*
X163773426Y-50400646D01*
X163572881Y-50521310D01*
X163472410Y-50597685D01*
X163279330Y-50744461D01*
X163279330Y-50744462D01*
X163011626Y-50998044D01*
X162772909Y-51279083D01*
X162565979Y-51584282D01*
X162565973Y-51584291D01*
X162393261Y-51910061D01*
X162393255Y-51910073D01*
X162256770Y-52252628D01*
X162256768Y-52252634D01*
X162158128Y-52607905D01*
X162158122Y-52607931D01*
X162098470Y-52971786D01*
X162098469Y-52971803D01*
X162078506Y-53339997D01*
X162078506Y-53340002D01*
X137900799Y-53340002D01*
X137871366Y-53334500D01*
X137664634Y-53334500D01*
X137461421Y-53372487D01*
X137461418Y-53372487D01*
X137461418Y-53372488D01*
X137268651Y-53447165D01*
X137268645Y-53447168D01*
X137198277Y-53490739D01*
X137130916Y-53509294D01*
X137067723Y-53490739D01*
X136997354Y-53447168D01*
X136997348Y-53447165D01*
X136845419Y-53388308D01*
X136804579Y-53372487D01*
X136601366Y-53334500D01*
X136394634Y-53334500D01*
X136311946Y-53349957D01*
X136191413Y-53372488D01*
X136115154Y-53402031D01*
X136045531Y-53407892D01*
X136022910Y-53400965D01*
X135899765Y-53349957D01*
X135899760Y-53349955D01*
X135782370Y-53334501D01*
X135782367Y-53334500D01*
X135782361Y-53334500D01*
X135782354Y-53334500D01*
X134673636Y-53334500D01*
X134556246Y-53349953D01*
X134556237Y-53349956D01*
X134410160Y-53410463D01*
X134284718Y-53506718D01*
X134188463Y-53632160D01*
X134127956Y-53778237D01*
X134127955Y-53778239D01*
X134112501Y-53895629D01*
X134112500Y-53895645D01*
X134112500Y-55004363D01*
X134117102Y-55039317D01*
X134106335Y-55108352D01*
X134059954Y-55160607D01*
X133994163Y-55179500D01*
X132051160Y-55179500D01*
X131984121Y-55159815D01*
X131938366Y-55107011D01*
X131928422Y-55037853D01*
X131940160Y-55000228D01*
X132012624Y-54854701D01*
X132012623Y-54854701D01*
X132012629Y-54854691D01*
X132069204Y-54655851D01*
X132088279Y-54450000D01*
X132069204Y-54244149D01*
X132012629Y-54045309D01*
X132005337Y-54030665D01*
X131938097Y-53895629D01*
X131920480Y-53860249D01*
X131795896Y-53695273D01*
X131795894Y-53695270D01*
X131643119Y-53555998D01*
X131643117Y-53555996D01*
X131467354Y-53447168D01*
X131467348Y-53447165D01*
X131315419Y-53388308D01*
X131274579Y-53372487D01*
X131071366Y-53334500D01*
X130864634Y-53334500D01*
X130661421Y-53372487D01*
X130661418Y-53372487D01*
X130661418Y-53372488D01*
X130468651Y-53447165D01*
X130468645Y-53447168D01*
X130398277Y-53490739D01*
X130330916Y-53509294D01*
X130267723Y-53490739D01*
X130197354Y-53447168D01*
X130197348Y-53447165D01*
X130045419Y-53388308D01*
X130004579Y-53372487D01*
X129801366Y-53334500D01*
X129594634Y-53334500D01*
X129511946Y-53349957D01*
X129391413Y-53372488D01*
X129315154Y-53402031D01*
X129245531Y-53407892D01*
X129222910Y-53400965D01*
X129099765Y-53349957D01*
X129099760Y-53349955D01*
X128982370Y-53334501D01*
X128982367Y-53334500D01*
X128982361Y-53334500D01*
X128982354Y-53334500D01*
X127873636Y-53334500D01*
X127756246Y-53349953D01*
X127756237Y-53349956D01*
X127610160Y-53410463D01*
X127484718Y-53506718D01*
X127388463Y-53632160D01*
X127327956Y-53778237D01*
X127327955Y-53778239D01*
X127312501Y-53895629D01*
X127312500Y-53895645D01*
X127312500Y-54030665D01*
X127292815Y-54097704D01*
X127240011Y-54143459D01*
X127170853Y-54153403D01*
X127164308Y-54152282D01*
X127068996Y-54133323D01*
X127068994Y-54133323D01*
X127068993Y-54133323D01*
X110197184Y-54133323D01*
X110197180Y-54133323D01*
X110088767Y-54154888D01*
X110088766Y-54154888D01*
X110061848Y-54160243D01*
X110024614Y-54175666D01*
X109934369Y-54213046D01*
X109887819Y-54244150D01*
X109819634Y-54289709D01*
X109819630Y-54289712D01*
X105895888Y-58213453D01*
X105895887Y-58213454D01*
X105819222Y-58328192D01*
X105766421Y-58455667D01*
X105766418Y-58455679D01*
X105740767Y-58584638D01*
X105740766Y-58584644D01*
X105739500Y-58591007D01*
X105739500Y-65249608D01*
X105719815Y-65316647D01*
X105707656Y-65332574D01*
X105707468Y-65332782D01*
X105707464Y-65332787D01*
X105612821Y-65496715D01*
X105612818Y-65496722D01*
X105554327Y-65676740D01*
X105554326Y-65676744D01*
X105534540Y-65865000D01*
X101094366Y-65865000D01*
X100971119Y-65771310D01*
X100655162Y-65581205D01*
X100655161Y-65581204D01*
X100655157Y-65581202D01*
X100655153Y-65581200D01*
X100320513Y-65426379D01*
X100320508Y-65426377D01*
X100320503Y-65426375D01*
X100150172Y-65368983D01*
X99971065Y-65308635D01*
X99610946Y-65229367D01*
X99244371Y-65189500D01*
X99244370Y-65189500D01*
X98875630Y-65189500D01*
X98875628Y-65189500D01*
X98509053Y-65229367D01*
X98148934Y-65308635D01*
X97878812Y-65399650D01*
X97799497Y-65426375D01*
X97799494Y-65426376D01*
X97799486Y-65426379D01*
X97464846Y-65581200D01*
X97464842Y-65581202D01*
X97306051Y-65676744D01*
X97148881Y-65771310D01*
X97048410Y-65847685D01*
X96855330Y-65994461D01*
X96855330Y-65994462D01*
X96587626Y-66248044D01*
X96348909Y-66529083D01*
X96141979Y-66834282D01*
X96141973Y-66834291D01*
X95969261Y-67160061D01*
X95969255Y-67160073D01*
X95832770Y-67502628D01*
X95832768Y-67502634D01*
X95734128Y-67857905D01*
X95734122Y-67857931D01*
X95674470Y-68221786D01*
X95674469Y-68221803D01*
X95654506Y-68589997D01*
X95654506Y-68590002D01*
X94480937Y-68590002D01*
X94480937Y-68590000D01*
X94480618Y-68582701D01*
X94480500Y-68577293D01*
X94480500Y-53342706D01*
X94480559Y-53340002D01*
X95654506Y-53340002D01*
X95674469Y-53708196D01*
X95674470Y-53708213D01*
X95734122Y-54072068D01*
X95734128Y-54072094D01*
X95832768Y-54427365D01*
X95832770Y-54427371D01*
X95969255Y-54769926D01*
X95969261Y-54769938D01*
X96141973Y-55095708D01*
X96141976Y-55095713D01*
X96141978Y-55095716D01*
X96348910Y-55400917D01*
X96587627Y-55681956D01*
X96855330Y-55935538D01*
X97148881Y-56158690D01*
X97464838Y-56348795D01*
X97464840Y-56348796D01*
X97464842Y-56348797D01*
X97464846Y-56348799D01*
X97793337Y-56500775D01*
X97799497Y-56503625D01*
X98148934Y-56621364D01*
X98509052Y-56700632D01*
X98875630Y-56740500D01*
X98875636Y-56740500D01*
X99244364Y-56740500D01*
X99244370Y-56740500D01*
X99610948Y-56700632D01*
X99971066Y-56621364D01*
X100320503Y-56503625D01*
X100655162Y-56348795D01*
X100971119Y-56158690D01*
X101264670Y-55935538D01*
X101532373Y-55681956D01*
X101771090Y-55400917D01*
X101978022Y-55095716D01*
X102150743Y-54769930D01*
X102287227Y-54427379D01*
X102385875Y-54072081D01*
X102404237Y-53960077D01*
X102445529Y-53708213D01*
X102445529Y-53708210D01*
X102445531Y-53708199D01*
X102465494Y-53340000D01*
X102465347Y-53337297D01*
X102453606Y-53120742D01*
X102445531Y-52971801D01*
X102441346Y-52946276D01*
X102385877Y-52607931D01*
X102385876Y-52607930D01*
X102385875Y-52607919D01*
X102287227Y-52252621D01*
X102150743Y-51910070D01*
X101978022Y-51584284D01*
X101771090Y-51279083D01*
X101532373Y-50998044D01*
X101264670Y-50744462D01*
X100971119Y-50521310D01*
X100655162Y-50331205D01*
X100655161Y-50331204D01*
X100655157Y-50331202D01*
X100655153Y-50331200D01*
X100320513Y-50176379D01*
X100320508Y-50176377D01*
X100320503Y-50176375D01*
X100111029Y-50105795D01*
X99971065Y-50058635D01*
X99610946Y-49979367D01*
X99244371Y-49939500D01*
X99244370Y-49939500D01*
X98875630Y-49939500D01*
X98875628Y-49939500D01*
X98509053Y-49979367D01*
X98148934Y-50058635D01*
X97878812Y-50149650D01*
X97799497Y-50176375D01*
X97799494Y-50176376D01*
X97799486Y-50176379D01*
X97464846Y-50331200D01*
X97464842Y-50331202D01*
X97349426Y-50400646D01*
X97148881Y-50521310D01*
X97048410Y-50597685D01*
X96855330Y-50744461D01*
X96855330Y-50744462D01*
X96587626Y-50998044D01*
X96348909Y-51279083D01*
X96141979Y-51584282D01*
X96141973Y-51584291D01*
X95969261Y-51910061D01*
X95969255Y-51910073D01*
X95832770Y-52252628D01*
X95832768Y-52252634D01*
X95734128Y-52607905D01*
X95734122Y-52607931D01*
X95674470Y-52971786D01*
X95674469Y-52971803D01*
X95654506Y-53339997D01*
X95654506Y-53340002D01*
X94480559Y-53340002D01*
X94480618Y-53337298D01*
X94483377Y-53274108D01*
X94497690Y-52946255D01*
X94498629Y-52935524D01*
X94549367Y-52550137D01*
X94551240Y-52539510D01*
X94635375Y-52160004D01*
X94638166Y-52149589D01*
X94755057Y-51778857D01*
X94758741Y-51768736D01*
X94907498Y-51409603D01*
X94912056Y-51399829D01*
X95091540Y-51055045D01*
X95096935Y-51045700D01*
X95305793Y-50717858D01*
X95311983Y-50709018D01*
X95548612Y-50400637D01*
X95555550Y-50392368D01*
X95818157Y-50105783D01*
X95825783Y-50098157D01*
X96112368Y-49835550D01*
X96120637Y-49828612D01*
X96429018Y-49591983D01*
X96437858Y-49585793D01*
X96765700Y-49376935D01*
X96775045Y-49371540D01*
X97119829Y-49192056D01*
X97129603Y-49187498D01*
X97488736Y-49038741D01*
X97498857Y-49035057D01*
X97869589Y-48918166D01*
X97880004Y-48915375D01*
X98259510Y-48831240D01*
X98270137Y-48829367D01*
X98655524Y-48778629D01*
X98666255Y-48777690D01*
X99044776Y-48761164D01*
X99057298Y-48760618D01*
X99062706Y-48760500D01*
X99125892Y-48760500D01*
X165418108Y-48760500D01*
X165481294Y-48760500D01*
X165486702Y-48760618D01*
G37*
%TD.AperFunction*%
%TD*%
M02*
