%TF.GenerationSoftware,KiCad,Pcbnew,8.0.1*%
%TF.CreationDate,2024-03-19T19:55:23+01:00*%
%TF.ProjectId,lang1,6c616e67-312e-46b6-9963-61645f706362,rev?*%
%TF.SameCoordinates,Original*%
%TF.FileFunction,Legend,Top*%
%TF.FilePolarity,Positive*%
%FSLAX46Y46*%
G04 Gerber Fmt 4.6, Leading zero omitted, Abs format (unit mm)*
G04 Created by KiCad (PCBNEW 8.0.1) date 2024-03-19 19:55:23*
%MOMM*%
%LPD*%
G01*
G04 APERTURE LIST*
%ADD10C,0.250000*%
%ADD11C,0.150000*%
%ADD12C,0.120000*%
%ADD13C,0.127000*%
%ADD14C,0.200000*%
G04 APERTURE END LIST*
D10*
X125922629Y-53942678D02*
X125922629Y-54418868D01*
X125636914Y-53847440D02*
X126636914Y-54180773D01*
X126636914Y-54180773D02*
X125636914Y-54514106D01*
X125636914Y-54847440D02*
X126636914Y-54847440D01*
X126636914Y-54847440D02*
X126636914Y-55085535D01*
X126636914Y-55085535D02*
X126589295Y-55228392D01*
X126589295Y-55228392D02*
X126494057Y-55323630D01*
X126494057Y-55323630D02*
X126398819Y-55371249D01*
X126398819Y-55371249D02*
X126208343Y-55418868D01*
X126208343Y-55418868D02*
X126065486Y-55418868D01*
X126065486Y-55418868D02*
X125875010Y-55371249D01*
X125875010Y-55371249D02*
X125779772Y-55323630D01*
X125779772Y-55323630D02*
X125684534Y-55228392D01*
X125684534Y-55228392D02*
X125636914Y-55085535D01*
X125636914Y-55085535D02*
X125636914Y-54847440D01*
X125636914Y-55847440D02*
X126636914Y-55847440D01*
X126636914Y-55847440D02*
X126636914Y-56085535D01*
X126636914Y-56085535D02*
X126589295Y-56228392D01*
X126589295Y-56228392D02*
X126494057Y-56323630D01*
X126494057Y-56323630D02*
X126398819Y-56371249D01*
X126398819Y-56371249D02*
X126208343Y-56418868D01*
X126208343Y-56418868D02*
X126065486Y-56418868D01*
X126065486Y-56418868D02*
X125875010Y-56371249D01*
X125875010Y-56371249D02*
X125779772Y-56323630D01*
X125779772Y-56323630D02*
X125684534Y-56228392D01*
X125684534Y-56228392D02*
X125636914Y-56085535D01*
X125636914Y-56085535D02*
X125636914Y-55847440D01*
X125636914Y-57418868D02*
X126113105Y-57085535D01*
X125636914Y-56847440D02*
X126636914Y-56847440D01*
X126636914Y-56847440D02*
X126636914Y-57228392D01*
X126636914Y-57228392D02*
X126589295Y-57323630D01*
X126589295Y-57323630D02*
X126541676Y-57371249D01*
X126541676Y-57371249D02*
X126446438Y-57418868D01*
X126446438Y-57418868D02*
X126303581Y-57418868D01*
X126303581Y-57418868D02*
X126208343Y-57371249D01*
X126208343Y-57371249D02*
X126160724Y-57323630D01*
X126160724Y-57323630D02*
X126113105Y-57228392D01*
X126113105Y-57228392D02*
X126113105Y-56847440D01*
X122791918Y-55197874D02*
X123268109Y-54864541D01*
X122791918Y-54626446D02*
X123791918Y-54626446D01*
X123791918Y-54626446D02*
X123791918Y-55007398D01*
X123791918Y-55007398D02*
X123744299Y-55102636D01*
X123744299Y-55102636D02*
X123696680Y-55150255D01*
X123696680Y-55150255D02*
X123601442Y-55197874D01*
X123601442Y-55197874D02*
X123458585Y-55197874D01*
X123458585Y-55197874D02*
X123363347Y-55150255D01*
X123363347Y-55150255D02*
X123315728Y-55102636D01*
X123315728Y-55102636D02*
X123268109Y-55007398D01*
X123268109Y-55007398D02*
X123268109Y-54626446D01*
X122791918Y-55626446D02*
X123791918Y-55626446D01*
X123791918Y-55626446D02*
X123791918Y-55864541D01*
X123791918Y-55864541D02*
X123744299Y-56007398D01*
X123744299Y-56007398D02*
X123649061Y-56102636D01*
X123649061Y-56102636D02*
X123553823Y-56150255D01*
X123553823Y-56150255D02*
X123363347Y-56197874D01*
X123363347Y-56197874D02*
X123220490Y-56197874D01*
X123220490Y-56197874D02*
X123030014Y-56150255D01*
X123030014Y-56150255D02*
X122934776Y-56102636D01*
X122934776Y-56102636D02*
X122839538Y-56007398D01*
X122839538Y-56007398D02*
X122791918Y-55864541D01*
X122791918Y-55864541D02*
X122791918Y-55626446D01*
X123268109Y-56816922D02*
X122791918Y-56816922D01*
X123791918Y-56483589D02*
X123268109Y-56816922D01*
X123268109Y-56816922D02*
X123791918Y-57150255D01*
X150408783Y-55454336D02*
X150742116Y-56454336D01*
X150742116Y-56454336D02*
X151075449Y-55454336D01*
X151408783Y-56454336D02*
X151408783Y-55454336D01*
X151408783Y-55454336D02*
X151646878Y-55454336D01*
X151646878Y-55454336D02*
X151789735Y-55501955D01*
X151789735Y-55501955D02*
X151884973Y-55597193D01*
X151884973Y-55597193D02*
X151932592Y-55692431D01*
X151932592Y-55692431D02*
X151980211Y-55882907D01*
X151980211Y-55882907D02*
X151980211Y-56025764D01*
X151980211Y-56025764D02*
X151932592Y-56216240D01*
X151932592Y-56216240D02*
X151884973Y-56311478D01*
X151884973Y-56311478D02*
X151789735Y-56406717D01*
X151789735Y-56406717D02*
X151646878Y-56454336D01*
X151646878Y-56454336D02*
X151408783Y-56454336D01*
X152408783Y-56454336D02*
X152408783Y-55454336D01*
X152408783Y-55454336D02*
X152646878Y-55454336D01*
X152646878Y-55454336D02*
X152789735Y-55501955D01*
X152789735Y-55501955D02*
X152884973Y-55597193D01*
X152884973Y-55597193D02*
X152932592Y-55692431D01*
X152932592Y-55692431D02*
X152980211Y-55882907D01*
X152980211Y-55882907D02*
X152980211Y-56025764D01*
X152980211Y-56025764D02*
X152932592Y-56216240D01*
X152932592Y-56216240D02*
X152884973Y-56311478D01*
X152884973Y-56311478D02*
X152789735Y-56406717D01*
X152789735Y-56406717D02*
X152646878Y-56454336D01*
X152646878Y-56454336D02*
X152408783Y-56454336D01*
X150504021Y-64026717D02*
X150646878Y-64074336D01*
X150646878Y-64074336D02*
X150884973Y-64074336D01*
X150884973Y-64074336D02*
X150980211Y-64026717D01*
X150980211Y-64026717D02*
X151027830Y-63979097D01*
X151027830Y-63979097D02*
X151075449Y-63883859D01*
X151075449Y-63883859D02*
X151075449Y-63788621D01*
X151075449Y-63788621D02*
X151027830Y-63693383D01*
X151027830Y-63693383D02*
X150980211Y-63645764D01*
X150980211Y-63645764D02*
X150884973Y-63598145D01*
X150884973Y-63598145D02*
X150694497Y-63550526D01*
X150694497Y-63550526D02*
X150599259Y-63502907D01*
X150599259Y-63502907D02*
X150551640Y-63455288D01*
X150551640Y-63455288D02*
X150504021Y-63360050D01*
X150504021Y-63360050D02*
X150504021Y-63264812D01*
X150504021Y-63264812D02*
X150551640Y-63169574D01*
X150551640Y-63169574D02*
X150599259Y-63121955D01*
X150599259Y-63121955D02*
X150694497Y-63074336D01*
X150694497Y-63074336D02*
X150932592Y-63074336D01*
X150932592Y-63074336D02*
X151075449Y-63121955D01*
X152075449Y-63979097D02*
X152027830Y-64026717D01*
X152027830Y-64026717D02*
X151884973Y-64074336D01*
X151884973Y-64074336D02*
X151789735Y-64074336D01*
X151789735Y-64074336D02*
X151646878Y-64026717D01*
X151646878Y-64026717D02*
X151551640Y-63931478D01*
X151551640Y-63931478D02*
X151504021Y-63836240D01*
X151504021Y-63836240D02*
X151456402Y-63645764D01*
X151456402Y-63645764D02*
X151456402Y-63502907D01*
X151456402Y-63502907D02*
X151504021Y-63312431D01*
X151504021Y-63312431D02*
X151551640Y-63217193D01*
X151551640Y-63217193D02*
X151646878Y-63121955D01*
X151646878Y-63121955D02*
X151789735Y-63074336D01*
X151789735Y-63074336D02*
X151884973Y-63074336D01*
X151884973Y-63074336D02*
X152027830Y-63121955D01*
X152027830Y-63121955D02*
X152075449Y-63169574D01*
X152980211Y-64074336D02*
X152504021Y-64074336D01*
X152504021Y-64074336D02*
X152504021Y-63074336D01*
X150504021Y-61486717D02*
X150646878Y-61534336D01*
X150646878Y-61534336D02*
X150884973Y-61534336D01*
X150884973Y-61534336D02*
X150980211Y-61486717D01*
X150980211Y-61486717D02*
X151027830Y-61439097D01*
X151027830Y-61439097D02*
X151075449Y-61343859D01*
X151075449Y-61343859D02*
X151075449Y-61248621D01*
X151075449Y-61248621D02*
X151027830Y-61153383D01*
X151027830Y-61153383D02*
X150980211Y-61105764D01*
X150980211Y-61105764D02*
X150884973Y-61058145D01*
X150884973Y-61058145D02*
X150694497Y-61010526D01*
X150694497Y-61010526D02*
X150599259Y-60962907D01*
X150599259Y-60962907D02*
X150551640Y-60915288D01*
X150551640Y-60915288D02*
X150504021Y-60820050D01*
X150504021Y-60820050D02*
X150504021Y-60724812D01*
X150504021Y-60724812D02*
X150551640Y-60629574D01*
X150551640Y-60629574D02*
X150599259Y-60581955D01*
X150599259Y-60581955D02*
X150694497Y-60534336D01*
X150694497Y-60534336D02*
X150932592Y-60534336D01*
X150932592Y-60534336D02*
X151075449Y-60581955D01*
X151504021Y-61534336D02*
X151504021Y-60534336D01*
X151504021Y-60534336D02*
X151742116Y-60534336D01*
X151742116Y-60534336D02*
X151884973Y-60581955D01*
X151884973Y-60581955D02*
X151980211Y-60677193D01*
X151980211Y-60677193D02*
X152027830Y-60772431D01*
X152027830Y-60772431D02*
X152075449Y-60962907D01*
X152075449Y-60962907D02*
X152075449Y-61105764D01*
X152075449Y-61105764D02*
X152027830Y-61296240D01*
X152027830Y-61296240D02*
X151980211Y-61391478D01*
X151980211Y-61391478D02*
X151884973Y-61486717D01*
X151884973Y-61486717D02*
X151742116Y-61534336D01*
X151742116Y-61534336D02*
X151504021Y-61534336D01*
X152456402Y-61248621D02*
X152932592Y-61248621D01*
X152361164Y-61534336D02*
X152694497Y-60534336D01*
X152694497Y-60534336D02*
X153027830Y-61534336D01*
X151075449Y-58041955D02*
X150980211Y-57994336D01*
X150980211Y-57994336D02*
X150837354Y-57994336D01*
X150837354Y-57994336D02*
X150694497Y-58041955D01*
X150694497Y-58041955D02*
X150599259Y-58137193D01*
X150599259Y-58137193D02*
X150551640Y-58232431D01*
X150551640Y-58232431D02*
X150504021Y-58422907D01*
X150504021Y-58422907D02*
X150504021Y-58565764D01*
X150504021Y-58565764D02*
X150551640Y-58756240D01*
X150551640Y-58756240D02*
X150599259Y-58851478D01*
X150599259Y-58851478D02*
X150694497Y-58946717D01*
X150694497Y-58946717D02*
X150837354Y-58994336D01*
X150837354Y-58994336D02*
X150932592Y-58994336D01*
X150932592Y-58994336D02*
X151075449Y-58946717D01*
X151075449Y-58946717D02*
X151123068Y-58899097D01*
X151123068Y-58899097D02*
X151123068Y-58565764D01*
X151123068Y-58565764D02*
X150932592Y-58565764D01*
X151551640Y-58994336D02*
X151551640Y-57994336D01*
X151551640Y-57994336D02*
X152123068Y-58994336D01*
X152123068Y-58994336D02*
X152123068Y-57994336D01*
X152599259Y-58994336D02*
X152599259Y-57994336D01*
X152599259Y-57994336D02*
X152837354Y-57994336D01*
X152837354Y-57994336D02*
X152980211Y-58041955D01*
X152980211Y-58041955D02*
X153075449Y-58137193D01*
X153075449Y-58137193D02*
X153123068Y-58232431D01*
X153123068Y-58232431D02*
X153170687Y-58422907D01*
X153170687Y-58422907D02*
X153170687Y-58565764D01*
X153170687Y-58565764D02*
X153123068Y-58756240D01*
X153123068Y-58756240D02*
X153075449Y-58851478D01*
X153075449Y-58851478D02*
X152980211Y-58946717D01*
X152980211Y-58946717D02*
X152837354Y-58994336D01*
X152837354Y-58994336D02*
X152599259Y-58994336D01*
D11*
X134644667Y-52535895D02*
X134858000Y-53335895D01*
X134858000Y-53335895D02*
X135071334Y-52535895D01*
X135284666Y-53335895D02*
X135284666Y-52535895D01*
X135284666Y-52535895D02*
X135437047Y-52535895D01*
X135437047Y-52535895D02*
X135528476Y-52573990D01*
X135528476Y-52573990D02*
X135589428Y-52650180D01*
X135589428Y-52650180D02*
X135619905Y-52726371D01*
X135619905Y-52726371D02*
X135650381Y-52878752D01*
X135650381Y-52878752D02*
X135650381Y-52993038D01*
X135650381Y-52993038D02*
X135619905Y-53145419D01*
X135619905Y-53145419D02*
X135589428Y-53221609D01*
X135589428Y-53221609D02*
X135528476Y-53297800D01*
X135528476Y-53297800D02*
X135437047Y-53335895D01*
X135437047Y-53335895D02*
X135284666Y-53335895D01*
X135924666Y-53335895D02*
X135924666Y-52535895D01*
X135924666Y-52535895D02*
X136077047Y-52535895D01*
X136077047Y-52535895D02*
X136168476Y-52573990D01*
X136168476Y-52573990D02*
X136229428Y-52650180D01*
X136229428Y-52650180D02*
X136259905Y-52726371D01*
X136259905Y-52726371D02*
X136290381Y-52878752D01*
X136290381Y-52878752D02*
X136290381Y-52993038D01*
X136290381Y-52993038D02*
X136259905Y-53145419D01*
X136259905Y-53145419D02*
X136229428Y-53221609D01*
X136229428Y-53221609D02*
X136168476Y-53297800D01*
X136168476Y-53297800D02*
X136077047Y-53335895D01*
X136077047Y-53335895D02*
X135924666Y-53335895D01*
X125863413Y-65808866D02*
X126339603Y-65808866D01*
X125768175Y-66094581D02*
X126101508Y-65094581D01*
X126101508Y-65094581D02*
X126434841Y-66094581D01*
X126768175Y-66094581D02*
X126768175Y-65094581D01*
X126768175Y-65094581D02*
X127006270Y-65094581D01*
X127006270Y-65094581D02*
X127149127Y-65142200D01*
X127149127Y-65142200D02*
X127244365Y-65237438D01*
X127244365Y-65237438D02*
X127291984Y-65332676D01*
X127291984Y-65332676D02*
X127339603Y-65523152D01*
X127339603Y-65523152D02*
X127339603Y-65666009D01*
X127339603Y-65666009D02*
X127291984Y-65856485D01*
X127291984Y-65856485D02*
X127244365Y-65951723D01*
X127244365Y-65951723D02*
X127149127Y-66046962D01*
X127149127Y-66046962D02*
X127006270Y-66094581D01*
X127006270Y-66094581D02*
X126768175Y-66094581D01*
X127720556Y-66046962D02*
X127863413Y-66094581D01*
X127863413Y-66094581D02*
X128101508Y-66094581D01*
X128101508Y-66094581D02*
X128196746Y-66046962D01*
X128196746Y-66046962D02*
X128244365Y-65999342D01*
X128244365Y-65999342D02*
X128291984Y-65904104D01*
X128291984Y-65904104D02*
X128291984Y-65808866D01*
X128291984Y-65808866D02*
X128244365Y-65713628D01*
X128244365Y-65713628D02*
X128196746Y-65666009D01*
X128196746Y-65666009D02*
X128101508Y-65618390D01*
X128101508Y-65618390D02*
X127911032Y-65570771D01*
X127911032Y-65570771D02*
X127815794Y-65523152D01*
X127815794Y-65523152D02*
X127768175Y-65475533D01*
X127768175Y-65475533D02*
X127720556Y-65380295D01*
X127720556Y-65380295D02*
X127720556Y-65285057D01*
X127720556Y-65285057D02*
X127768175Y-65189819D01*
X127768175Y-65189819D02*
X127815794Y-65142200D01*
X127815794Y-65142200D02*
X127911032Y-65094581D01*
X127911032Y-65094581D02*
X128149127Y-65094581D01*
X128149127Y-65094581D02*
X128291984Y-65142200D01*
X129244365Y-66094581D02*
X128672937Y-66094581D01*
X128958651Y-66094581D02*
X128958651Y-65094581D01*
X128958651Y-65094581D02*
X128863413Y-65237438D01*
X128863413Y-65237438D02*
X128768175Y-65332676D01*
X128768175Y-65332676D02*
X128672937Y-65380295D01*
X130196746Y-66094581D02*
X129625318Y-66094581D01*
X129911032Y-66094581D02*
X129911032Y-65094581D01*
X129911032Y-65094581D02*
X129815794Y-65237438D01*
X129815794Y-65237438D02*
X129720556Y-65332676D01*
X129720556Y-65332676D02*
X129625318Y-65380295D01*
X131149127Y-66094581D02*
X130577699Y-66094581D01*
X130863413Y-66094581D02*
X130863413Y-65094581D01*
X130863413Y-65094581D02*
X130768175Y-65237438D01*
X130768175Y-65237438D02*
X130672937Y-65332676D01*
X130672937Y-65332676D02*
X130577699Y-65380295D01*
X132053889Y-65094581D02*
X131577699Y-65094581D01*
X131577699Y-65094581D02*
X131530080Y-65570771D01*
X131530080Y-65570771D02*
X131577699Y-65523152D01*
X131577699Y-65523152D02*
X131672937Y-65475533D01*
X131672937Y-65475533D02*
X131911032Y-65475533D01*
X131911032Y-65475533D02*
X132006270Y-65523152D01*
X132006270Y-65523152D02*
X132053889Y-65570771D01*
X132053889Y-65570771D02*
X132101508Y-65666009D01*
X132101508Y-65666009D02*
X132101508Y-65904104D01*
X132101508Y-65904104D02*
X132053889Y-65999342D01*
X132053889Y-65999342D02*
X132006270Y-66046962D01*
X132006270Y-66046962D02*
X131911032Y-66094581D01*
X131911032Y-66094581D02*
X131672937Y-66094581D01*
X131672937Y-66094581D02*
X131577699Y-66046962D01*
X131577699Y-66046962D02*
X131530080Y-65999342D01*
X132530080Y-66094581D02*
X132530080Y-65094581D01*
X133006270Y-66094581D02*
X133006270Y-65094581D01*
X133006270Y-65094581D02*
X133244365Y-65094581D01*
X133244365Y-65094581D02*
X133387222Y-65142200D01*
X133387222Y-65142200D02*
X133482460Y-65237438D01*
X133482460Y-65237438D02*
X133530079Y-65332676D01*
X133530079Y-65332676D02*
X133577698Y-65523152D01*
X133577698Y-65523152D02*
X133577698Y-65666009D01*
X133577698Y-65666009D02*
X133530079Y-65856485D01*
X133530079Y-65856485D02*
X133482460Y-65951723D01*
X133482460Y-65951723D02*
X133387222Y-66046962D01*
X133387222Y-66046962D02*
X133244365Y-66094581D01*
X133244365Y-66094581D02*
X133006270Y-66094581D01*
X134530079Y-65142200D02*
X134434841Y-65094581D01*
X134434841Y-65094581D02*
X134291984Y-65094581D01*
X134291984Y-65094581D02*
X134149127Y-65142200D01*
X134149127Y-65142200D02*
X134053889Y-65237438D01*
X134053889Y-65237438D02*
X134006270Y-65332676D01*
X134006270Y-65332676D02*
X133958651Y-65523152D01*
X133958651Y-65523152D02*
X133958651Y-65666009D01*
X133958651Y-65666009D02*
X134006270Y-65856485D01*
X134006270Y-65856485D02*
X134053889Y-65951723D01*
X134053889Y-65951723D02*
X134149127Y-66046962D01*
X134149127Y-66046962D02*
X134291984Y-66094581D01*
X134291984Y-66094581D02*
X134387222Y-66094581D01*
X134387222Y-66094581D02*
X134530079Y-66046962D01*
X134530079Y-66046962D02*
X134577698Y-65999342D01*
X134577698Y-65999342D02*
X134577698Y-65666009D01*
X134577698Y-65666009D02*
X134387222Y-65666009D01*
X134958651Y-66046962D02*
X135101508Y-66094581D01*
X135101508Y-66094581D02*
X135339603Y-66094581D01*
X135339603Y-66094581D02*
X135434841Y-66046962D01*
X135434841Y-66046962D02*
X135482460Y-65999342D01*
X135482460Y-65999342D02*
X135530079Y-65904104D01*
X135530079Y-65904104D02*
X135530079Y-65808866D01*
X135530079Y-65808866D02*
X135482460Y-65713628D01*
X135482460Y-65713628D02*
X135434841Y-65666009D01*
X135434841Y-65666009D02*
X135339603Y-65618390D01*
X135339603Y-65618390D02*
X135149127Y-65570771D01*
X135149127Y-65570771D02*
X135053889Y-65523152D01*
X135053889Y-65523152D02*
X135006270Y-65475533D01*
X135006270Y-65475533D02*
X134958651Y-65380295D01*
X134958651Y-65380295D02*
X134958651Y-65285057D01*
X134958651Y-65285057D02*
X135006270Y-65189819D01*
X135006270Y-65189819D02*
X135053889Y-65142200D01*
X135053889Y-65142200D02*
X135149127Y-65094581D01*
X135149127Y-65094581D02*
X135387222Y-65094581D01*
X135387222Y-65094581D02*
X135530079Y-65142200D01*
X127844667Y-52535895D02*
X128058000Y-53335895D01*
X128058000Y-53335895D02*
X128271334Y-52535895D01*
X128484666Y-53335895D02*
X128484666Y-52535895D01*
X128484666Y-52535895D02*
X128637047Y-52535895D01*
X128637047Y-52535895D02*
X128728476Y-52573990D01*
X128728476Y-52573990D02*
X128789428Y-52650180D01*
X128789428Y-52650180D02*
X128819905Y-52726371D01*
X128819905Y-52726371D02*
X128850381Y-52878752D01*
X128850381Y-52878752D02*
X128850381Y-52993038D01*
X128850381Y-52993038D02*
X128819905Y-53145419D01*
X128819905Y-53145419D02*
X128789428Y-53221609D01*
X128789428Y-53221609D02*
X128728476Y-53297800D01*
X128728476Y-53297800D02*
X128637047Y-53335895D01*
X128637047Y-53335895D02*
X128484666Y-53335895D01*
X129124666Y-53335895D02*
X129124666Y-52535895D01*
X129124666Y-52535895D02*
X129277047Y-52535895D01*
X129277047Y-52535895D02*
X129368476Y-52573990D01*
X129368476Y-52573990D02*
X129429428Y-52650180D01*
X129429428Y-52650180D02*
X129459905Y-52726371D01*
X129459905Y-52726371D02*
X129490381Y-52878752D01*
X129490381Y-52878752D02*
X129490381Y-52993038D01*
X129490381Y-52993038D02*
X129459905Y-53145419D01*
X129459905Y-53145419D02*
X129429428Y-53221609D01*
X129429428Y-53221609D02*
X129368476Y-53297800D01*
X129368476Y-53297800D02*
X129277047Y-53335895D01*
X129277047Y-53335895D02*
X129124666Y-53335895D01*
D12*
%TO.C,J3*%
X122077898Y-60802102D02*
X122077898Y-59472102D01*
X123407898Y-60802102D02*
X122077898Y-60802102D01*
X124677898Y-60802102D02*
X127277898Y-60802102D01*
X124677898Y-60802102D02*
X124677898Y-58142102D01*
X127277898Y-60802102D02*
X127277898Y-58142102D01*
X124677898Y-58142102D02*
X127277898Y-58142102D01*
%TO.C,FB1*%
X106120000Y-61862878D02*
X106120000Y-62662122D01*
X107240000Y-61862878D02*
X107240000Y-62662122D01*
D13*
%TO.C,VDD*%
X135248000Y-55400000D02*
X137748000Y-55400000D01*
D14*
X133783000Y-54449500D02*
G75*
G02*
X133583000Y-54449500I-100000J0D01*
G01*
X133583000Y-54449500D02*
G75*
G02*
X133783000Y-54449500I100000J0D01*
G01*
D12*
%TO.C,R2*%
X129969985Y-58083421D02*
X129969985Y-58557937D01*
X131014985Y-58083421D02*
X131014985Y-58557937D01*
%TO.C,C2*%
X111412164Y-57885000D02*
X111627836Y-57885000D01*
X111412164Y-58605000D02*
X111627836Y-58605000D01*
%TO.C,FB2*%
X110960000Y-61862878D02*
X110960000Y-62662122D01*
X112080000Y-61862878D02*
X112080000Y-62662122D01*
%TO.C,ADS1115IDGS*%
X133036746Y-64819762D02*
X132556746Y-64819762D01*
X132796746Y-64489762D01*
X133036746Y-64819762D01*
G36*
X133036746Y-64819762D02*
G01*
X132556746Y-64819762D01*
X132796746Y-64489762D01*
X133036746Y-64819762D01*
G37*
D11*
X132321746Y-64714762D02*
X132321746Y-64489762D01*
X132321746Y-64714762D02*
X129071746Y-64714762D01*
X132321746Y-61464762D02*
X132321746Y-61689762D01*
X132321746Y-61464762D02*
X129071746Y-61464762D01*
X129071746Y-64714762D02*
X129071746Y-64489762D01*
X129071746Y-61464762D02*
X129071746Y-61689762D01*
D12*
%TO.C,R1*%
X122888743Y-61489602D02*
X122414227Y-61489602D01*
X122888743Y-62534602D02*
X122414227Y-62534602D01*
%TO.C,C1*%
X108872164Y-65505000D02*
X109087836Y-65505000D01*
X108872164Y-66225000D02*
X109087836Y-66225000D01*
%TO.C,R3*%
X116077500Y-62262742D02*
X116077500Y-62737258D01*
X117122500Y-62262742D02*
X117122500Y-62737258D01*
%TO.C,J2*%
X143690000Y-53440000D02*
X143690000Y-66060000D01*
X143690000Y-66060000D02*
X149660000Y-66060000D01*
X144450000Y-54200000D02*
X144450000Y-59750000D01*
X144450000Y-65300000D02*
X144450000Y-59750000D01*
X147400000Y-53450000D02*
X147400000Y-54200000D01*
X147400000Y-54200000D02*
X144450000Y-54200000D01*
X147400000Y-65300000D02*
X144450000Y-65300000D01*
X147400000Y-66050000D02*
X147400000Y-65300000D01*
X148900000Y-53450000D02*
X148900000Y-55250000D01*
X148900000Y-55250000D02*
X149650000Y-55250000D01*
X148900000Y-56750000D02*
X148900000Y-62750000D01*
X148900000Y-62750000D02*
X149650000Y-62750000D01*
X148900000Y-64250000D02*
X148900000Y-66050000D01*
X148900000Y-66050000D02*
X149650000Y-66050000D01*
X149650000Y-53450000D02*
X148900000Y-53450000D01*
X149650000Y-55250000D02*
X149650000Y-53450000D01*
X149650000Y-56750000D02*
X148900000Y-56750000D01*
X149650000Y-62750000D02*
X149650000Y-56750000D01*
X149650000Y-64250000D02*
X148900000Y-64250000D01*
X149650000Y-66050000D02*
X149650000Y-64250000D01*
X149660000Y-53440000D02*
X143690000Y-53440000D01*
X149660000Y-66060000D02*
X149660000Y-53440000D01*
X149950000Y-53150000D02*
X148700000Y-53150000D01*
X149950000Y-54400000D02*
X149950000Y-53150000D01*
D13*
%TO.C,VDD*%
X128448000Y-55400000D02*
X130948000Y-55400000D01*
D14*
X126983000Y-54449500D02*
G75*
G02*
X126783000Y-54449500I-100000J0D01*
G01*
X126783000Y-54449500D02*
G75*
G02*
X126983000Y-54449500I100000J0D01*
G01*
D12*
%TO.C,R4*%
X116077500Y-58832742D02*
X116077500Y-59307258D01*
X117122500Y-58832742D02*
X117122500Y-59307258D01*
%TO.C,J1*%
X153970000Y-53440000D02*
X153970000Y-66060000D01*
X153970000Y-66060000D02*
X159940000Y-66060000D01*
X154730000Y-54200000D02*
X154730000Y-59750000D01*
X154730000Y-65300000D02*
X154730000Y-59750000D01*
X157680000Y-53450000D02*
X157680000Y-54200000D01*
X157680000Y-54200000D02*
X154730000Y-54200000D01*
X157680000Y-65300000D02*
X154730000Y-65300000D01*
X157680000Y-66050000D02*
X157680000Y-65300000D01*
X159180000Y-53450000D02*
X159180000Y-55250000D01*
X159180000Y-55250000D02*
X159930000Y-55250000D01*
X159180000Y-56750000D02*
X159180000Y-62750000D01*
X159180000Y-62750000D02*
X159930000Y-62750000D01*
X159180000Y-64250000D02*
X159180000Y-66050000D01*
X159180000Y-66050000D02*
X159930000Y-66050000D01*
X159930000Y-53450000D02*
X159180000Y-53450000D01*
X159930000Y-55250000D02*
X159930000Y-53450000D01*
X159930000Y-56750000D02*
X159180000Y-56750000D01*
X159930000Y-62750000D02*
X159930000Y-56750000D01*
X159930000Y-64250000D02*
X159180000Y-64250000D01*
X159930000Y-66050000D02*
X159930000Y-64250000D01*
X159940000Y-53440000D02*
X153970000Y-53440000D01*
X159940000Y-66060000D02*
X159940000Y-53440000D01*
X160230000Y-53150000D02*
X158980000Y-53150000D01*
X160230000Y-54400000D02*
X160230000Y-53150000D01*
%TD*%
M02*
