%TF.GenerationSoftware,KiCad,Pcbnew,8.0.1*%
%TF.CreationDate,2024-03-19T19:55:36+01:00*%
%TF.ProjectId,lang1,6c616e67-312e-46b6-9963-61645f706362,rev?*%
%TF.SameCoordinates,Original*%
%TF.FileFunction,Drillmap*%
%TF.FilePolarity,Positive*%
%FSLAX45Y45*%
G04 Gerber Fmt 4.5, Leading zero omitted, Abs format (unit mm)*
G04 Created by KiCad (PCBNEW 8.0.1) date 2024-03-19 19:55:36*
%MOMM*%
%LPD*%
G01*
G04 APERTURE LIST*
%ADD10C,0.100000*%
%ADD11C,0.050000*%
%ADD12C,0.200000*%
G04 APERTURE END LIST*
D10*
X16548400Y-7366000D02*
X9906000Y-7366000D01*
X17056400Y-5334000D02*
X17056400Y-6858000D01*
D11*
X9398000Y-5334000D02*
G75*
G02*
X9906000Y-4826000I508000J0D01*
G01*
D10*
X9906000Y-4826000D02*
X16548400Y-4826000D01*
X9398000Y-6858000D02*
X9398000Y-5334000D01*
D11*
X17056400Y-6858000D02*
G75*
G02*
X16548400Y-7366000I-508000J0D01*
G01*
X16548400Y-4826000D02*
G75*
G02*
X17056400Y-5334000I0J-508000D01*
G01*
X9906000Y-7366000D02*
G75*
G02*
X9398000Y-6858000I0J508000D01*
G01*
D12*
X9653777Y-7682484D02*
X9653777Y-7482484D01*
X9653777Y-7482484D02*
X9701396Y-7482484D01*
X9701396Y-7482484D02*
X9729967Y-7492008D01*
X9729967Y-7492008D02*
X9749015Y-7511055D01*
X9749015Y-7511055D02*
X9758539Y-7530103D01*
X9758539Y-7530103D02*
X9768063Y-7568198D01*
X9768063Y-7568198D02*
X9768063Y-7596769D01*
X9768063Y-7596769D02*
X9758539Y-7634865D01*
X9758539Y-7634865D02*
X9749015Y-7653912D01*
X9749015Y-7653912D02*
X9729967Y-7672960D01*
X9729967Y-7672960D02*
X9701396Y-7682484D01*
X9701396Y-7682484D02*
X9653777Y-7682484D01*
X9853777Y-7682484D02*
X9853777Y-7549150D01*
X9853777Y-7587246D02*
X9863301Y-7568198D01*
X9863301Y-7568198D02*
X9872824Y-7558674D01*
X9872824Y-7558674D02*
X9891872Y-7549150D01*
X9891872Y-7549150D02*
X9910920Y-7549150D01*
X9977586Y-7682484D02*
X9977586Y-7549150D01*
X9977586Y-7482484D02*
X9968063Y-7492008D01*
X9968063Y-7492008D02*
X9977586Y-7501531D01*
X9977586Y-7501531D02*
X9987110Y-7492008D01*
X9987110Y-7492008D02*
X9977586Y-7482484D01*
X9977586Y-7482484D02*
X9977586Y-7501531D01*
X10101396Y-7682484D02*
X10082348Y-7672960D01*
X10082348Y-7672960D02*
X10072824Y-7653912D01*
X10072824Y-7653912D02*
X10072824Y-7482484D01*
X10206158Y-7682484D02*
X10187110Y-7672960D01*
X10187110Y-7672960D02*
X10177586Y-7653912D01*
X10177586Y-7653912D02*
X10177586Y-7482484D01*
X10434729Y-7682484D02*
X10434729Y-7482484D01*
X10434729Y-7482484D02*
X10501396Y-7625341D01*
X10501396Y-7625341D02*
X10568063Y-7482484D01*
X10568063Y-7482484D02*
X10568063Y-7682484D01*
X10749015Y-7682484D02*
X10749015Y-7577722D01*
X10749015Y-7577722D02*
X10739491Y-7558674D01*
X10739491Y-7558674D02*
X10720444Y-7549150D01*
X10720444Y-7549150D02*
X10682348Y-7549150D01*
X10682348Y-7549150D02*
X10663301Y-7558674D01*
X10749015Y-7672960D02*
X10729967Y-7682484D01*
X10729967Y-7682484D02*
X10682348Y-7682484D01*
X10682348Y-7682484D02*
X10663301Y-7672960D01*
X10663301Y-7672960D02*
X10653777Y-7653912D01*
X10653777Y-7653912D02*
X10653777Y-7634865D01*
X10653777Y-7634865D02*
X10663301Y-7615817D01*
X10663301Y-7615817D02*
X10682348Y-7606293D01*
X10682348Y-7606293D02*
X10729967Y-7606293D01*
X10729967Y-7606293D02*
X10749015Y-7596769D01*
X10844253Y-7549150D02*
X10844253Y-7749150D01*
X10844253Y-7558674D02*
X10863301Y-7549150D01*
X10863301Y-7549150D02*
X10901396Y-7549150D01*
X10901396Y-7549150D02*
X10920444Y-7558674D01*
X10920444Y-7558674D02*
X10929967Y-7568198D01*
X10929967Y-7568198D02*
X10939491Y-7587246D01*
X10939491Y-7587246D02*
X10939491Y-7644388D01*
X10939491Y-7644388D02*
X10929967Y-7663436D01*
X10929967Y-7663436D02*
X10920444Y-7672960D01*
X10920444Y-7672960D02*
X10901396Y-7682484D01*
X10901396Y-7682484D02*
X10863301Y-7682484D01*
X10863301Y-7682484D02*
X10844253Y-7672960D01*
X11025205Y-7663436D02*
X11034729Y-7672960D01*
X11034729Y-7672960D02*
X11025205Y-7682484D01*
X11025205Y-7682484D02*
X11015682Y-7672960D01*
X11015682Y-7672960D02*
X11025205Y-7663436D01*
X11025205Y-7663436D02*
X11025205Y-7682484D01*
X11025205Y-7558674D02*
X11034729Y-7568198D01*
X11034729Y-7568198D02*
X11025205Y-7577722D01*
X11025205Y-7577722D02*
X11015682Y-7568198D01*
X11015682Y-7568198D02*
X11025205Y-7558674D01*
X11025205Y-7558674D02*
X11025205Y-7577722D01*
M02*
