%TF.GenerationSoftware,KiCad,Pcbnew,8.0.1*%
%TF.CreationDate,2024-03-19T19:55:36+01:00*%
%TF.ProjectId,lang1,6c616e67-312e-46b6-9963-61645f706362,rev?*%
%TF.SameCoordinates,Original*%
%TF.FileFunction,Drillmap*%
%TF.FilePolarity,Positive*%
%FSLAX45Y45*%
G04 Gerber Fmt 4.5, Leading zero omitted, Abs format (unit mm)*
G04 Created by KiCad (PCBNEW 8.0.1) date 2024-03-19 19:55:36*
%MOMM*%
%LPD*%
G01*
G04 APERTURE LIST*
%ADD10C,0.100000*%
%ADD11C,0.050000*%
%ADD12C,0.200000*%
%ADD13C,0.320000*%
G04 APERTURE END LIST*
D10*
X16548400Y-7366000D02*
X9906000Y-7366000D01*
X17056400Y-5334000D02*
X17056400Y-6858000D01*
D11*
X9398000Y-5334000D02*
G75*
G02*
X9906000Y-4826000I508000J0D01*
G01*
D10*
X9906000Y-4826000D02*
X16548400Y-4826000D01*
X9398000Y-6858000D02*
X9398000Y-5334000D01*
D11*
X17056400Y-6858000D02*
G75*
G02*
X16548400Y-7366000I-508000J0D01*
G01*
X16548400Y-4826000D02*
G75*
G02*
X17056400Y-5334000I0J-508000D01*
G01*
X9906000Y-7366000D02*
G75*
G02*
X9398000Y-6858000I0J508000D01*
G01*
D12*
D10*
X10629000Y-6571500D02*
X10659000Y-6601500D01*
X10659000Y-6571500D02*
X10629000Y-6601500D01*
X10883000Y-5809500D02*
X10913000Y-5839500D01*
X10913000Y-5809500D02*
X10883000Y-5839500D01*
X12015054Y-6048876D02*
X12045054Y-6078876D01*
X12045054Y-6048876D02*
X12015054Y-6078876D01*
X13089534Y-6221704D02*
X13119534Y-6251704D01*
X13119534Y-6221704D02*
X13089534Y-6251704D01*
X13447000Y-5573000D02*
X13477000Y-5603000D01*
X13477000Y-5573000D02*
X13447000Y-5603000D01*
X15217000Y-5835000D02*
X15247000Y-5865000D01*
X15247000Y-5835000D02*
X15217000Y-5865000D01*
X12876800Y-5445000D02*
G75*
G02*
X12808800Y-5445000I-34000J0D01*
G01*
X12808800Y-5445000D02*
G75*
G02*
X12876800Y-5445000I34000J0D01*
G01*
X13003800Y-5445000D02*
G75*
G02*
X12935800Y-5445000I-34000J0D01*
G01*
X12935800Y-5445000D02*
G75*
G02*
X13003800Y-5445000I34000J0D01*
G01*
X13130800Y-5445000D02*
G75*
G02*
X13062800Y-5445000I-34000J0D01*
G01*
X13062800Y-5445000D02*
G75*
G02*
X13130800Y-5445000I34000J0D01*
G01*
X13556800Y-5445000D02*
G75*
G02*
X13488800Y-5445000I-34000J0D01*
G01*
X13488800Y-5445000D02*
G75*
G02*
X13556800Y-5445000I34000J0D01*
G01*
X13683800Y-5445000D02*
G75*
G02*
X13615800Y-5445000I-34000J0D01*
G01*
X13615800Y-5445000D02*
G75*
G02*
X13683800Y-5445000I34000J0D01*
G01*
X13810800Y-5445000D02*
G75*
G02*
X13742800Y-5445000I-34000J0D01*
G01*
X13742800Y-5445000D02*
G75*
G02*
X13810800Y-5445000I34000J0D01*
G01*
X14720000Y-5552500D02*
X14720000Y-5647500D01*
X14672500Y-5600000D02*
X14767500Y-5600000D01*
X14720000Y-5802500D02*
X14720000Y-5897500D01*
X14672500Y-5850000D02*
X14767500Y-5850000D01*
X14720000Y-6052500D02*
X14720000Y-6147500D01*
X14672500Y-6100000D02*
X14767500Y-6100000D01*
X14720000Y-6302500D02*
X14720000Y-6397500D01*
X14672500Y-6350000D02*
X14767500Y-6350000D01*
X15748000Y-5552500D02*
X15748000Y-5647500D01*
X15700500Y-5600000D02*
X15795500Y-5600000D01*
X15748000Y-5802500D02*
X15748000Y-5897500D01*
X15700500Y-5850000D02*
X15795500Y-5850000D01*
X15748000Y-6052500D02*
X15748000Y-6147500D01*
X15700500Y-6100000D02*
X15795500Y-6100000D01*
X15748000Y-6302500D02*
X15748000Y-6397500D01*
X15700500Y-6350000D02*
X15795500Y-6350000D01*
X12376145Y-5982566D02*
X12376145Y-5911854D01*
X12305434Y-5911854D01*
X12305434Y-5982566D01*
X12376145Y-5982566D01*
X12630145Y-5982566D02*
X12630145Y-5911854D01*
X12559434Y-5911854D01*
X12559434Y-5982566D01*
X12630145Y-5982566D01*
D13*
X9906000Y-5494000D02*
X10066000Y-5334000D01*
X9906000Y-5174000D01*
X9746000Y-5334000D01*
X9906000Y-5494000D01*
X9906000Y-7019000D02*
X10066000Y-6859000D01*
X9906000Y-6699000D01*
X9746000Y-6859000D01*
X9906000Y-7019000D01*
X16548400Y-5494000D02*
X16708400Y-5334000D01*
X16548400Y-5174000D01*
X16388400Y-5334000D01*
X16548400Y-5494000D01*
X16548400Y-7019000D02*
X16708400Y-6859000D01*
X16548400Y-6699000D01*
X16388400Y-6859000D01*
X16548400Y-7019000D01*
D12*
X9653777Y-7682484D02*
X9653777Y-7482484D01*
X9653777Y-7482484D02*
X9701396Y-7482484D01*
X9701396Y-7482484D02*
X9729967Y-7492008D01*
X9729967Y-7492008D02*
X9749015Y-7511055D01*
X9749015Y-7511055D02*
X9758539Y-7530103D01*
X9758539Y-7530103D02*
X9768063Y-7568198D01*
X9768063Y-7568198D02*
X9768063Y-7596769D01*
X9768063Y-7596769D02*
X9758539Y-7634865D01*
X9758539Y-7634865D02*
X9749015Y-7653912D01*
X9749015Y-7653912D02*
X9729967Y-7672960D01*
X9729967Y-7672960D02*
X9701396Y-7682484D01*
X9701396Y-7682484D02*
X9653777Y-7682484D01*
X9853777Y-7682484D02*
X9853777Y-7549150D01*
X9853777Y-7587246D02*
X9863301Y-7568198D01*
X9863301Y-7568198D02*
X9872824Y-7558674D01*
X9872824Y-7558674D02*
X9891872Y-7549150D01*
X9891872Y-7549150D02*
X9910920Y-7549150D01*
X9977586Y-7682484D02*
X9977586Y-7549150D01*
X9977586Y-7482484D02*
X9968063Y-7492008D01*
X9968063Y-7492008D02*
X9977586Y-7501531D01*
X9977586Y-7501531D02*
X9987110Y-7492008D01*
X9987110Y-7492008D02*
X9977586Y-7482484D01*
X9977586Y-7482484D02*
X9977586Y-7501531D01*
X10101396Y-7682484D02*
X10082348Y-7672960D01*
X10082348Y-7672960D02*
X10072824Y-7653912D01*
X10072824Y-7653912D02*
X10072824Y-7482484D01*
X10206158Y-7682484D02*
X10187110Y-7672960D01*
X10187110Y-7672960D02*
X10177586Y-7653912D01*
X10177586Y-7653912D02*
X10177586Y-7482484D01*
X10434729Y-7682484D02*
X10434729Y-7482484D01*
X10434729Y-7482484D02*
X10501396Y-7625341D01*
X10501396Y-7625341D02*
X10568063Y-7482484D01*
X10568063Y-7482484D02*
X10568063Y-7682484D01*
X10749015Y-7682484D02*
X10749015Y-7577722D01*
X10749015Y-7577722D02*
X10739491Y-7558674D01*
X10739491Y-7558674D02*
X10720444Y-7549150D01*
X10720444Y-7549150D02*
X10682348Y-7549150D01*
X10682348Y-7549150D02*
X10663301Y-7558674D01*
X10749015Y-7672960D02*
X10729967Y-7682484D01*
X10729967Y-7682484D02*
X10682348Y-7682484D01*
X10682348Y-7682484D02*
X10663301Y-7672960D01*
X10663301Y-7672960D02*
X10653777Y-7653912D01*
X10653777Y-7653912D02*
X10653777Y-7634865D01*
X10653777Y-7634865D02*
X10663301Y-7615817D01*
X10663301Y-7615817D02*
X10682348Y-7606293D01*
X10682348Y-7606293D02*
X10729967Y-7606293D01*
X10729967Y-7606293D02*
X10749015Y-7596769D01*
X10844253Y-7549150D02*
X10844253Y-7749150D01*
X10844253Y-7558674D02*
X10863301Y-7549150D01*
X10863301Y-7549150D02*
X10901396Y-7549150D01*
X10901396Y-7549150D02*
X10920444Y-7558674D01*
X10920444Y-7558674D02*
X10929967Y-7568198D01*
X10929967Y-7568198D02*
X10939491Y-7587246D01*
X10939491Y-7587246D02*
X10939491Y-7644388D01*
X10939491Y-7644388D02*
X10929967Y-7663436D01*
X10929967Y-7663436D02*
X10920444Y-7672960D01*
X10920444Y-7672960D02*
X10901396Y-7682484D01*
X10901396Y-7682484D02*
X10863301Y-7682484D01*
X10863301Y-7682484D02*
X10844253Y-7672960D01*
X11025205Y-7663436D02*
X11034729Y-7672960D01*
X11034729Y-7672960D02*
X11025205Y-7682484D01*
X11025205Y-7682484D02*
X11015682Y-7672960D01*
X11015682Y-7672960D02*
X11025205Y-7663436D01*
X11025205Y-7663436D02*
X11025205Y-7682484D01*
X11025205Y-7558674D02*
X11034729Y-7568198D01*
X11034729Y-7568198D02*
X11025205Y-7577722D01*
X11025205Y-7577722D02*
X11015682Y-7568198D01*
X11015682Y-7568198D02*
X11025205Y-7558674D01*
X11025205Y-7558674D02*
X11025205Y-7577722D01*
D10*
X9363000Y-7996000D02*
X9393000Y-8026000D01*
X9393000Y-7996000D02*
X9363000Y-8026000D01*
D12*
X9691872Y-7902484D02*
X9710920Y-7902484D01*
X9710920Y-7902484D02*
X9729967Y-7912008D01*
X9729967Y-7912008D02*
X9739491Y-7921531D01*
X9739491Y-7921531D02*
X9749015Y-7940579D01*
X9749015Y-7940579D02*
X9758539Y-7978674D01*
X9758539Y-7978674D02*
X9758539Y-8026293D01*
X9758539Y-8026293D02*
X9749015Y-8064388D01*
X9749015Y-8064388D02*
X9739491Y-8083436D01*
X9739491Y-8083436D02*
X9729967Y-8092960D01*
X9729967Y-8092960D02*
X9710920Y-8102484D01*
X9710920Y-8102484D02*
X9691872Y-8102484D01*
X9691872Y-8102484D02*
X9672824Y-8092960D01*
X9672824Y-8092960D02*
X9663301Y-8083436D01*
X9663301Y-8083436D02*
X9653777Y-8064388D01*
X9653777Y-8064388D02*
X9644253Y-8026293D01*
X9644253Y-8026293D02*
X9644253Y-7978674D01*
X9644253Y-7978674D02*
X9653777Y-7940579D01*
X9653777Y-7940579D02*
X9663301Y-7921531D01*
X9663301Y-7921531D02*
X9672824Y-7912008D01*
X9672824Y-7912008D02*
X9691872Y-7902484D01*
X9844253Y-8083436D02*
X9853777Y-8092960D01*
X9853777Y-8092960D02*
X9844253Y-8102484D01*
X9844253Y-8102484D02*
X9834729Y-8092960D01*
X9834729Y-8092960D02*
X9844253Y-8083436D01*
X9844253Y-8083436D02*
X9844253Y-8102484D01*
X9920444Y-7902484D02*
X10044253Y-7902484D01*
X10044253Y-7902484D02*
X9977586Y-7978674D01*
X9977586Y-7978674D02*
X10006158Y-7978674D01*
X10006158Y-7978674D02*
X10025205Y-7988198D01*
X10025205Y-7988198D02*
X10034729Y-7997722D01*
X10034729Y-7997722D02*
X10044253Y-8016769D01*
X10044253Y-8016769D02*
X10044253Y-8064388D01*
X10044253Y-8064388D02*
X10034729Y-8083436D01*
X10034729Y-8083436D02*
X10025205Y-8092960D01*
X10025205Y-8092960D02*
X10006158Y-8102484D01*
X10006158Y-8102484D02*
X9949015Y-8102484D01*
X9949015Y-8102484D02*
X9929967Y-8092960D01*
X9929967Y-8092960D02*
X9920444Y-8083436D01*
X10168063Y-7902484D02*
X10187110Y-7902484D01*
X10187110Y-7902484D02*
X10206158Y-7912008D01*
X10206158Y-7912008D02*
X10215682Y-7921531D01*
X10215682Y-7921531D02*
X10225205Y-7940579D01*
X10225205Y-7940579D02*
X10234729Y-7978674D01*
X10234729Y-7978674D02*
X10234729Y-8026293D01*
X10234729Y-8026293D02*
X10225205Y-8064388D01*
X10225205Y-8064388D02*
X10215682Y-8083436D01*
X10215682Y-8083436D02*
X10206158Y-8092960D01*
X10206158Y-8092960D02*
X10187110Y-8102484D01*
X10187110Y-8102484D02*
X10168063Y-8102484D01*
X10168063Y-8102484D02*
X10149015Y-8092960D01*
X10149015Y-8092960D02*
X10139491Y-8083436D01*
X10139491Y-8083436D02*
X10129967Y-8064388D01*
X10129967Y-8064388D02*
X10120444Y-8026293D01*
X10120444Y-8026293D02*
X10120444Y-7978674D01*
X10120444Y-7978674D02*
X10129967Y-7940579D01*
X10129967Y-7940579D02*
X10139491Y-7921531D01*
X10139491Y-7921531D02*
X10149015Y-7912008D01*
X10149015Y-7912008D02*
X10168063Y-7902484D01*
X10358539Y-7902484D02*
X10377586Y-7902484D01*
X10377586Y-7902484D02*
X10396634Y-7912008D01*
X10396634Y-7912008D02*
X10406158Y-7921531D01*
X10406158Y-7921531D02*
X10415682Y-7940579D01*
X10415682Y-7940579D02*
X10425205Y-7978674D01*
X10425205Y-7978674D02*
X10425205Y-8026293D01*
X10425205Y-8026293D02*
X10415682Y-8064388D01*
X10415682Y-8064388D02*
X10406158Y-8083436D01*
X10406158Y-8083436D02*
X10396634Y-8092960D01*
X10396634Y-8092960D02*
X10377586Y-8102484D01*
X10377586Y-8102484D02*
X10358539Y-8102484D01*
X10358539Y-8102484D02*
X10339491Y-8092960D01*
X10339491Y-8092960D02*
X10329967Y-8083436D01*
X10329967Y-8083436D02*
X10320444Y-8064388D01*
X10320444Y-8064388D02*
X10310920Y-8026293D01*
X10310920Y-8026293D02*
X10310920Y-7978674D01*
X10310920Y-7978674D02*
X10320444Y-7940579D01*
X10320444Y-7940579D02*
X10329967Y-7921531D01*
X10329967Y-7921531D02*
X10339491Y-7912008D01*
X10339491Y-7912008D02*
X10358539Y-7902484D01*
X10510920Y-8102484D02*
X10510920Y-7969150D01*
X10510920Y-7988198D02*
X10520444Y-7978674D01*
X10520444Y-7978674D02*
X10539491Y-7969150D01*
X10539491Y-7969150D02*
X10568063Y-7969150D01*
X10568063Y-7969150D02*
X10587110Y-7978674D01*
X10587110Y-7978674D02*
X10596634Y-7997722D01*
X10596634Y-7997722D02*
X10596634Y-8102484D01*
X10596634Y-7997722D02*
X10606158Y-7978674D01*
X10606158Y-7978674D02*
X10625205Y-7969150D01*
X10625205Y-7969150D02*
X10653777Y-7969150D01*
X10653777Y-7969150D02*
X10672825Y-7978674D01*
X10672825Y-7978674D02*
X10682348Y-7997722D01*
X10682348Y-7997722D02*
X10682348Y-8102484D01*
X10777586Y-8102484D02*
X10777586Y-7969150D01*
X10777586Y-7988198D02*
X10787110Y-7978674D01*
X10787110Y-7978674D02*
X10806158Y-7969150D01*
X10806158Y-7969150D02*
X10834729Y-7969150D01*
X10834729Y-7969150D02*
X10853777Y-7978674D01*
X10853777Y-7978674D02*
X10863301Y-7997722D01*
X10863301Y-7997722D02*
X10863301Y-8102484D01*
X10863301Y-7997722D02*
X10872825Y-7978674D01*
X10872825Y-7978674D02*
X10891872Y-7969150D01*
X10891872Y-7969150D02*
X10920444Y-7969150D01*
X10920444Y-7969150D02*
X10939491Y-7978674D01*
X10939491Y-7978674D02*
X10949015Y-7997722D01*
X10949015Y-7997722D02*
X10949015Y-8102484D01*
X11339491Y-7892960D02*
X11168063Y-8150103D01*
X11596634Y-7902484D02*
X11615682Y-7902484D01*
X11615682Y-7902484D02*
X11634729Y-7912008D01*
X11634729Y-7912008D02*
X11644253Y-7921531D01*
X11644253Y-7921531D02*
X11653777Y-7940579D01*
X11653777Y-7940579D02*
X11663301Y-7978674D01*
X11663301Y-7978674D02*
X11663301Y-8026293D01*
X11663301Y-8026293D02*
X11653777Y-8064388D01*
X11653777Y-8064388D02*
X11644253Y-8083436D01*
X11644253Y-8083436D02*
X11634729Y-8092960D01*
X11634729Y-8092960D02*
X11615682Y-8102484D01*
X11615682Y-8102484D02*
X11596634Y-8102484D01*
X11596634Y-8102484D02*
X11577586Y-8092960D01*
X11577586Y-8092960D02*
X11568063Y-8083436D01*
X11568063Y-8083436D02*
X11558539Y-8064388D01*
X11558539Y-8064388D02*
X11549015Y-8026293D01*
X11549015Y-8026293D02*
X11549015Y-7978674D01*
X11549015Y-7978674D02*
X11558539Y-7940579D01*
X11558539Y-7940579D02*
X11568063Y-7921531D01*
X11568063Y-7921531D02*
X11577586Y-7912008D01*
X11577586Y-7912008D02*
X11596634Y-7902484D01*
X11749015Y-8083436D02*
X11758539Y-8092960D01*
X11758539Y-8092960D02*
X11749015Y-8102484D01*
X11749015Y-8102484D02*
X11739491Y-8092960D01*
X11739491Y-8092960D02*
X11749015Y-8083436D01*
X11749015Y-8083436D02*
X11749015Y-8102484D01*
X11882348Y-7902484D02*
X11901396Y-7902484D01*
X11901396Y-7902484D02*
X11920444Y-7912008D01*
X11920444Y-7912008D02*
X11929967Y-7921531D01*
X11929967Y-7921531D02*
X11939491Y-7940579D01*
X11939491Y-7940579D02*
X11949015Y-7978674D01*
X11949015Y-7978674D02*
X11949015Y-8026293D01*
X11949015Y-8026293D02*
X11939491Y-8064388D01*
X11939491Y-8064388D02*
X11929967Y-8083436D01*
X11929967Y-8083436D02*
X11920444Y-8092960D01*
X11920444Y-8092960D02*
X11901396Y-8102484D01*
X11901396Y-8102484D02*
X11882348Y-8102484D01*
X11882348Y-8102484D02*
X11863301Y-8092960D01*
X11863301Y-8092960D02*
X11853777Y-8083436D01*
X11853777Y-8083436D02*
X11844253Y-8064388D01*
X11844253Y-8064388D02*
X11834729Y-8026293D01*
X11834729Y-8026293D02*
X11834729Y-7978674D01*
X11834729Y-7978674D02*
X11844253Y-7940579D01*
X11844253Y-7940579D02*
X11853777Y-7921531D01*
X11853777Y-7921531D02*
X11863301Y-7912008D01*
X11863301Y-7912008D02*
X11882348Y-7902484D01*
X12139491Y-8102484D02*
X12025206Y-8102484D01*
X12082348Y-8102484D02*
X12082348Y-7902484D01*
X12082348Y-7902484D02*
X12063301Y-7931055D01*
X12063301Y-7931055D02*
X12044253Y-7950103D01*
X12044253Y-7950103D02*
X12025206Y-7959627D01*
X12329967Y-8102484D02*
X12215682Y-8102484D01*
X12272825Y-8102484D02*
X12272825Y-7902484D01*
X12272825Y-7902484D02*
X12253777Y-7931055D01*
X12253777Y-7931055D02*
X12234729Y-7950103D01*
X12234729Y-7950103D02*
X12215682Y-7959627D01*
X12444253Y-7988198D02*
X12425206Y-7978674D01*
X12425206Y-7978674D02*
X12415682Y-7969150D01*
X12415682Y-7969150D02*
X12406158Y-7950103D01*
X12406158Y-7950103D02*
X12406158Y-7940579D01*
X12406158Y-7940579D02*
X12415682Y-7921531D01*
X12415682Y-7921531D02*
X12425206Y-7912008D01*
X12425206Y-7912008D02*
X12444253Y-7902484D01*
X12444253Y-7902484D02*
X12482348Y-7902484D01*
X12482348Y-7902484D02*
X12501396Y-7912008D01*
X12501396Y-7912008D02*
X12510920Y-7921531D01*
X12510920Y-7921531D02*
X12520444Y-7940579D01*
X12520444Y-7940579D02*
X12520444Y-7950103D01*
X12520444Y-7950103D02*
X12510920Y-7969150D01*
X12510920Y-7969150D02*
X12501396Y-7978674D01*
X12501396Y-7978674D02*
X12482348Y-7988198D01*
X12482348Y-7988198D02*
X12444253Y-7988198D01*
X12444253Y-7988198D02*
X12425206Y-7997722D01*
X12425206Y-7997722D02*
X12415682Y-8007246D01*
X12415682Y-8007246D02*
X12406158Y-8026293D01*
X12406158Y-8026293D02*
X12406158Y-8064388D01*
X12406158Y-8064388D02*
X12415682Y-8083436D01*
X12415682Y-8083436D02*
X12425206Y-8092960D01*
X12425206Y-8092960D02*
X12444253Y-8102484D01*
X12444253Y-8102484D02*
X12482348Y-8102484D01*
X12482348Y-8102484D02*
X12501396Y-8092960D01*
X12501396Y-8092960D02*
X12510920Y-8083436D01*
X12510920Y-8083436D02*
X12520444Y-8064388D01*
X12520444Y-8064388D02*
X12520444Y-8026293D01*
X12520444Y-8026293D02*
X12510920Y-8007246D01*
X12510920Y-8007246D02*
X12501396Y-7997722D01*
X12501396Y-7997722D02*
X12482348Y-7988198D01*
X12596634Y-7902484D02*
X12596634Y-7940579D01*
X12672825Y-7902484D02*
X12672825Y-7940579D01*
X12968063Y-8178674D02*
X12958539Y-8169150D01*
X12958539Y-8169150D02*
X12939491Y-8140579D01*
X12939491Y-8140579D02*
X12929968Y-8121531D01*
X12929968Y-8121531D02*
X12920444Y-8092960D01*
X12920444Y-8092960D02*
X12910920Y-8045341D01*
X12910920Y-8045341D02*
X12910920Y-8007246D01*
X12910920Y-8007246D02*
X12920444Y-7959627D01*
X12920444Y-7959627D02*
X12929968Y-7931055D01*
X12929968Y-7931055D02*
X12939491Y-7912008D01*
X12939491Y-7912008D02*
X12958539Y-7883436D01*
X12958539Y-7883436D02*
X12968063Y-7873912D01*
X13129968Y-7902484D02*
X13091872Y-7902484D01*
X13091872Y-7902484D02*
X13072825Y-7912008D01*
X13072825Y-7912008D02*
X13063301Y-7921531D01*
X13063301Y-7921531D02*
X13044253Y-7950103D01*
X13044253Y-7950103D02*
X13034729Y-7988198D01*
X13034729Y-7988198D02*
X13034729Y-8064388D01*
X13034729Y-8064388D02*
X13044253Y-8083436D01*
X13044253Y-8083436D02*
X13053777Y-8092960D01*
X13053777Y-8092960D02*
X13072825Y-8102484D01*
X13072825Y-8102484D02*
X13110920Y-8102484D01*
X13110920Y-8102484D02*
X13129968Y-8092960D01*
X13129968Y-8092960D02*
X13139491Y-8083436D01*
X13139491Y-8083436D02*
X13149015Y-8064388D01*
X13149015Y-8064388D02*
X13149015Y-8016769D01*
X13149015Y-8016769D02*
X13139491Y-7997722D01*
X13139491Y-7997722D02*
X13129968Y-7988198D01*
X13129968Y-7988198D02*
X13110920Y-7978674D01*
X13110920Y-7978674D02*
X13072825Y-7978674D01*
X13072825Y-7978674D02*
X13053777Y-7988198D01*
X13053777Y-7988198D02*
X13044253Y-7997722D01*
X13044253Y-7997722D02*
X13034729Y-8016769D01*
X13387110Y-8102484D02*
X13387110Y-7902484D01*
X13472825Y-8102484D02*
X13472825Y-7997722D01*
X13472825Y-7997722D02*
X13463301Y-7978674D01*
X13463301Y-7978674D02*
X13444253Y-7969150D01*
X13444253Y-7969150D02*
X13415682Y-7969150D01*
X13415682Y-7969150D02*
X13396634Y-7978674D01*
X13396634Y-7978674D02*
X13387110Y-7988198D01*
X13596634Y-8102484D02*
X13577587Y-8092960D01*
X13577587Y-8092960D02*
X13568063Y-8083436D01*
X13568063Y-8083436D02*
X13558539Y-8064388D01*
X13558539Y-8064388D02*
X13558539Y-8007246D01*
X13558539Y-8007246D02*
X13568063Y-7988198D01*
X13568063Y-7988198D02*
X13577587Y-7978674D01*
X13577587Y-7978674D02*
X13596634Y-7969150D01*
X13596634Y-7969150D02*
X13625206Y-7969150D01*
X13625206Y-7969150D02*
X13644253Y-7978674D01*
X13644253Y-7978674D02*
X13653777Y-7988198D01*
X13653777Y-7988198D02*
X13663301Y-8007246D01*
X13663301Y-8007246D02*
X13663301Y-8064388D01*
X13663301Y-8064388D02*
X13653777Y-8083436D01*
X13653777Y-8083436D02*
X13644253Y-8092960D01*
X13644253Y-8092960D02*
X13625206Y-8102484D01*
X13625206Y-8102484D02*
X13596634Y-8102484D01*
X13777587Y-8102484D02*
X13758539Y-8092960D01*
X13758539Y-8092960D02*
X13749015Y-8073912D01*
X13749015Y-8073912D02*
X13749015Y-7902484D01*
X13929968Y-8092960D02*
X13910920Y-8102484D01*
X13910920Y-8102484D02*
X13872825Y-8102484D01*
X13872825Y-8102484D02*
X13853777Y-8092960D01*
X13853777Y-8092960D02*
X13844253Y-8073912D01*
X13844253Y-8073912D02*
X13844253Y-7997722D01*
X13844253Y-7997722D02*
X13853777Y-7978674D01*
X13853777Y-7978674D02*
X13872825Y-7969150D01*
X13872825Y-7969150D02*
X13910920Y-7969150D01*
X13910920Y-7969150D02*
X13929968Y-7978674D01*
X13929968Y-7978674D02*
X13939491Y-7997722D01*
X13939491Y-7997722D02*
X13939491Y-8016769D01*
X13939491Y-8016769D02*
X13844253Y-8035817D01*
X14015682Y-8092960D02*
X14034730Y-8102484D01*
X14034730Y-8102484D02*
X14072825Y-8102484D01*
X14072825Y-8102484D02*
X14091872Y-8092960D01*
X14091872Y-8092960D02*
X14101396Y-8073912D01*
X14101396Y-8073912D02*
X14101396Y-8064388D01*
X14101396Y-8064388D02*
X14091872Y-8045341D01*
X14091872Y-8045341D02*
X14072825Y-8035817D01*
X14072825Y-8035817D02*
X14044253Y-8035817D01*
X14044253Y-8035817D02*
X14025206Y-8026293D01*
X14025206Y-8026293D02*
X14015682Y-8007246D01*
X14015682Y-8007246D02*
X14015682Y-7997722D01*
X14015682Y-7997722D02*
X14025206Y-7978674D01*
X14025206Y-7978674D02*
X14044253Y-7969150D01*
X14044253Y-7969150D02*
X14072825Y-7969150D01*
X14072825Y-7969150D02*
X14091872Y-7978674D01*
X14168063Y-8178674D02*
X14177587Y-8169150D01*
X14177587Y-8169150D02*
X14196634Y-8140579D01*
X14196634Y-8140579D02*
X14206158Y-8121531D01*
X14206158Y-8121531D02*
X14215682Y-8092960D01*
X14215682Y-8092960D02*
X14225206Y-8045341D01*
X14225206Y-8045341D02*
X14225206Y-8007246D01*
X14225206Y-8007246D02*
X14215682Y-7959627D01*
X14215682Y-7959627D02*
X14206158Y-7931055D01*
X14206158Y-7931055D02*
X14196634Y-7912008D01*
X14196634Y-7912008D02*
X14177587Y-7883436D01*
X14177587Y-7883436D02*
X14168063Y-7873912D01*
D10*
X9393000Y-8275000D02*
G75*
G02*
X9325000Y-8275000I-34000J0D01*
G01*
X9325000Y-8275000D02*
G75*
G02*
X9393000Y-8275000I34000J0D01*
G01*
D12*
X9691872Y-8166484D02*
X9710920Y-8166484D01*
X9710920Y-8166484D02*
X9729967Y-8176008D01*
X9729967Y-8176008D02*
X9739491Y-8185531D01*
X9739491Y-8185531D02*
X9749015Y-8204579D01*
X9749015Y-8204579D02*
X9758539Y-8242674D01*
X9758539Y-8242674D02*
X9758539Y-8290293D01*
X9758539Y-8290293D02*
X9749015Y-8328388D01*
X9749015Y-8328388D02*
X9739491Y-8347436D01*
X9739491Y-8347436D02*
X9729967Y-8356960D01*
X9729967Y-8356960D02*
X9710920Y-8366484D01*
X9710920Y-8366484D02*
X9691872Y-8366484D01*
X9691872Y-8366484D02*
X9672824Y-8356960D01*
X9672824Y-8356960D02*
X9663301Y-8347436D01*
X9663301Y-8347436D02*
X9653777Y-8328388D01*
X9653777Y-8328388D02*
X9644253Y-8290293D01*
X9644253Y-8290293D02*
X9644253Y-8242674D01*
X9644253Y-8242674D02*
X9653777Y-8204579D01*
X9653777Y-8204579D02*
X9663301Y-8185531D01*
X9663301Y-8185531D02*
X9672824Y-8176008D01*
X9672824Y-8176008D02*
X9691872Y-8166484D01*
X9844253Y-8347436D02*
X9853777Y-8356960D01*
X9853777Y-8356960D02*
X9844253Y-8366484D01*
X9844253Y-8366484D02*
X9834729Y-8356960D01*
X9834729Y-8356960D02*
X9844253Y-8347436D01*
X9844253Y-8347436D02*
X9844253Y-8366484D01*
X10025205Y-8166484D02*
X9987110Y-8166484D01*
X9987110Y-8166484D02*
X9968063Y-8176008D01*
X9968063Y-8176008D02*
X9958539Y-8185531D01*
X9958539Y-8185531D02*
X9939491Y-8214103D01*
X9939491Y-8214103D02*
X9929967Y-8252198D01*
X9929967Y-8252198D02*
X9929967Y-8328388D01*
X9929967Y-8328388D02*
X9939491Y-8347436D01*
X9939491Y-8347436D02*
X9949015Y-8356960D01*
X9949015Y-8356960D02*
X9968063Y-8366484D01*
X9968063Y-8366484D02*
X10006158Y-8366484D01*
X10006158Y-8366484D02*
X10025205Y-8356960D01*
X10025205Y-8356960D02*
X10034729Y-8347436D01*
X10034729Y-8347436D02*
X10044253Y-8328388D01*
X10044253Y-8328388D02*
X10044253Y-8280769D01*
X10044253Y-8280769D02*
X10034729Y-8261722D01*
X10034729Y-8261722D02*
X10025205Y-8252198D01*
X10025205Y-8252198D02*
X10006158Y-8242674D01*
X10006158Y-8242674D02*
X9968063Y-8242674D01*
X9968063Y-8242674D02*
X9949015Y-8252198D01*
X9949015Y-8252198D02*
X9939491Y-8261722D01*
X9939491Y-8261722D02*
X9929967Y-8280769D01*
X10158539Y-8252198D02*
X10139491Y-8242674D01*
X10139491Y-8242674D02*
X10129967Y-8233150D01*
X10129967Y-8233150D02*
X10120444Y-8214103D01*
X10120444Y-8214103D02*
X10120444Y-8204579D01*
X10120444Y-8204579D02*
X10129967Y-8185531D01*
X10129967Y-8185531D02*
X10139491Y-8176008D01*
X10139491Y-8176008D02*
X10158539Y-8166484D01*
X10158539Y-8166484D02*
X10196634Y-8166484D01*
X10196634Y-8166484D02*
X10215682Y-8176008D01*
X10215682Y-8176008D02*
X10225205Y-8185531D01*
X10225205Y-8185531D02*
X10234729Y-8204579D01*
X10234729Y-8204579D02*
X10234729Y-8214103D01*
X10234729Y-8214103D02*
X10225205Y-8233150D01*
X10225205Y-8233150D02*
X10215682Y-8242674D01*
X10215682Y-8242674D02*
X10196634Y-8252198D01*
X10196634Y-8252198D02*
X10158539Y-8252198D01*
X10158539Y-8252198D02*
X10139491Y-8261722D01*
X10139491Y-8261722D02*
X10129967Y-8271246D01*
X10129967Y-8271246D02*
X10120444Y-8290293D01*
X10120444Y-8290293D02*
X10120444Y-8328388D01*
X10120444Y-8328388D02*
X10129967Y-8347436D01*
X10129967Y-8347436D02*
X10139491Y-8356960D01*
X10139491Y-8356960D02*
X10158539Y-8366484D01*
X10158539Y-8366484D02*
X10196634Y-8366484D01*
X10196634Y-8366484D02*
X10215682Y-8356960D01*
X10215682Y-8356960D02*
X10225205Y-8347436D01*
X10225205Y-8347436D02*
X10234729Y-8328388D01*
X10234729Y-8328388D02*
X10234729Y-8290293D01*
X10234729Y-8290293D02*
X10225205Y-8271246D01*
X10225205Y-8271246D02*
X10215682Y-8261722D01*
X10215682Y-8261722D02*
X10196634Y-8252198D01*
X10358539Y-8166484D02*
X10377586Y-8166484D01*
X10377586Y-8166484D02*
X10396634Y-8176008D01*
X10396634Y-8176008D02*
X10406158Y-8185531D01*
X10406158Y-8185531D02*
X10415682Y-8204579D01*
X10415682Y-8204579D02*
X10425205Y-8242674D01*
X10425205Y-8242674D02*
X10425205Y-8290293D01*
X10425205Y-8290293D02*
X10415682Y-8328388D01*
X10415682Y-8328388D02*
X10406158Y-8347436D01*
X10406158Y-8347436D02*
X10396634Y-8356960D01*
X10396634Y-8356960D02*
X10377586Y-8366484D01*
X10377586Y-8366484D02*
X10358539Y-8366484D01*
X10358539Y-8366484D02*
X10339491Y-8356960D01*
X10339491Y-8356960D02*
X10329967Y-8347436D01*
X10329967Y-8347436D02*
X10320444Y-8328388D01*
X10320444Y-8328388D02*
X10310920Y-8290293D01*
X10310920Y-8290293D02*
X10310920Y-8242674D01*
X10310920Y-8242674D02*
X10320444Y-8204579D01*
X10320444Y-8204579D02*
X10329967Y-8185531D01*
X10329967Y-8185531D02*
X10339491Y-8176008D01*
X10339491Y-8176008D02*
X10358539Y-8166484D01*
X10510920Y-8366484D02*
X10510920Y-8233150D01*
X10510920Y-8252198D02*
X10520444Y-8242674D01*
X10520444Y-8242674D02*
X10539491Y-8233150D01*
X10539491Y-8233150D02*
X10568063Y-8233150D01*
X10568063Y-8233150D02*
X10587110Y-8242674D01*
X10587110Y-8242674D02*
X10596634Y-8261722D01*
X10596634Y-8261722D02*
X10596634Y-8366484D01*
X10596634Y-8261722D02*
X10606158Y-8242674D01*
X10606158Y-8242674D02*
X10625205Y-8233150D01*
X10625205Y-8233150D02*
X10653777Y-8233150D01*
X10653777Y-8233150D02*
X10672825Y-8242674D01*
X10672825Y-8242674D02*
X10682348Y-8261722D01*
X10682348Y-8261722D02*
X10682348Y-8366484D01*
X10777586Y-8366484D02*
X10777586Y-8233150D01*
X10777586Y-8252198D02*
X10787110Y-8242674D01*
X10787110Y-8242674D02*
X10806158Y-8233150D01*
X10806158Y-8233150D02*
X10834729Y-8233150D01*
X10834729Y-8233150D02*
X10853777Y-8242674D01*
X10853777Y-8242674D02*
X10863301Y-8261722D01*
X10863301Y-8261722D02*
X10863301Y-8366484D01*
X10863301Y-8261722D02*
X10872825Y-8242674D01*
X10872825Y-8242674D02*
X10891872Y-8233150D01*
X10891872Y-8233150D02*
X10920444Y-8233150D01*
X10920444Y-8233150D02*
X10939491Y-8242674D01*
X10939491Y-8242674D02*
X10949015Y-8261722D01*
X10949015Y-8261722D02*
X10949015Y-8366484D01*
X11339491Y-8156960D02*
X11168063Y-8414103D01*
X11596634Y-8166484D02*
X11615682Y-8166484D01*
X11615682Y-8166484D02*
X11634729Y-8176008D01*
X11634729Y-8176008D02*
X11644253Y-8185531D01*
X11644253Y-8185531D02*
X11653777Y-8204579D01*
X11653777Y-8204579D02*
X11663301Y-8242674D01*
X11663301Y-8242674D02*
X11663301Y-8290293D01*
X11663301Y-8290293D02*
X11653777Y-8328388D01*
X11653777Y-8328388D02*
X11644253Y-8347436D01*
X11644253Y-8347436D02*
X11634729Y-8356960D01*
X11634729Y-8356960D02*
X11615682Y-8366484D01*
X11615682Y-8366484D02*
X11596634Y-8366484D01*
X11596634Y-8366484D02*
X11577586Y-8356960D01*
X11577586Y-8356960D02*
X11568063Y-8347436D01*
X11568063Y-8347436D02*
X11558539Y-8328388D01*
X11558539Y-8328388D02*
X11549015Y-8290293D01*
X11549015Y-8290293D02*
X11549015Y-8242674D01*
X11549015Y-8242674D02*
X11558539Y-8204579D01*
X11558539Y-8204579D02*
X11568063Y-8185531D01*
X11568063Y-8185531D02*
X11577586Y-8176008D01*
X11577586Y-8176008D02*
X11596634Y-8166484D01*
X11749015Y-8347436D02*
X11758539Y-8356960D01*
X11758539Y-8356960D02*
X11749015Y-8366484D01*
X11749015Y-8366484D02*
X11739491Y-8356960D01*
X11739491Y-8356960D02*
X11749015Y-8347436D01*
X11749015Y-8347436D02*
X11749015Y-8366484D01*
X11882348Y-8166484D02*
X11901396Y-8166484D01*
X11901396Y-8166484D02*
X11920444Y-8176008D01*
X11920444Y-8176008D02*
X11929967Y-8185531D01*
X11929967Y-8185531D02*
X11939491Y-8204579D01*
X11939491Y-8204579D02*
X11949015Y-8242674D01*
X11949015Y-8242674D02*
X11949015Y-8290293D01*
X11949015Y-8290293D02*
X11939491Y-8328388D01*
X11939491Y-8328388D02*
X11929967Y-8347436D01*
X11929967Y-8347436D02*
X11920444Y-8356960D01*
X11920444Y-8356960D02*
X11901396Y-8366484D01*
X11901396Y-8366484D02*
X11882348Y-8366484D01*
X11882348Y-8366484D02*
X11863301Y-8356960D01*
X11863301Y-8356960D02*
X11853777Y-8347436D01*
X11853777Y-8347436D02*
X11844253Y-8328388D01*
X11844253Y-8328388D02*
X11834729Y-8290293D01*
X11834729Y-8290293D02*
X11834729Y-8242674D01*
X11834729Y-8242674D02*
X11844253Y-8204579D01*
X11844253Y-8204579D02*
X11853777Y-8185531D01*
X11853777Y-8185531D02*
X11863301Y-8176008D01*
X11863301Y-8176008D02*
X11882348Y-8166484D01*
X12025206Y-8185531D02*
X12034729Y-8176008D01*
X12034729Y-8176008D02*
X12053777Y-8166484D01*
X12053777Y-8166484D02*
X12101396Y-8166484D01*
X12101396Y-8166484D02*
X12120444Y-8176008D01*
X12120444Y-8176008D02*
X12129967Y-8185531D01*
X12129967Y-8185531D02*
X12139491Y-8204579D01*
X12139491Y-8204579D02*
X12139491Y-8223627D01*
X12139491Y-8223627D02*
X12129967Y-8252198D01*
X12129967Y-8252198D02*
X12015682Y-8366484D01*
X12015682Y-8366484D02*
X12139491Y-8366484D01*
X12310920Y-8166484D02*
X12272825Y-8166484D01*
X12272825Y-8166484D02*
X12253777Y-8176008D01*
X12253777Y-8176008D02*
X12244253Y-8185531D01*
X12244253Y-8185531D02*
X12225206Y-8214103D01*
X12225206Y-8214103D02*
X12215682Y-8252198D01*
X12215682Y-8252198D02*
X12215682Y-8328388D01*
X12215682Y-8328388D02*
X12225206Y-8347436D01*
X12225206Y-8347436D02*
X12234729Y-8356960D01*
X12234729Y-8356960D02*
X12253777Y-8366484D01*
X12253777Y-8366484D02*
X12291872Y-8366484D01*
X12291872Y-8366484D02*
X12310920Y-8356960D01*
X12310920Y-8356960D02*
X12320444Y-8347436D01*
X12320444Y-8347436D02*
X12329967Y-8328388D01*
X12329967Y-8328388D02*
X12329967Y-8280769D01*
X12329967Y-8280769D02*
X12320444Y-8261722D01*
X12320444Y-8261722D02*
X12310920Y-8252198D01*
X12310920Y-8252198D02*
X12291872Y-8242674D01*
X12291872Y-8242674D02*
X12253777Y-8242674D01*
X12253777Y-8242674D02*
X12234729Y-8252198D01*
X12234729Y-8252198D02*
X12225206Y-8261722D01*
X12225206Y-8261722D02*
X12215682Y-8280769D01*
X12444253Y-8252198D02*
X12425206Y-8242674D01*
X12425206Y-8242674D02*
X12415682Y-8233150D01*
X12415682Y-8233150D02*
X12406158Y-8214103D01*
X12406158Y-8214103D02*
X12406158Y-8204579D01*
X12406158Y-8204579D02*
X12415682Y-8185531D01*
X12415682Y-8185531D02*
X12425206Y-8176008D01*
X12425206Y-8176008D02*
X12444253Y-8166484D01*
X12444253Y-8166484D02*
X12482348Y-8166484D01*
X12482348Y-8166484D02*
X12501396Y-8176008D01*
X12501396Y-8176008D02*
X12510920Y-8185531D01*
X12510920Y-8185531D02*
X12520444Y-8204579D01*
X12520444Y-8204579D02*
X12520444Y-8214103D01*
X12520444Y-8214103D02*
X12510920Y-8233150D01*
X12510920Y-8233150D02*
X12501396Y-8242674D01*
X12501396Y-8242674D02*
X12482348Y-8252198D01*
X12482348Y-8252198D02*
X12444253Y-8252198D01*
X12444253Y-8252198D02*
X12425206Y-8261722D01*
X12425206Y-8261722D02*
X12415682Y-8271246D01*
X12415682Y-8271246D02*
X12406158Y-8290293D01*
X12406158Y-8290293D02*
X12406158Y-8328388D01*
X12406158Y-8328388D02*
X12415682Y-8347436D01*
X12415682Y-8347436D02*
X12425206Y-8356960D01*
X12425206Y-8356960D02*
X12444253Y-8366484D01*
X12444253Y-8366484D02*
X12482348Y-8366484D01*
X12482348Y-8366484D02*
X12501396Y-8356960D01*
X12501396Y-8356960D02*
X12510920Y-8347436D01*
X12510920Y-8347436D02*
X12520444Y-8328388D01*
X12520444Y-8328388D02*
X12520444Y-8290293D01*
X12520444Y-8290293D02*
X12510920Y-8271246D01*
X12510920Y-8271246D02*
X12501396Y-8261722D01*
X12501396Y-8261722D02*
X12482348Y-8252198D01*
X12596634Y-8166484D02*
X12596634Y-8204579D01*
X12672825Y-8166484D02*
X12672825Y-8204579D01*
X12968063Y-8442674D02*
X12958539Y-8433150D01*
X12958539Y-8433150D02*
X12939491Y-8404579D01*
X12939491Y-8404579D02*
X12929968Y-8385531D01*
X12929968Y-8385531D02*
X12920444Y-8356960D01*
X12920444Y-8356960D02*
X12910920Y-8309341D01*
X12910920Y-8309341D02*
X12910920Y-8271246D01*
X12910920Y-8271246D02*
X12920444Y-8223627D01*
X12920444Y-8223627D02*
X12929968Y-8195055D01*
X12929968Y-8195055D02*
X12939491Y-8176008D01*
X12939491Y-8176008D02*
X12958539Y-8147436D01*
X12958539Y-8147436D02*
X12968063Y-8137912D01*
X13129968Y-8166484D02*
X13091872Y-8166484D01*
X13091872Y-8166484D02*
X13072825Y-8176008D01*
X13072825Y-8176008D02*
X13063301Y-8185531D01*
X13063301Y-8185531D02*
X13044253Y-8214103D01*
X13044253Y-8214103D02*
X13034729Y-8252198D01*
X13034729Y-8252198D02*
X13034729Y-8328388D01*
X13034729Y-8328388D02*
X13044253Y-8347436D01*
X13044253Y-8347436D02*
X13053777Y-8356960D01*
X13053777Y-8356960D02*
X13072825Y-8366484D01*
X13072825Y-8366484D02*
X13110920Y-8366484D01*
X13110920Y-8366484D02*
X13129968Y-8356960D01*
X13129968Y-8356960D02*
X13139491Y-8347436D01*
X13139491Y-8347436D02*
X13149015Y-8328388D01*
X13149015Y-8328388D02*
X13149015Y-8280769D01*
X13149015Y-8280769D02*
X13139491Y-8261722D01*
X13139491Y-8261722D02*
X13129968Y-8252198D01*
X13129968Y-8252198D02*
X13110920Y-8242674D01*
X13110920Y-8242674D02*
X13072825Y-8242674D01*
X13072825Y-8242674D02*
X13053777Y-8252198D01*
X13053777Y-8252198D02*
X13044253Y-8261722D01*
X13044253Y-8261722D02*
X13034729Y-8280769D01*
X13387110Y-8366484D02*
X13387110Y-8166484D01*
X13472825Y-8366484D02*
X13472825Y-8261722D01*
X13472825Y-8261722D02*
X13463301Y-8242674D01*
X13463301Y-8242674D02*
X13444253Y-8233150D01*
X13444253Y-8233150D02*
X13415682Y-8233150D01*
X13415682Y-8233150D02*
X13396634Y-8242674D01*
X13396634Y-8242674D02*
X13387110Y-8252198D01*
X13596634Y-8366484D02*
X13577587Y-8356960D01*
X13577587Y-8356960D02*
X13568063Y-8347436D01*
X13568063Y-8347436D02*
X13558539Y-8328388D01*
X13558539Y-8328388D02*
X13558539Y-8271246D01*
X13558539Y-8271246D02*
X13568063Y-8252198D01*
X13568063Y-8252198D02*
X13577587Y-8242674D01*
X13577587Y-8242674D02*
X13596634Y-8233150D01*
X13596634Y-8233150D02*
X13625206Y-8233150D01*
X13625206Y-8233150D02*
X13644253Y-8242674D01*
X13644253Y-8242674D02*
X13653777Y-8252198D01*
X13653777Y-8252198D02*
X13663301Y-8271246D01*
X13663301Y-8271246D02*
X13663301Y-8328388D01*
X13663301Y-8328388D02*
X13653777Y-8347436D01*
X13653777Y-8347436D02*
X13644253Y-8356960D01*
X13644253Y-8356960D02*
X13625206Y-8366484D01*
X13625206Y-8366484D02*
X13596634Y-8366484D01*
X13777587Y-8366484D02*
X13758539Y-8356960D01*
X13758539Y-8356960D02*
X13749015Y-8337912D01*
X13749015Y-8337912D02*
X13749015Y-8166484D01*
X13929968Y-8356960D02*
X13910920Y-8366484D01*
X13910920Y-8366484D02*
X13872825Y-8366484D01*
X13872825Y-8366484D02*
X13853777Y-8356960D01*
X13853777Y-8356960D02*
X13844253Y-8337912D01*
X13844253Y-8337912D02*
X13844253Y-8261722D01*
X13844253Y-8261722D02*
X13853777Y-8242674D01*
X13853777Y-8242674D02*
X13872825Y-8233150D01*
X13872825Y-8233150D02*
X13910920Y-8233150D01*
X13910920Y-8233150D02*
X13929968Y-8242674D01*
X13929968Y-8242674D02*
X13939491Y-8261722D01*
X13939491Y-8261722D02*
X13939491Y-8280769D01*
X13939491Y-8280769D02*
X13844253Y-8299817D01*
X14015682Y-8356960D02*
X14034730Y-8366484D01*
X14034730Y-8366484D02*
X14072825Y-8366484D01*
X14072825Y-8366484D02*
X14091872Y-8356960D01*
X14091872Y-8356960D02*
X14101396Y-8337912D01*
X14101396Y-8337912D02*
X14101396Y-8328388D01*
X14101396Y-8328388D02*
X14091872Y-8309341D01*
X14091872Y-8309341D02*
X14072825Y-8299817D01*
X14072825Y-8299817D02*
X14044253Y-8299817D01*
X14044253Y-8299817D02*
X14025206Y-8290293D01*
X14025206Y-8290293D02*
X14015682Y-8271246D01*
X14015682Y-8271246D02*
X14015682Y-8261722D01*
X14015682Y-8261722D02*
X14025206Y-8242674D01*
X14025206Y-8242674D02*
X14044253Y-8233150D01*
X14044253Y-8233150D02*
X14072825Y-8233150D01*
X14072825Y-8233150D02*
X14091872Y-8242674D01*
X14168063Y-8442674D02*
X14177587Y-8433150D01*
X14177587Y-8433150D02*
X14196634Y-8404579D01*
X14196634Y-8404579D02*
X14206158Y-8385531D01*
X14206158Y-8385531D02*
X14215682Y-8356960D01*
X14215682Y-8356960D02*
X14225206Y-8309341D01*
X14225206Y-8309341D02*
X14225206Y-8271246D01*
X14225206Y-8271246D02*
X14215682Y-8223627D01*
X14215682Y-8223627D02*
X14206158Y-8195055D01*
X14206158Y-8195055D02*
X14196634Y-8176008D01*
X14196634Y-8176008D02*
X14177587Y-8147436D01*
X14177587Y-8147436D02*
X14168063Y-8137912D01*
D10*
X9345500Y-8491500D02*
X9345500Y-8586500D01*
X9298000Y-8539000D02*
X9393000Y-8539000D01*
D12*
X9691872Y-8430484D02*
X9710920Y-8430484D01*
X9710920Y-8430484D02*
X9729967Y-8440008D01*
X9729967Y-8440008D02*
X9739491Y-8449531D01*
X9739491Y-8449531D02*
X9749015Y-8468579D01*
X9749015Y-8468579D02*
X9758539Y-8506674D01*
X9758539Y-8506674D02*
X9758539Y-8554293D01*
X9758539Y-8554293D02*
X9749015Y-8592389D01*
X9749015Y-8592389D02*
X9739491Y-8611436D01*
X9739491Y-8611436D02*
X9729967Y-8620960D01*
X9729967Y-8620960D02*
X9710920Y-8630484D01*
X9710920Y-8630484D02*
X9691872Y-8630484D01*
X9691872Y-8630484D02*
X9672824Y-8620960D01*
X9672824Y-8620960D02*
X9663301Y-8611436D01*
X9663301Y-8611436D02*
X9653777Y-8592389D01*
X9653777Y-8592389D02*
X9644253Y-8554293D01*
X9644253Y-8554293D02*
X9644253Y-8506674D01*
X9644253Y-8506674D02*
X9653777Y-8468579D01*
X9653777Y-8468579D02*
X9663301Y-8449531D01*
X9663301Y-8449531D02*
X9672824Y-8440008D01*
X9672824Y-8440008D02*
X9691872Y-8430484D01*
X9844253Y-8611436D02*
X9853777Y-8620960D01*
X9853777Y-8620960D02*
X9844253Y-8630484D01*
X9844253Y-8630484D02*
X9834729Y-8620960D01*
X9834729Y-8620960D02*
X9844253Y-8611436D01*
X9844253Y-8611436D02*
X9844253Y-8630484D01*
X9949015Y-8630484D02*
X9987110Y-8630484D01*
X9987110Y-8630484D02*
X10006158Y-8620960D01*
X10006158Y-8620960D02*
X10015682Y-8611436D01*
X10015682Y-8611436D02*
X10034729Y-8582865D01*
X10034729Y-8582865D02*
X10044253Y-8544770D01*
X10044253Y-8544770D02*
X10044253Y-8468579D01*
X10044253Y-8468579D02*
X10034729Y-8449531D01*
X10034729Y-8449531D02*
X10025205Y-8440008D01*
X10025205Y-8440008D02*
X10006158Y-8430484D01*
X10006158Y-8430484D02*
X9968063Y-8430484D01*
X9968063Y-8430484D02*
X9949015Y-8440008D01*
X9949015Y-8440008D02*
X9939491Y-8449531D01*
X9939491Y-8449531D02*
X9929967Y-8468579D01*
X9929967Y-8468579D02*
X9929967Y-8516198D01*
X9929967Y-8516198D02*
X9939491Y-8535246D01*
X9939491Y-8535246D02*
X9949015Y-8544770D01*
X9949015Y-8544770D02*
X9968063Y-8554293D01*
X9968063Y-8554293D02*
X10006158Y-8554293D01*
X10006158Y-8554293D02*
X10025205Y-8544770D01*
X10025205Y-8544770D02*
X10034729Y-8535246D01*
X10034729Y-8535246D02*
X10044253Y-8516198D01*
X10225205Y-8430484D02*
X10129967Y-8430484D01*
X10129967Y-8430484D02*
X10120444Y-8525722D01*
X10120444Y-8525722D02*
X10129967Y-8516198D01*
X10129967Y-8516198D02*
X10149015Y-8506674D01*
X10149015Y-8506674D02*
X10196634Y-8506674D01*
X10196634Y-8506674D02*
X10215682Y-8516198D01*
X10215682Y-8516198D02*
X10225205Y-8525722D01*
X10225205Y-8525722D02*
X10234729Y-8544770D01*
X10234729Y-8544770D02*
X10234729Y-8592389D01*
X10234729Y-8592389D02*
X10225205Y-8611436D01*
X10225205Y-8611436D02*
X10215682Y-8620960D01*
X10215682Y-8620960D02*
X10196634Y-8630484D01*
X10196634Y-8630484D02*
X10149015Y-8630484D01*
X10149015Y-8630484D02*
X10129967Y-8620960D01*
X10129967Y-8620960D02*
X10120444Y-8611436D01*
X10358539Y-8430484D02*
X10377586Y-8430484D01*
X10377586Y-8430484D02*
X10396634Y-8440008D01*
X10396634Y-8440008D02*
X10406158Y-8449531D01*
X10406158Y-8449531D02*
X10415682Y-8468579D01*
X10415682Y-8468579D02*
X10425205Y-8506674D01*
X10425205Y-8506674D02*
X10425205Y-8554293D01*
X10425205Y-8554293D02*
X10415682Y-8592389D01*
X10415682Y-8592389D02*
X10406158Y-8611436D01*
X10406158Y-8611436D02*
X10396634Y-8620960D01*
X10396634Y-8620960D02*
X10377586Y-8630484D01*
X10377586Y-8630484D02*
X10358539Y-8630484D01*
X10358539Y-8630484D02*
X10339491Y-8620960D01*
X10339491Y-8620960D02*
X10329967Y-8611436D01*
X10329967Y-8611436D02*
X10320444Y-8592389D01*
X10320444Y-8592389D02*
X10310920Y-8554293D01*
X10310920Y-8554293D02*
X10310920Y-8506674D01*
X10310920Y-8506674D02*
X10320444Y-8468579D01*
X10320444Y-8468579D02*
X10329967Y-8449531D01*
X10329967Y-8449531D02*
X10339491Y-8440008D01*
X10339491Y-8440008D02*
X10358539Y-8430484D01*
X10510920Y-8630484D02*
X10510920Y-8497150D01*
X10510920Y-8516198D02*
X10520444Y-8506674D01*
X10520444Y-8506674D02*
X10539491Y-8497150D01*
X10539491Y-8497150D02*
X10568063Y-8497150D01*
X10568063Y-8497150D02*
X10587110Y-8506674D01*
X10587110Y-8506674D02*
X10596634Y-8525722D01*
X10596634Y-8525722D02*
X10596634Y-8630484D01*
X10596634Y-8525722D02*
X10606158Y-8506674D01*
X10606158Y-8506674D02*
X10625205Y-8497150D01*
X10625205Y-8497150D02*
X10653777Y-8497150D01*
X10653777Y-8497150D02*
X10672825Y-8506674D01*
X10672825Y-8506674D02*
X10682348Y-8525722D01*
X10682348Y-8525722D02*
X10682348Y-8630484D01*
X10777586Y-8630484D02*
X10777586Y-8497150D01*
X10777586Y-8516198D02*
X10787110Y-8506674D01*
X10787110Y-8506674D02*
X10806158Y-8497150D01*
X10806158Y-8497150D02*
X10834729Y-8497150D01*
X10834729Y-8497150D02*
X10853777Y-8506674D01*
X10853777Y-8506674D02*
X10863301Y-8525722D01*
X10863301Y-8525722D02*
X10863301Y-8630484D01*
X10863301Y-8525722D02*
X10872825Y-8506674D01*
X10872825Y-8506674D02*
X10891872Y-8497150D01*
X10891872Y-8497150D02*
X10920444Y-8497150D01*
X10920444Y-8497150D02*
X10939491Y-8506674D01*
X10939491Y-8506674D02*
X10949015Y-8525722D01*
X10949015Y-8525722D02*
X10949015Y-8630484D01*
X11339491Y-8420960D02*
X11168063Y-8678103D01*
X11596634Y-8430484D02*
X11615682Y-8430484D01*
X11615682Y-8430484D02*
X11634729Y-8440008D01*
X11634729Y-8440008D02*
X11644253Y-8449531D01*
X11644253Y-8449531D02*
X11653777Y-8468579D01*
X11653777Y-8468579D02*
X11663301Y-8506674D01*
X11663301Y-8506674D02*
X11663301Y-8554293D01*
X11663301Y-8554293D02*
X11653777Y-8592389D01*
X11653777Y-8592389D02*
X11644253Y-8611436D01*
X11644253Y-8611436D02*
X11634729Y-8620960D01*
X11634729Y-8620960D02*
X11615682Y-8630484D01*
X11615682Y-8630484D02*
X11596634Y-8630484D01*
X11596634Y-8630484D02*
X11577586Y-8620960D01*
X11577586Y-8620960D02*
X11568063Y-8611436D01*
X11568063Y-8611436D02*
X11558539Y-8592389D01*
X11558539Y-8592389D02*
X11549015Y-8554293D01*
X11549015Y-8554293D02*
X11549015Y-8506674D01*
X11549015Y-8506674D02*
X11558539Y-8468579D01*
X11558539Y-8468579D02*
X11568063Y-8449531D01*
X11568063Y-8449531D02*
X11577586Y-8440008D01*
X11577586Y-8440008D02*
X11596634Y-8430484D01*
X11749015Y-8611436D02*
X11758539Y-8620960D01*
X11758539Y-8620960D02*
X11749015Y-8630484D01*
X11749015Y-8630484D02*
X11739491Y-8620960D01*
X11739491Y-8620960D02*
X11749015Y-8611436D01*
X11749015Y-8611436D02*
X11749015Y-8630484D01*
X11882348Y-8430484D02*
X11901396Y-8430484D01*
X11901396Y-8430484D02*
X11920444Y-8440008D01*
X11920444Y-8440008D02*
X11929967Y-8449531D01*
X11929967Y-8449531D02*
X11939491Y-8468579D01*
X11939491Y-8468579D02*
X11949015Y-8506674D01*
X11949015Y-8506674D02*
X11949015Y-8554293D01*
X11949015Y-8554293D02*
X11939491Y-8592389D01*
X11939491Y-8592389D02*
X11929967Y-8611436D01*
X11929967Y-8611436D02*
X11920444Y-8620960D01*
X11920444Y-8620960D02*
X11901396Y-8630484D01*
X11901396Y-8630484D02*
X11882348Y-8630484D01*
X11882348Y-8630484D02*
X11863301Y-8620960D01*
X11863301Y-8620960D02*
X11853777Y-8611436D01*
X11853777Y-8611436D02*
X11844253Y-8592389D01*
X11844253Y-8592389D02*
X11834729Y-8554293D01*
X11834729Y-8554293D02*
X11834729Y-8506674D01*
X11834729Y-8506674D02*
X11844253Y-8468579D01*
X11844253Y-8468579D02*
X11853777Y-8449531D01*
X11853777Y-8449531D02*
X11863301Y-8440008D01*
X11863301Y-8440008D02*
X11882348Y-8430484D01*
X12015682Y-8430484D02*
X12139491Y-8430484D01*
X12139491Y-8430484D02*
X12072825Y-8506674D01*
X12072825Y-8506674D02*
X12101396Y-8506674D01*
X12101396Y-8506674D02*
X12120444Y-8516198D01*
X12120444Y-8516198D02*
X12129967Y-8525722D01*
X12129967Y-8525722D02*
X12139491Y-8544770D01*
X12139491Y-8544770D02*
X12139491Y-8592389D01*
X12139491Y-8592389D02*
X12129967Y-8611436D01*
X12129967Y-8611436D02*
X12120444Y-8620960D01*
X12120444Y-8620960D02*
X12101396Y-8630484D01*
X12101396Y-8630484D02*
X12044253Y-8630484D01*
X12044253Y-8630484D02*
X12025206Y-8620960D01*
X12025206Y-8620960D02*
X12015682Y-8611436D01*
X12206158Y-8430484D02*
X12339491Y-8430484D01*
X12339491Y-8430484D02*
X12253777Y-8630484D01*
X12501396Y-8497150D02*
X12501396Y-8630484D01*
X12453777Y-8420960D02*
X12406158Y-8563817D01*
X12406158Y-8563817D02*
X12529967Y-8563817D01*
X12596634Y-8430484D02*
X12596634Y-8468579D01*
X12672825Y-8430484D02*
X12672825Y-8468579D01*
X12968063Y-8706674D02*
X12958539Y-8697150D01*
X12958539Y-8697150D02*
X12939491Y-8668579D01*
X12939491Y-8668579D02*
X12929968Y-8649531D01*
X12929968Y-8649531D02*
X12920444Y-8620960D01*
X12920444Y-8620960D02*
X12910920Y-8573341D01*
X12910920Y-8573341D02*
X12910920Y-8535246D01*
X12910920Y-8535246D02*
X12920444Y-8487627D01*
X12920444Y-8487627D02*
X12929968Y-8459055D01*
X12929968Y-8459055D02*
X12939491Y-8440008D01*
X12939491Y-8440008D02*
X12958539Y-8411436D01*
X12958539Y-8411436D02*
X12968063Y-8401912D01*
X13072825Y-8516198D02*
X13053777Y-8506674D01*
X13053777Y-8506674D02*
X13044253Y-8497150D01*
X13044253Y-8497150D02*
X13034729Y-8478103D01*
X13034729Y-8478103D02*
X13034729Y-8468579D01*
X13034729Y-8468579D02*
X13044253Y-8449531D01*
X13044253Y-8449531D02*
X13053777Y-8440008D01*
X13053777Y-8440008D02*
X13072825Y-8430484D01*
X13072825Y-8430484D02*
X13110920Y-8430484D01*
X13110920Y-8430484D02*
X13129968Y-8440008D01*
X13129968Y-8440008D02*
X13139491Y-8449531D01*
X13139491Y-8449531D02*
X13149015Y-8468579D01*
X13149015Y-8468579D02*
X13149015Y-8478103D01*
X13149015Y-8478103D02*
X13139491Y-8497150D01*
X13139491Y-8497150D02*
X13129968Y-8506674D01*
X13129968Y-8506674D02*
X13110920Y-8516198D01*
X13110920Y-8516198D02*
X13072825Y-8516198D01*
X13072825Y-8516198D02*
X13053777Y-8525722D01*
X13053777Y-8525722D02*
X13044253Y-8535246D01*
X13044253Y-8535246D02*
X13034729Y-8554293D01*
X13034729Y-8554293D02*
X13034729Y-8592389D01*
X13034729Y-8592389D02*
X13044253Y-8611436D01*
X13044253Y-8611436D02*
X13053777Y-8620960D01*
X13053777Y-8620960D02*
X13072825Y-8630484D01*
X13072825Y-8630484D02*
X13110920Y-8630484D01*
X13110920Y-8630484D02*
X13129968Y-8620960D01*
X13129968Y-8620960D02*
X13139491Y-8611436D01*
X13139491Y-8611436D02*
X13149015Y-8592389D01*
X13149015Y-8592389D02*
X13149015Y-8554293D01*
X13149015Y-8554293D02*
X13139491Y-8535246D01*
X13139491Y-8535246D02*
X13129968Y-8525722D01*
X13129968Y-8525722D02*
X13110920Y-8516198D01*
X13387110Y-8630484D02*
X13387110Y-8430484D01*
X13472825Y-8630484D02*
X13472825Y-8525722D01*
X13472825Y-8525722D02*
X13463301Y-8506674D01*
X13463301Y-8506674D02*
X13444253Y-8497150D01*
X13444253Y-8497150D02*
X13415682Y-8497150D01*
X13415682Y-8497150D02*
X13396634Y-8506674D01*
X13396634Y-8506674D02*
X13387110Y-8516198D01*
X13596634Y-8630484D02*
X13577587Y-8620960D01*
X13577587Y-8620960D02*
X13568063Y-8611436D01*
X13568063Y-8611436D02*
X13558539Y-8592389D01*
X13558539Y-8592389D02*
X13558539Y-8535246D01*
X13558539Y-8535246D02*
X13568063Y-8516198D01*
X13568063Y-8516198D02*
X13577587Y-8506674D01*
X13577587Y-8506674D02*
X13596634Y-8497150D01*
X13596634Y-8497150D02*
X13625206Y-8497150D01*
X13625206Y-8497150D02*
X13644253Y-8506674D01*
X13644253Y-8506674D02*
X13653777Y-8516198D01*
X13653777Y-8516198D02*
X13663301Y-8535246D01*
X13663301Y-8535246D02*
X13663301Y-8592389D01*
X13663301Y-8592389D02*
X13653777Y-8611436D01*
X13653777Y-8611436D02*
X13644253Y-8620960D01*
X13644253Y-8620960D02*
X13625206Y-8630484D01*
X13625206Y-8630484D02*
X13596634Y-8630484D01*
X13777587Y-8630484D02*
X13758539Y-8620960D01*
X13758539Y-8620960D02*
X13749015Y-8601912D01*
X13749015Y-8601912D02*
X13749015Y-8430484D01*
X13929968Y-8620960D02*
X13910920Y-8630484D01*
X13910920Y-8630484D02*
X13872825Y-8630484D01*
X13872825Y-8630484D02*
X13853777Y-8620960D01*
X13853777Y-8620960D02*
X13844253Y-8601912D01*
X13844253Y-8601912D02*
X13844253Y-8525722D01*
X13844253Y-8525722D02*
X13853777Y-8506674D01*
X13853777Y-8506674D02*
X13872825Y-8497150D01*
X13872825Y-8497150D02*
X13910920Y-8497150D01*
X13910920Y-8497150D02*
X13929968Y-8506674D01*
X13929968Y-8506674D02*
X13939491Y-8525722D01*
X13939491Y-8525722D02*
X13939491Y-8544770D01*
X13939491Y-8544770D02*
X13844253Y-8563817D01*
X14015682Y-8620960D02*
X14034730Y-8630484D01*
X14034730Y-8630484D02*
X14072825Y-8630484D01*
X14072825Y-8630484D02*
X14091872Y-8620960D01*
X14091872Y-8620960D02*
X14101396Y-8601912D01*
X14101396Y-8601912D02*
X14101396Y-8592389D01*
X14101396Y-8592389D02*
X14091872Y-8573341D01*
X14091872Y-8573341D02*
X14072825Y-8563817D01*
X14072825Y-8563817D02*
X14044253Y-8563817D01*
X14044253Y-8563817D02*
X14025206Y-8554293D01*
X14025206Y-8554293D02*
X14015682Y-8535246D01*
X14015682Y-8535246D02*
X14015682Y-8525722D01*
X14015682Y-8525722D02*
X14025206Y-8506674D01*
X14025206Y-8506674D02*
X14044253Y-8497150D01*
X14044253Y-8497150D02*
X14072825Y-8497150D01*
X14072825Y-8497150D02*
X14091872Y-8506674D01*
X14168063Y-8706674D02*
X14177587Y-8697150D01*
X14177587Y-8697150D02*
X14196634Y-8668579D01*
X14196634Y-8668579D02*
X14206158Y-8649531D01*
X14206158Y-8649531D02*
X14215682Y-8620960D01*
X14215682Y-8620960D02*
X14225206Y-8573341D01*
X14225206Y-8573341D02*
X14225206Y-8535246D01*
X14225206Y-8535246D02*
X14215682Y-8487627D01*
X14215682Y-8487627D02*
X14206158Y-8459055D01*
X14206158Y-8459055D02*
X14196634Y-8440008D01*
X14196634Y-8440008D02*
X14177587Y-8411436D01*
X14177587Y-8411436D02*
X14168063Y-8401912D01*
D10*
X9378356Y-8838356D02*
X9378356Y-8767644D01*
X9307644Y-8767644D01*
X9307644Y-8838356D01*
X9378356Y-8838356D01*
D12*
X9758539Y-8894484D02*
X9644253Y-8894484D01*
X9701396Y-8894484D02*
X9701396Y-8694484D01*
X9701396Y-8694484D02*
X9682348Y-8723055D01*
X9682348Y-8723055D02*
X9663301Y-8742103D01*
X9663301Y-8742103D02*
X9644253Y-8751627D01*
X9844253Y-8875436D02*
X9853777Y-8884960D01*
X9853777Y-8884960D02*
X9844253Y-8894484D01*
X9844253Y-8894484D02*
X9834729Y-8884960D01*
X9834729Y-8884960D02*
X9844253Y-8875436D01*
X9844253Y-8875436D02*
X9844253Y-8894484D01*
X9977586Y-8694484D02*
X9996634Y-8694484D01*
X9996634Y-8694484D02*
X10015682Y-8704008D01*
X10015682Y-8704008D02*
X10025205Y-8713531D01*
X10025205Y-8713531D02*
X10034729Y-8732579D01*
X10034729Y-8732579D02*
X10044253Y-8770674D01*
X10044253Y-8770674D02*
X10044253Y-8818293D01*
X10044253Y-8818293D02*
X10034729Y-8856389D01*
X10034729Y-8856389D02*
X10025205Y-8875436D01*
X10025205Y-8875436D02*
X10015682Y-8884960D01*
X10015682Y-8884960D02*
X9996634Y-8894484D01*
X9996634Y-8894484D02*
X9977586Y-8894484D01*
X9977586Y-8894484D02*
X9958539Y-8884960D01*
X9958539Y-8884960D02*
X9949015Y-8875436D01*
X9949015Y-8875436D02*
X9939491Y-8856389D01*
X9939491Y-8856389D02*
X9929967Y-8818293D01*
X9929967Y-8818293D02*
X9929967Y-8770674D01*
X9929967Y-8770674D02*
X9939491Y-8732579D01*
X9939491Y-8732579D02*
X9949015Y-8713531D01*
X9949015Y-8713531D02*
X9958539Y-8704008D01*
X9958539Y-8704008D02*
X9977586Y-8694484D01*
X10168063Y-8694484D02*
X10187110Y-8694484D01*
X10187110Y-8694484D02*
X10206158Y-8704008D01*
X10206158Y-8704008D02*
X10215682Y-8713531D01*
X10215682Y-8713531D02*
X10225205Y-8732579D01*
X10225205Y-8732579D02*
X10234729Y-8770674D01*
X10234729Y-8770674D02*
X10234729Y-8818293D01*
X10234729Y-8818293D02*
X10225205Y-8856389D01*
X10225205Y-8856389D02*
X10215682Y-8875436D01*
X10215682Y-8875436D02*
X10206158Y-8884960D01*
X10206158Y-8884960D02*
X10187110Y-8894484D01*
X10187110Y-8894484D02*
X10168063Y-8894484D01*
X10168063Y-8894484D02*
X10149015Y-8884960D01*
X10149015Y-8884960D02*
X10139491Y-8875436D01*
X10139491Y-8875436D02*
X10129967Y-8856389D01*
X10129967Y-8856389D02*
X10120444Y-8818293D01*
X10120444Y-8818293D02*
X10120444Y-8770674D01*
X10120444Y-8770674D02*
X10129967Y-8732579D01*
X10129967Y-8732579D02*
X10139491Y-8713531D01*
X10139491Y-8713531D02*
X10149015Y-8704008D01*
X10149015Y-8704008D02*
X10168063Y-8694484D01*
X10358539Y-8694484D02*
X10377586Y-8694484D01*
X10377586Y-8694484D02*
X10396634Y-8704008D01*
X10396634Y-8704008D02*
X10406158Y-8713531D01*
X10406158Y-8713531D02*
X10415682Y-8732579D01*
X10415682Y-8732579D02*
X10425205Y-8770674D01*
X10425205Y-8770674D02*
X10425205Y-8818293D01*
X10425205Y-8818293D02*
X10415682Y-8856389D01*
X10415682Y-8856389D02*
X10406158Y-8875436D01*
X10406158Y-8875436D02*
X10396634Y-8884960D01*
X10396634Y-8884960D02*
X10377586Y-8894484D01*
X10377586Y-8894484D02*
X10358539Y-8894484D01*
X10358539Y-8894484D02*
X10339491Y-8884960D01*
X10339491Y-8884960D02*
X10329967Y-8875436D01*
X10329967Y-8875436D02*
X10320444Y-8856389D01*
X10320444Y-8856389D02*
X10310920Y-8818293D01*
X10310920Y-8818293D02*
X10310920Y-8770674D01*
X10310920Y-8770674D02*
X10320444Y-8732579D01*
X10320444Y-8732579D02*
X10329967Y-8713531D01*
X10329967Y-8713531D02*
X10339491Y-8704008D01*
X10339491Y-8704008D02*
X10358539Y-8694484D01*
X10510920Y-8894484D02*
X10510920Y-8761150D01*
X10510920Y-8780198D02*
X10520444Y-8770674D01*
X10520444Y-8770674D02*
X10539491Y-8761150D01*
X10539491Y-8761150D02*
X10568063Y-8761150D01*
X10568063Y-8761150D02*
X10587110Y-8770674D01*
X10587110Y-8770674D02*
X10596634Y-8789722D01*
X10596634Y-8789722D02*
X10596634Y-8894484D01*
X10596634Y-8789722D02*
X10606158Y-8770674D01*
X10606158Y-8770674D02*
X10625205Y-8761150D01*
X10625205Y-8761150D02*
X10653777Y-8761150D01*
X10653777Y-8761150D02*
X10672825Y-8770674D01*
X10672825Y-8770674D02*
X10682348Y-8789722D01*
X10682348Y-8789722D02*
X10682348Y-8894484D01*
X10777586Y-8894484D02*
X10777586Y-8761150D01*
X10777586Y-8780198D02*
X10787110Y-8770674D01*
X10787110Y-8770674D02*
X10806158Y-8761150D01*
X10806158Y-8761150D02*
X10834729Y-8761150D01*
X10834729Y-8761150D02*
X10853777Y-8770674D01*
X10853777Y-8770674D02*
X10863301Y-8789722D01*
X10863301Y-8789722D02*
X10863301Y-8894484D01*
X10863301Y-8789722D02*
X10872825Y-8770674D01*
X10872825Y-8770674D02*
X10891872Y-8761150D01*
X10891872Y-8761150D02*
X10920444Y-8761150D01*
X10920444Y-8761150D02*
X10939491Y-8770674D01*
X10939491Y-8770674D02*
X10949015Y-8789722D01*
X10949015Y-8789722D02*
X10949015Y-8894484D01*
X11339491Y-8684960D02*
X11168063Y-8942103D01*
X11596634Y-8694484D02*
X11615682Y-8694484D01*
X11615682Y-8694484D02*
X11634729Y-8704008D01*
X11634729Y-8704008D02*
X11644253Y-8713531D01*
X11644253Y-8713531D02*
X11653777Y-8732579D01*
X11653777Y-8732579D02*
X11663301Y-8770674D01*
X11663301Y-8770674D02*
X11663301Y-8818293D01*
X11663301Y-8818293D02*
X11653777Y-8856389D01*
X11653777Y-8856389D02*
X11644253Y-8875436D01*
X11644253Y-8875436D02*
X11634729Y-8884960D01*
X11634729Y-8884960D02*
X11615682Y-8894484D01*
X11615682Y-8894484D02*
X11596634Y-8894484D01*
X11596634Y-8894484D02*
X11577586Y-8884960D01*
X11577586Y-8884960D02*
X11568063Y-8875436D01*
X11568063Y-8875436D02*
X11558539Y-8856389D01*
X11558539Y-8856389D02*
X11549015Y-8818293D01*
X11549015Y-8818293D02*
X11549015Y-8770674D01*
X11549015Y-8770674D02*
X11558539Y-8732579D01*
X11558539Y-8732579D02*
X11568063Y-8713531D01*
X11568063Y-8713531D02*
X11577586Y-8704008D01*
X11577586Y-8704008D02*
X11596634Y-8694484D01*
X11749015Y-8875436D02*
X11758539Y-8884960D01*
X11758539Y-8884960D02*
X11749015Y-8894484D01*
X11749015Y-8894484D02*
X11739491Y-8884960D01*
X11739491Y-8884960D02*
X11749015Y-8875436D01*
X11749015Y-8875436D02*
X11749015Y-8894484D01*
X11882348Y-8694484D02*
X11901396Y-8694484D01*
X11901396Y-8694484D02*
X11920444Y-8704008D01*
X11920444Y-8704008D02*
X11929967Y-8713531D01*
X11929967Y-8713531D02*
X11939491Y-8732579D01*
X11939491Y-8732579D02*
X11949015Y-8770674D01*
X11949015Y-8770674D02*
X11949015Y-8818293D01*
X11949015Y-8818293D02*
X11939491Y-8856389D01*
X11939491Y-8856389D02*
X11929967Y-8875436D01*
X11929967Y-8875436D02*
X11920444Y-8884960D01*
X11920444Y-8884960D02*
X11901396Y-8894484D01*
X11901396Y-8894484D02*
X11882348Y-8894484D01*
X11882348Y-8894484D02*
X11863301Y-8884960D01*
X11863301Y-8884960D02*
X11853777Y-8875436D01*
X11853777Y-8875436D02*
X11844253Y-8856389D01*
X11844253Y-8856389D02*
X11834729Y-8818293D01*
X11834729Y-8818293D02*
X11834729Y-8770674D01*
X11834729Y-8770674D02*
X11844253Y-8732579D01*
X11844253Y-8732579D02*
X11853777Y-8713531D01*
X11853777Y-8713531D02*
X11863301Y-8704008D01*
X11863301Y-8704008D02*
X11882348Y-8694484D01*
X12015682Y-8694484D02*
X12139491Y-8694484D01*
X12139491Y-8694484D02*
X12072825Y-8770674D01*
X12072825Y-8770674D02*
X12101396Y-8770674D01*
X12101396Y-8770674D02*
X12120444Y-8780198D01*
X12120444Y-8780198D02*
X12129967Y-8789722D01*
X12129967Y-8789722D02*
X12139491Y-8808770D01*
X12139491Y-8808770D02*
X12139491Y-8856389D01*
X12139491Y-8856389D02*
X12129967Y-8875436D01*
X12129967Y-8875436D02*
X12120444Y-8884960D01*
X12120444Y-8884960D02*
X12101396Y-8894484D01*
X12101396Y-8894484D02*
X12044253Y-8894484D01*
X12044253Y-8894484D02*
X12025206Y-8884960D01*
X12025206Y-8884960D02*
X12015682Y-8875436D01*
X12234729Y-8894484D02*
X12272825Y-8894484D01*
X12272825Y-8894484D02*
X12291872Y-8884960D01*
X12291872Y-8884960D02*
X12301396Y-8875436D01*
X12301396Y-8875436D02*
X12320444Y-8846865D01*
X12320444Y-8846865D02*
X12329967Y-8808770D01*
X12329967Y-8808770D02*
X12329967Y-8732579D01*
X12329967Y-8732579D02*
X12320444Y-8713531D01*
X12320444Y-8713531D02*
X12310920Y-8704008D01*
X12310920Y-8704008D02*
X12291872Y-8694484D01*
X12291872Y-8694484D02*
X12253777Y-8694484D01*
X12253777Y-8694484D02*
X12234729Y-8704008D01*
X12234729Y-8704008D02*
X12225206Y-8713531D01*
X12225206Y-8713531D02*
X12215682Y-8732579D01*
X12215682Y-8732579D02*
X12215682Y-8780198D01*
X12215682Y-8780198D02*
X12225206Y-8799246D01*
X12225206Y-8799246D02*
X12234729Y-8808770D01*
X12234729Y-8808770D02*
X12253777Y-8818293D01*
X12253777Y-8818293D02*
X12291872Y-8818293D01*
X12291872Y-8818293D02*
X12310920Y-8808770D01*
X12310920Y-8808770D02*
X12320444Y-8799246D01*
X12320444Y-8799246D02*
X12329967Y-8780198D01*
X12501396Y-8761150D02*
X12501396Y-8894484D01*
X12453777Y-8684960D02*
X12406158Y-8827817D01*
X12406158Y-8827817D02*
X12529967Y-8827817D01*
X12596634Y-8694484D02*
X12596634Y-8732579D01*
X12672825Y-8694484D02*
X12672825Y-8732579D01*
X12968063Y-8970674D02*
X12958539Y-8961150D01*
X12958539Y-8961150D02*
X12939491Y-8932579D01*
X12939491Y-8932579D02*
X12929968Y-8913531D01*
X12929968Y-8913531D02*
X12920444Y-8884960D01*
X12920444Y-8884960D02*
X12910920Y-8837341D01*
X12910920Y-8837341D02*
X12910920Y-8799246D01*
X12910920Y-8799246D02*
X12920444Y-8751627D01*
X12920444Y-8751627D02*
X12929968Y-8723055D01*
X12929968Y-8723055D02*
X12939491Y-8704008D01*
X12939491Y-8704008D02*
X12958539Y-8675436D01*
X12958539Y-8675436D02*
X12968063Y-8665912D01*
X13034729Y-8713531D02*
X13044253Y-8704008D01*
X13044253Y-8704008D02*
X13063301Y-8694484D01*
X13063301Y-8694484D02*
X13110920Y-8694484D01*
X13110920Y-8694484D02*
X13129968Y-8704008D01*
X13129968Y-8704008D02*
X13139491Y-8713531D01*
X13139491Y-8713531D02*
X13149015Y-8732579D01*
X13149015Y-8732579D02*
X13149015Y-8751627D01*
X13149015Y-8751627D02*
X13139491Y-8780198D01*
X13139491Y-8780198D02*
X13025206Y-8894484D01*
X13025206Y-8894484D02*
X13149015Y-8894484D01*
X13387110Y-8894484D02*
X13387110Y-8694484D01*
X13472825Y-8894484D02*
X13472825Y-8789722D01*
X13472825Y-8789722D02*
X13463301Y-8770674D01*
X13463301Y-8770674D02*
X13444253Y-8761150D01*
X13444253Y-8761150D02*
X13415682Y-8761150D01*
X13415682Y-8761150D02*
X13396634Y-8770674D01*
X13396634Y-8770674D02*
X13387110Y-8780198D01*
X13596634Y-8894484D02*
X13577587Y-8884960D01*
X13577587Y-8884960D02*
X13568063Y-8875436D01*
X13568063Y-8875436D02*
X13558539Y-8856389D01*
X13558539Y-8856389D02*
X13558539Y-8799246D01*
X13558539Y-8799246D02*
X13568063Y-8780198D01*
X13568063Y-8780198D02*
X13577587Y-8770674D01*
X13577587Y-8770674D02*
X13596634Y-8761150D01*
X13596634Y-8761150D02*
X13625206Y-8761150D01*
X13625206Y-8761150D02*
X13644253Y-8770674D01*
X13644253Y-8770674D02*
X13653777Y-8780198D01*
X13653777Y-8780198D02*
X13663301Y-8799246D01*
X13663301Y-8799246D02*
X13663301Y-8856389D01*
X13663301Y-8856389D02*
X13653777Y-8875436D01*
X13653777Y-8875436D02*
X13644253Y-8884960D01*
X13644253Y-8884960D02*
X13625206Y-8894484D01*
X13625206Y-8894484D02*
X13596634Y-8894484D01*
X13777587Y-8894484D02*
X13758539Y-8884960D01*
X13758539Y-8884960D02*
X13749015Y-8865912D01*
X13749015Y-8865912D02*
X13749015Y-8694484D01*
X13929968Y-8884960D02*
X13910920Y-8894484D01*
X13910920Y-8894484D02*
X13872825Y-8894484D01*
X13872825Y-8894484D02*
X13853777Y-8884960D01*
X13853777Y-8884960D02*
X13844253Y-8865912D01*
X13844253Y-8865912D02*
X13844253Y-8789722D01*
X13844253Y-8789722D02*
X13853777Y-8770674D01*
X13853777Y-8770674D02*
X13872825Y-8761150D01*
X13872825Y-8761150D02*
X13910920Y-8761150D01*
X13910920Y-8761150D02*
X13929968Y-8770674D01*
X13929968Y-8770674D02*
X13939491Y-8789722D01*
X13939491Y-8789722D02*
X13939491Y-8808770D01*
X13939491Y-8808770D02*
X13844253Y-8827817D01*
X14015682Y-8884960D02*
X14034730Y-8894484D01*
X14034730Y-8894484D02*
X14072825Y-8894484D01*
X14072825Y-8894484D02*
X14091872Y-8884960D01*
X14091872Y-8884960D02*
X14101396Y-8865912D01*
X14101396Y-8865912D02*
X14101396Y-8856389D01*
X14101396Y-8856389D02*
X14091872Y-8837341D01*
X14091872Y-8837341D02*
X14072825Y-8827817D01*
X14072825Y-8827817D02*
X14044253Y-8827817D01*
X14044253Y-8827817D02*
X14025206Y-8818293D01*
X14025206Y-8818293D02*
X14015682Y-8799246D01*
X14015682Y-8799246D02*
X14015682Y-8789722D01*
X14015682Y-8789722D02*
X14025206Y-8770674D01*
X14025206Y-8770674D02*
X14044253Y-8761150D01*
X14044253Y-8761150D02*
X14072825Y-8761150D01*
X14072825Y-8761150D02*
X14091872Y-8770674D01*
X14168063Y-8970674D02*
X14177587Y-8961150D01*
X14177587Y-8961150D02*
X14196634Y-8932579D01*
X14196634Y-8932579D02*
X14206158Y-8913531D01*
X14206158Y-8913531D02*
X14215682Y-8884960D01*
X14215682Y-8884960D02*
X14225206Y-8837341D01*
X14225206Y-8837341D02*
X14225206Y-8799246D01*
X14225206Y-8799246D02*
X14215682Y-8751627D01*
X14215682Y-8751627D02*
X14206158Y-8723055D01*
X14206158Y-8723055D02*
X14196634Y-8704008D01*
X14196634Y-8704008D02*
X14177587Y-8675436D01*
X14177587Y-8675436D02*
X14168063Y-8665912D01*
X9293000Y-9167000D02*
X9393000Y-9067000D01*
X9293000Y-8967000D01*
X9193000Y-9067000D01*
X9293000Y-9167000D01*
X9634729Y-8958484D02*
X9758539Y-8958484D01*
X9758539Y-8958484D02*
X9691872Y-9034674D01*
X9691872Y-9034674D02*
X9720444Y-9034674D01*
X9720444Y-9034674D02*
X9739491Y-9044198D01*
X9739491Y-9044198D02*
X9749015Y-9053722D01*
X9749015Y-9053722D02*
X9758539Y-9072770D01*
X9758539Y-9072770D02*
X9758539Y-9120389D01*
X9758539Y-9120389D02*
X9749015Y-9139436D01*
X9749015Y-9139436D02*
X9739491Y-9148960D01*
X9739491Y-9148960D02*
X9720444Y-9158484D01*
X9720444Y-9158484D02*
X9663301Y-9158484D01*
X9663301Y-9158484D02*
X9644253Y-9148960D01*
X9644253Y-9148960D02*
X9634729Y-9139436D01*
X9844253Y-9139436D02*
X9853777Y-9148960D01*
X9853777Y-9148960D02*
X9844253Y-9158484D01*
X9844253Y-9158484D02*
X9834729Y-9148960D01*
X9834729Y-9148960D02*
X9844253Y-9139436D01*
X9844253Y-9139436D02*
X9844253Y-9158484D01*
X9929967Y-8977531D02*
X9939491Y-8968008D01*
X9939491Y-8968008D02*
X9958539Y-8958484D01*
X9958539Y-8958484D02*
X10006158Y-8958484D01*
X10006158Y-8958484D02*
X10025205Y-8968008D01*
X10025205Y-8968008D02*
X10034729Y-8977531D01*
X10034729Y-8977531D02*
X10044253Y-8996579D01*
X10044253Y-8996579D02*
X10044253Y-9015627D01*
X10044253Y-9015627D02*
X10034729Y-9044198D01*
X10034729Y-9044198D02*
X9920444Y-9158484D01*
X9920444Y-9158484D02*
X10044253Y-9158484D01*
X10168063Y-8958484D02*
X10187110Y-8958484D01*
X10187110Y-8958484D02*
X10206158Y-8968008D01*
X10206158Y-8968008D02*
X10215682Y-8977531D01*
X10215682Y-8977531D02*
X10225205Y-8996579D01*
X10225205Y-8996579D02*
X10234729Y-9034674D01*
X10234729Y-9034674D02*
X10234729Y-9082293D01*
X10234729Y-9082293D02*
X10225205Y-9120389D01*
X10225205Y-9120389D02*
X10215682Y-9139436D01*
X10215682Y-9139436D02*
X10206158Y-9148960D01*
X10206158Y-9148960D02*
X10187110Y-9158484D01*
X10187110Y-9158484D02*
X10168063Y-9158484D01*
X10168063Y-9158484D02*
X10149015Y-9148960D01*
X10149015Y-9148960D02*
X10139491Y-9139436D01*
X10139491Y-9139436D02*
X10129967Y-9120389D01*
X10129967Y-9120389D02*
X10120444Y-9082293D01*
X10120444Y-9082293D02*
X10120444Y-9034674D01*
X10120444Y-9034674D02*
X10129967Y-8996579D01*
X10129967Y-8996579D02*
X10139491Y-8977531D01*
X10139491Y-8977531D02*
X10149015Y-8968008D01*
X10149015Y-8968008D02*
X10168063Y-8958484D01*
X10358539Y-8958484D02*
X10377586Y-8958484D01*
X10377586Y-8958484D02*
X10396634Y-8968008D01*
X10396634Y-8968008D02*
X10406158Y-8977531D01*
X10406158Y-8977531D02*
X10415682Y-8996579D01*
X10415682Y-8996579D02*
X10425205Y-9034674D01*
X10425205Y-9034674D02*
X10425205Y-9082293D01*
X10425205Y-9082293D02*
X10415682Y-9120389D01*
X10415682Y-9120389D02*
X10406158Y-9139436D01*
X10406158Y-9139436D02*
X10396634Y-9148960D01*
X10396634Y-9148960D02*
X10377586Y-9158484D01*
X10377586Y-9158484D02*
X10358539Y-9158484D01*
X10358539Y-9158484D02*
X10339491Y-9148960D01*
X10339491Y-9148960D02*
X10329967Y-9139436D01*
X10329967Y-9139436D02*
X10320444Y-9120389D01*
X10320444Y-9120389D02*
X10310920Y-9082293D01*
X10310920Y-9082293D02*
X10310920Y-9034674D01*
X10310920Y-9034674D02*
X10320444Y-8996579D01*
X10320444Y-8996579D02*
X10329967Y-8977531D01*
X10329967Y-8977531D02*
X10339491Y-8968008D01*
X10339491Y-8968008D02*
X10358539Y-8958484D01*
X10510920Y-9158484D02*
X10510920Y-9025150D01*
X10510920Y-9044198D02*
X10520444Y-9034674D01*
X10520444Y-9034674D02*
X10539491Y-9025150D01*
X10539491Y-9025150D02*
X10568063Y-9025150D01*
X10568063Y-9025150D02*
X10587110Y-9034674D01*
X10587110Y-9034674D02*
X10596634Y-9053722D01*
X10596634Y-9053722D02*
X10596634Y-9158484D01*
X10596634Y-9053722D02*
X10606158Y-9034674D01*
X10606158Y-9034674D02*
X10625205Y-9025150D01*
X10625205Y-9025150D02*
X10653777Y-9025150D01*
X10653777Y-9025150D02*
X10672825Y-9034674D01*
X10672825Y-9034674D02*
X10682348Y-9053722D01*
X10682348Y-9053722D02*
X10682348Y-9158484D01*
X10777586Y-9158484D02*
X10777586Y-9025150D01*
X10777586Y-9044198D02*
X10787110Y-9034674D01*
X10787110Y-9034674D02*
X10806158Y-9025150D01*
X10806158Y-9025150D02*
X10834729Y-9025150D01*
X10834729Y-9025150D02*
X10853777Y-9034674D01*
X10853777Y-9034674D02*
X10863301Y-9053722D01*
X10863301Y-9053722D02*
X10863301Y-9158484D01*
X10863301Y-9053722D02*
X10872825Y-9034674D01*
X10872825Y-9034674D02*
X10891872Y-9025150D01*
X10891872Y-9025150D02*
X10920444Y-9025150D01*
X10920444Y-9025150D02*
X10939491Y-9034674D01*
X10939491Y-9034674D02*
X10949015Y-9053722D01*
X10949015Y-9053722D02*
X10949015Y-9158484D01*
X11339491Y-8948960D02*
X11168063Y-9206103D01*
X11596634Y-8958484D02*
X11615682Y-8958484D01*
X11615682Y-8958484D02*
X11634729Y-8968008D01*
X11634729Y-8968008D02*
X11644253Y-8977531D01*
X11644253Y-8977531D02*
X11653777Y-8996579D01*
X11653777Y-8996579D02*
X11663301Y-9034674D01*
X11663301Y-9034674D02*
X11663301Y-9082293D01*
X11663301Y-9082293D02*
X11653777Y-9120389D01*
X11653777Y-9120389D02*
X11644253Y-9139436D01*
X11644253Y-9139436D02*
X11634729Y-9148960D01*
X11634729Y-9148960D02*
X11615682Y-9158484D01*
X11615682Y-9158484D02*
X11596634Y-9158484D01*
X11596634Y-9158484D02*
X11577586Y-9148960D01*
X11577586Y-9148960D02*
X11568063Y-9139436D01*
X11568063Y-9139436D02*
X11558539Y-9120389D01*
X11558539Y-9120389D02*
X11549015Y-9082293D01*
X11549015Y-9082293D02*
X11549015Y-9034674D01*
X11549015Y-9034674D02*
X11558539Y-8996579D01*
X11558539Y-8996579D02*
X11568063Y-8977531D01*
X11568063Y-8977531D02*
X11577586Y-8968008D01*
X11577586Y-8968008D02*
X11596634Y-8958484D01*
X11749015Y-9139436D02*
X11758539Y-9148960D01*
X11758539Y-9148960D02*
X11749015Y-9158484D01*
X11749015Y-9158484D02*
X11739491Y-9148960D01*
X11739491Y-9148960D02*
X11749015Y-9139436D01*
X11749015Y-9139436D02*
X11749015Y-9158484D01*
X11949015Y-9158484D02*
X11834729Y-9158484D01*
X11891872Y-9158484D02*
X11891872Y-8958484D01*
X11891872Y-8958484D02*
X11872825Y-8987055D01*
X11872825Y-8987055D02*
X11853777Y-9006103D01*
X11853777Y-9006103D02*
X11834729Y-9015627D01*
X12025206Y-8977531D02*
X12034729Y-8968008D01*
X12034729Y-8968008D02*
X12053777Y-8958484D01*
X12053777Y-8958484D02*
X12101396Y-8958484D01*
X12101396Y-8958484D02*
X12120444Y-8968008D01*
X12120444Y-8968008D02*
X12129967Y-8977531D01*
X12129967Y-8977531D02*
X12139491Y-8996579D01*
X12139491Y-8996579D02*
X12139491Y-9015627D01*
X12139491Y-9015627D02*
X12129967Y-9044198D01*
X12129967Y-9044198D02*
X12015682Y-9158484D01*
X12015682Y-9158484D02*
X12139491Y-9158484D01*
X12310920Y-8958484D02*
X12272825Y-8958484D01*
X12272825Y-8958484D02*
X12253777Y-8968008D01*
X12253777Y-8968008D02*
X12244253Y-8977531D01*
X12244253Y-8977531D02*
X12225206Y-9006103D01*
X12225206Y-9006103D02*
X12215682Y-9044198D01*
X12215682Y-9044198D02*
X12215682Y-9120389D01*
X12215682Y-9120389D02*
X12225206Y-9139436D01*
X12225206Y-9139436D02*
X12234729Y-9148960D01*
X12234729Y-9148960D02*
X12253777Y-9158484D01*
X12253777Y-9158484D02*
X12291872Y-9158484D01*
X12291872Y-9158484D02*
X12310920Y-9148960D01*
X12310920Y-9148960D02*
X12320444Y-9139436D01*
X12320444Y-9139436D02*
X12329967Y-9120389D01*
X12329967Y-9120389D02*
X12329967Y-9072770D01*
X12329967Y-9072770D02*
X12320444Y-9053722D01*
X12320444Y-9053722D02*
X12310920Y-9044198D01*
X12310920Y-9044198D02*
X12291872Y-9034674D01*
X12291872Y-9034674D02*
X12253777Y-9034674D01*
X12253777Y-9034674D02*
X12234729Y-9044198D01*
X12234729Y-9044198D02*
X12225206Y-9053722D01*
X12225206Y-9053722D02*
X12215682Y-9072770D01*
X12453777Y-8958484D02*
X12472825Y-8958484D01*
X12472825Y-8958484D02*
X12491872Y-8968008D01*
X12491872Y-8968008D02*
X12501396Y-8977531D01*
X12501396Y-8977531D02*
X12510920Y-8996579D01*
X12510920Y-8996579D02*
X12520444Y-9034674D01*
X12520444Y-9034674D02*
X12520444Y-9082293D01*
X12520444Y-9082293D02*
X12510920Y-9120389D01*
X12510920Y-9120389D02*
X12501396Y-9139436D01*
X12501396Y-9139436D02*
X12491872Y-9148960D01*
X12491872Y-9148960D02*
X12472825Y-9158484D01*
X12472825Y-9158484D02*
X12453777Y-9158484D01*
X12453777Y-9158484D02*
X12434729Y-9148960D01*
X12434729Y-9148960D02*
X12425206Y-9139436D01*
X12425206Y-9139436D02*
X12415682Y-9120389D01*
X12415682Y-9120389D02*
X12406158Y-9082293D01*
X12406158Y-9082293D02*
X12406158Y-9034674D01*
X12406158Y-9034674D02*
X12415682Y-8996579D01*
X12415682Y-8996579D02*
X12425206Y-8977531D01*
X12425206Y-8977531D02*
X12434729Y-8968008D01*
X12434729Y-8968008D02*
X12453777Y-8958484D01*
X12596634Y-8958484D02*
X12596634Y-8996579D01*
X12672825Y-8958484D02*
X12672825Y-8996579D01*
X12968063Y-9234674D02*
X12958539Y-9225150D01*
X12958539Y-9225150D02*
X12939491Y-9196579D01*
X12939491Y-9196579D02*
X12929968Y-9177531D01*
X12929968Y-9177531D02*
X12920444Y-9148960D01*
X12920444Y-9148960D02*
X12910920Y-9101341D01*
X12910920Y-9101341D02*
X12910920Y-9063246D01*
X12910920Y-9063246D02*
X12920444Y-9015627D01*
X12920444Y-9015627D02*
X12929968Y-8987055D01*
X12929968Y-8987055D02*
X12939491Y-8968008D01*
X12939491Y-8968008D02*
X12958539Y-8939436D01*
X12958539Y-8939436D02*
X12968063Y-8929912D01*
X13129968Y-9025150D02*
X13129968Y-9158484D01*
X13082348Y-8948960D02*
X13034729Y-9091817D01*
X13034729Y-9091817D02*
X13158539Y-9091817D01*
X13387110Y-9158484D02*
X13387110Y-8958484D01*
X13472825Y-9158484D02*
X13472825Y-9053722D01*
X13472825Y-9053722D02*
X13463301Y-9034674D01*
X13463301Y-9034674D02*
X13444253Y-9025150D01*
X13444253Y-9025150D02*
X13415682Y-9025150D01*
X13415682Y-9025150D02*
X13396634Y-9034674D01*
X13396634Y-9034674D02*
X13387110Y-9044198D01*
X13596634Y-9158484D02*
X13577587Y-9148960D01*
X13577587Y-9148960D02*
X13568063Y-9139436D01*
X13568063Y-9139436D02*
X13558539Y-9120389D01*
X13558539Y-9120389D02*
X13558539Y-9063246D01*
X13558539Y-9063246D02*
X13568063Y-9044198D01*
X13568063Y-9044198D02*
X13577587Y-9034674D01*
X13577587Y-9034674D02*
X13596634Y-9025150D01*
X13596634Y-9025150D02*
X13625206Y-9025150D01*
X13625206Y-9025150D02*
X13644253Y-9034674D01*
X13644253Y-9034674D02*
X13653777Y-9044198D01*
X13653777Y-9044198D02*
X13663301Y-9063246D01*
X13663301Y-9063246D02*
X13663301Y-9120389D01*
X13663301Y-9120389D02*
X13653777Y-9139436D01*
X13653777Y-9139436D02*
X13644253Y-9148960D01*
X13644253Y-9148960D02*
X13625206Y-9158484D01*
X13625206Y-9158484D02*
X13596634Y-9158484D01*
X13777587Y-9158484D02*
X13758539Y-9148960D01*
X13758539Y-9148960D02*
X13749015Y-9129912D01*
X13749015Y-9129912D02*
X13749015Y-8958484D01*
X13929968Y-9148960D02*
X13910920Y-9158484D01*
X13910920Y-9158484D02*
X13872825Y-9158484D01*
X13872825Y-9158484D02*
X13853777Y-9148960D01*
X13853777Y-9148960D02*
X13844253Y-9129912D01*
X13844253Y-9129912D02*
X13844253Y-9053722D01*
X13844253Y-9053722D02*
X13853777Y-9034674D01*
X13853777Y-9034674D02*
X13872825Y-9025150D01*
X13872825Y-9025150D02*
X13910920Y-9025150D01*
X13910920Y-9025150D02*
X13929968Y-9034674D01*
X13929968Y-9034674D02*
X13939491Y-9053722D01*
X13939491Y-9053722D02*
X13939491Y-9072770D01*
X13939491Y-9072770D02*
X13844253Y-9091817D01*
X14015682Y-9148960D02*
X14034730Y-9158484D01*
X14034730Y-9158484D02*
X14072825Y-9158484D01*
X14072825Y-9158484D02*
X14091872Y-9148960D01*
X14091872Y-9148960D02*
X14101396Y-9129912D01*
X14101396Y-9129912D02*
X14101396Y-9120389D01*
X14101396Y-9120389D02*
X14091872Y-9101341D01*
X14091872Y-9101341D02*
X14072825Y-9091817D01*
X14072825Y-9091817D02*
X14044253Y-9091817D01*
X14044253Y-9091817D02*
X14025206Y-9082293D01*
X14025206Y-9082293D02*
X14015682Y-9063246D01*
X14015682Y-9063246D02*
X14015682Y-9053722D01*
X14015682Y-9053722D02*
X14025206Y-9034674D01*
X14025206Y-9034674D02*
X14044253Y-9025150D01*
X14044253Y-9025150D02*
X14072825Y-9025150D01*
X14072825Y-9025150D02*
X14091872Y-9034674D01*
X14168063Y-9234674D02*
X14177587Y-9225150D01*
X14177587Y-9225150D02*
X14196634Y-9196579D01*
X14196634Y-9196579D02*
X14206158Y-9177531D01*
X14206158Y-9177531D02*
X14215682Y-9148960D01*
X14215682Y-9148960D02*
X14225206Y-9101341D01*
X14225206Y-9101341D02*
X14225206Y-9063246D01*
X14225206Y-9063246D02*
X14215682Y-9015627D01*
X14215682Y-9015627D02*
X14206158Y-8987055D01*
X14206158Y-8987055D02*
X14196634Y-8968008D01*
X14196634Y-8968008D02*
X14177587Y-8939436D01*
X14177587Y-8939436D02*
X14168063Y-8929912D01*
M02*
