M48
; DRILL file {KiCad 8.0.1} date 2024-03-19T19:55:35+0100
; FORMAT={-:-/ absolute / inch / decimal}
; #@! TF.CreationDate,2024-03-19T19:55:35+01:00
; #@! TF.GenerationSoftware,Kicad,Pcbnew,8.0.1
; #@! TF.FileFunction,Plated,1,2,PTH
FMAT,2
INCH
; #@! TA.AperFunction,Plated,PTH,ViaDrill
T1C0.0118
; #@! TA.AperFunction,Plated,PTH,ComponentDrill
T2C0.0268
; #@! TA.AperFunction,Plated,PTH,ComponentDrill
T3C0.0374
; #@! TA.AperFunction,Plated,PTH,ComponentDrill
T4C0.0394
; #@! TA.AperFunction,Plated,PTH,ComponentDrill
T5C0.1260
%
G90
G05
T1
X4.1906Y-2.5931
X4.2906Y-2.2931
X4.7362Y-2.3874
X5.1593Y-2.4554
X5.3Y-2.2
X5.9969Y-2.3031
T2
X5.0562Y-2.1437
X5.1062Y-2.1437
X5.1562Y-2.1437
X5.3239Y-2.1437
X5.3739Y-2.1437
X5.4239Y-2.1437
T3
X5.7953Y-2.2047
X5.7953Y-2.3031
X5.7953Y-2.4016
X5.7953Y-2.5
X6.2Y-2.2047
X6.2Y-2.3031
X6.2Y-2.4016
X6.2Y-2.5
T4
X4.8586Y-2.3414
X4.9586Y-2.3414
T5
X3.9Y-2.1
X3.9Y-2.7004
X6.5151Y-2.1
X6.5151Y-2.7004
M30
